<svg width="28" height="40" viewBox="0 0 28 40" fill="none" xmlns="http://www.w3.org/2000/svg">
<path d="M13.6719 23.5938H11.6797C11.3411 23.5938 11.0612 23.7109 10.8398 23.9453C10.6185 24.1797 10.5078 24.4531 10.5078 24.7656C10.5078 25.0781 10.6185 25.3516 10.8398 25.5859C11.0612 25.8203 11.3411 25.9375 11.6797 25.9375H12.5V34.1406C12.5 34.4531 12.6172 34.7266 12.8516 34.9609C13.0859 35.1953 13.3594 35.3125 13.6719 35.3125C13.9844 35.3125 14.2578 35.1953 14.4922 34.9609C14.7266 34.7266 14.8438 34.4531 14.8438 34.1406V24.7656C14.8438 24.4531 14.7266 24.1797 14.4922 23.9453C14.2578 23.7109 13.9844 23.5938 13.6719 23.5938ZM26.1719 0H1.17188C0.859375 0 0.585938 0.117188 0.351562 0.351562C0.117188 0.585938 0 0.859375 0 1.17188V5.85938C0 6.17188 0.117188 6.44531 0.351562 6.67969C0.585938 6.91406 0.859375 7.03125 1.17188 7.03125H3.125V16.9531C3.125 17.1354 3.16406 17.3112 3.24219 17.4805C3.32031 17.6497 3.4375 17.7865 3.59375 17.8906L7.53906 20.8594C6.21094 21.8229 5.14323 23.0534 4.33594 24.5508C3.52865 26.0482 3.125 27.6823 3.125 29.4531C3.125 30.9115 3.39844 32.2786 3.94531 33.5547C4.51823 34.8307 5.27995 35.944 6.23047 36.8945C7.18099 37.8451 8.29427 38.6068 9.57031 39.1797C10.8464 39.7266 12.2135 40 13.6719 40C15.1302 40 16.4974 39.7266 17.7734 39.1797C19.0495 38.6068 20.1628 37.8451 21.1133 36.8945C22.0638 35.944 22.8255 34.8307 23.3984 33.5547C23.9453 32.2786 24.2188 30.9115 24.2188 29.4531C24.2188 27.6823 23.8151 26.0482 23.0078 24.5508C22.2005 23.0534 21.1328 21.8229 19.8047 20.8594L23.75 17.8906C23.9062 17.7865 24.0234 17.6497 24.1016 17.4805C24.1797 17.3112 24.2188 17.1354 24.2188 16.9531V7.03125H26.1719C26.4844 7.03125 26.7578 6.91406 26.9922 6.67969C27.2266 6.44531 27.3438 6.17188 27.3438 5.85938V1.17188C27.3438 0.859375 27.2266 0.585938 26.9922 0.351562C26.7578 0.117188 26.4844 0 26.1719 0ZM5.46875 7.03125H7.8125V18.125L5.46875 16.3672V7.03125ZM14.8438 18.9844V7.03125H17.1875V19.4922C16.8229 19.362 16.4453 19.2513 16.0547 19.1602C15.6641 19.069 15.2604 19.0104 14.8438 18.9844ZM12.5 18.9844C12.0833 19.0104 11.6797 19.069 11.2891 19.1602C10.8984 19.2513 10.5208 19.362 10.1562 19.4922V7.03125H12.5V18.9844ZM21.875 29.4531C21.875 30.5729 21.6536 31.6406 21.2109 32.6562C20.7943 33.6458 20.2148 34.5117 19.4727 35.2539C18.7305 35.9961 17.8646 36.5755 16.875 36.9922C15.8594 37.4349 14.7917 37.6562 13.6719 37.6562C12.5521 37.6562 11.4844 37.4349 10.4688 36.9922C9.47917 36.5755 8.61328 35.9961 7.87109 35.2539C7.12891 34.5117 6.54948 33.6458 6.13281 32.6562C5.6901 31.6406 5.46875 30.5729 5.46875 29.4531C5.46875 28.3333 5.6901 27.2656 6.13281 26.25C6.54948 25.2604 7.12891 24.3945 7.87109 23.6523C8.61328 22.9102 9.47917 22.3307 10.4688 21.9141C11.4844 21.4714 12.5521 21.25 13.6719 21.25C14.7917 21.25 15.8594 21.4714 16.875 21.9141C17.8646 22.3307 18.7305 22.9102 19.4727 23.6523C20.2148 24.3945 20.7943 25.2604 21.2109 26.25C21.6536 27.2656 21.875 28.3333 21.875 29.4531ZM21.875 16.3672L19.5312 18.125V7.03125H21.875V16.3672ZM25 4.6875H2.34375V2.34375H25V4.6875Z" fill="#F37021"/>
</svg>
