<svg width="41" height="35" viewBox="0 0 41 35" fill="none" xmlns="http://www.w3.org/2000/svg">
<path d="M39.8599 16.9141L30.4459 0.625C30.3417 0.442707 30.1985 0.29948 30.0162 0.195312C29.8339 0.0911446 29.6386 0.0390625 29.4302 0.0390625H10.6021C10.3938 0.0390625 10.1985 0.0911446 10.0162 0.195312C9.83388 0.29948 9.69065 0.442707 9.58649 0.625L0.172424 16.9141C0.0682576 17.0964 0.0161743 17.2917 0.0161743 17.5C0.0161743 17.7083 0.0682576 17.9036 0.172424 18.0859L9.58649 34.375C9.69065 34.5573 9.83388 34.7005 10.0162 34.8047C10.1985 34.9089 10.3938 34.9609 10.6021 34.9609H29.4302C29.6386 34.9609 29.8339 34.9089 30.0162 34.8047C30.1985 34.7005 30.3417 34.5573 30.4459 34.375L39.8599 18.0859C39.9641 17.9036 40.0162 17.7083 40.0162 17.5C40.0162 17.2917 39.9641 17.0964 39.8599 16.9141ZM20.0162 29.8047C20.563 29.8047 21.0969 29.7721 21.6177 29.707C22.1386 29.6419 22.6464 29.5443 23.1412 29.4141V32.6172H16.8912V29.4141C17.386 29.5443 17.8938 29.6419 18.4146 29.707C18.9354 29.7721 19.4693 29.8047 20.0162 29.8047ZM20.0162 27.4609C18.636 27.4609 17.3469 27.2005 16.149 26.6797C14.925 26.1589 13.8638 25.4492 12.9654 24.5508C12.067 23.6523 11.3573 22.5911 10.8365 21.3672C10.3157 20.1693 10.0552 18.8802 10.0552 17.5C10.0552 16.1198 10.3157 14.8307 10.8365 13.6328C11.3573 12.4089 12.067 11.3477 12.9654 10.4492C13.8638 9.55078 14.925 8.84115 16.149 8.32031C17.3469 7.79948 18.636 7.53906 20.0162 7.53906C21.3964 7.53906 22.6854 7.79948 23.8834 8.32031C25.1073 8.84115 26.1685 9.55078 27.067 10.4492C27.9654 11.3477 28.675 12.4089 29.1959 13.6328C29.7167 14.8307 29.9771 16.1198 29.9771 17.5C29.9771 18.8802 29.7167 20.1693 29.1959 21.3672C28.675 22.5911 27.9654 23.6523 27.067 24.5508C26.1685 25.4492 25.1073 26.1589 23.8834 26.6797C22.6854 27.2005 21.3964 27.4609 20.0162 27.4609ZM20.0162 5.19531C19.4693 5.19531 18.9354 5.22787 18.4146 5.29297C17.8938 5.35807 17.386 5.45573 16.8912 5.58594V2.38281H23.1412V5.58594C22.6464 5.45573 22.1386 5.35807 21.6177 5.29297C21.0969 5.22787 20.563 5.19531 20.0162 5.19531ZM2.55524 17.5L11.2662 2.38281H14.5474V6.48438C13.5318 6.97917 12.6073 7.60417 11.774 8.35938C10.9407 9.14062 10.2245 10.0065 9.62555 10.957C9.02659 11.9076 8.55784 12.9297 8.2193 14.0234C7.88076 15.1432 7.71149 16.3021 7.71149 17.5C7.71149 18.6979 7.88076 19.8568 8.2193 20.9766C8.55784 22.0703 9.02659 23.0924 9.62555 24.043C10.2245 24.9935 10.9407 25.8594 11.774 26.6406C12.6073 27.3958 13.5318 28.0208 14.5474 28.5156V32.6172H11.2662L2.55524 17.5ZM28.7662 32.6172H25.4849V28.5156C26.5005 28.0208 27.425 27.3958 28.2584 26.6406C29.0917 25.8594 29.8078 24.9935 30.4068 24.043C31.0058 23.0924 31.4745 22.0703 31.813 20.9766C32.1516 19.8568 32.3209 18.6979 32.3209 17.5C32.3209 16.3021 32.1516 15.1432 31.813 14.0234C31.4745 12.9297 31.0058 11.9076 30.4068 10.957C29.8078 10.0065 29.0917 9.14062 28.2584 8.35938C27.425 7.60417 26.5005 6.97917 25.4849 6.48438V2.38281H28.7662L37.4771 17.5L28.7662 32.6172ZM25.7974 15.1953L22.8287 14.1797L20.9537 11.6797C20.8495 11.5234 20.7128 11.4062 20.5435 11.3281C20.3742 11.25 20.1985 11.2109 20.0162 11.2109C19.8339 11.2109 19.6581 11.25 19.4888 11.3281C19.3196 11.4062 19.1828 11.5234 19.0787 11.6797L17.2037 14.1797L14.2349 15.1953C14.0787 15.2474 13.9354 15.3385 13.8052 15.4688C13.675 15.599 13.5709 15.7552 13.4927 15.9375C13.4407 16.0938 13.4276 16.2695 13.4537 16.4648C13.4797 16.6602 13.5448 16.8229 13.649 16.9531L15.4849 19.5312L15.524 22.6562C15.524 22.8385 15.563 23.0078 15.6412 23.1641C15.7193 23.3203 15.8365 23.4635 15.9927 23.5938C16.149 23.6979 16.3183 23.763 16.5005 23.7891C16.6828 23.8151 16.8651 23.8021 17.0474 23.75L20.0162 22.8125C20.0162 22.8125 20.4914 22.9753 21.442 23.3008C22.3925 23.6263 23.024 23.7891 23.3365 23.7891C23.4667 23.7891 23.5904 23.7695 23.7076 23.7305C23.8248 23.6914 23.9354 23.6458 24.0396 23.5938C24.1959 23.4635 24.313 23.3203 24.3912 23.1641C24.4693 23.0078 24.5084 22.8385 24.5084 22.6562L24.5474 19.5312L26.3834 16.9531C26.4875 16.8229 26.5526 16.6602 26.5787 16.4648C26.6047 16.2695 26.5917 16.0938 26.5396 15.9375C26.4615 15.7552 26.3573 15.599 26.2271 15.4688C26.0969 15.3385 25.9537 15.2474 25.7974 15.1953ZM22.438 18.4766C22.3599 18.5547 22.3078 18.6523 22.2818 18.7695C22.2558 18.8867 22.2427 19.0104 22.2427 19.1406L22.2037 21.0547L20.3677 20.4688C20.3157 20.4688 20.2571 20.4622 20.192 20.4492C20.1269 20.4362 20.0683 20.4297 20.0162 20.4297C19.9641 20.4297 19.9055 20.4362 19.8404 20.4492C19.7753 20.4622 19.7167 20.4688 19.6646 20.4688L17.8287 21.0547L17.7896 19.1406C17.7896 19.0104 17.7766 18.8867 17.7505 18.7695C17.7245 18.6523 17.6724 18.5547 17.5943 18.4766L16.5005 16.875L18.2974 16.2891C18.4016 16.237 18.5058 16.1784 18.6099 16.1133C18.7141 16.0482 18.8052 15.9635 18.8834 15.8594L20.0162 14.3359L21.149 15.8594C21.2271 15.9635 21.3183 16.0482 21.4224 16.1133C21.5266 16.1784 21.6308 16.237 21.7349 16.2891L23.5318 16.875L22.438 18.4766Z" fill="#F37021"/>
</svg>
