<svg width="131" height="130" viewBox="0 0 131 130" fill="none" xmlns="http://www.w3.org/2000/svg">
<path d="M114.528 30.9766L66.7935 0.507812C66.2857 0.169266 65.7567 0 65.2066 0C64.6565 0 64.1275 0.169266 63.6197 0.507812L15.7584 30.9766C15.3352 31.2305 14.9966 31.5902 14.7427 32.0557C14.4888 32.5212 14.3619 32.9655 14.3619 33.3887V59.9219C14.3619 65.3385 15.039 70.6706 16.3931 75.918C17.6627 81.1654 19.5035 86.1377 21.9156 90.835C24.3277 95.5322 27.3111 99.9121 30.8658 103.975C34.3358 108.037 38.3137 111.634 42.7994 114.766L63.4927 129.492C64.0005 129.831 64.5507 130 65.1431 130C65.7356 130 66.328 129.831 66.9205 129.492L87.6138 114.766C92.0149 111.634 95.9504 108.037 99.4205 103.975C102.975 99.9121 105.959 95.5322 108.371 90.835C110.783 86.1377 112.666 81.1654 114.02 75.918C115.29 70.6706 115.924 65.3385 115.924 59.9219V33.3887C115.924 32.9655 115.797 32.5212 115.544 32.0557C115.29 31.5902 114.951 31.2305 114.528 30.9766ZM110.085 59.9219C110.085 64.9154 109.492 69.7819 108.307 74.5215C107.122 79.3457 105.43 83.8949 103.229 88.1689C101.029 92.443 98.3202 96.4421 95.1041 100.166C91.8879 103.89 88.2486 107.191 84.1861 110.068L65.1431 123.525L46.2271 110.068C42.1646 107.191 38.5253 103.89 35.3091 100.166C32.093 96.4421 29.3847 92.443 27.1841 88.1689C24.9836 83.8949 23.2909 79.3457 22.106 74.5215C20.9211 69.7819 20.3287 64.9154 20.3287 59.9219V35.0391L65.1431 6.47461L110.085 35.0391V59.9219ZM49.5279 61.4453C49.0201 60.8529 48.3642 60.5566 47.5601 60.5566C46.7561 60.5566 46.0578 60.8529 45.4654 61.4453C44.8729 61.9531 44.5767 62.609 44.5767 63.4131C44.5767 64.2171 44.8306 64.9154 45.3384 65.5078L57.5259 78.0762C58.1184 78.584 58.8166 78.8591 59.6207 78.9014C60.4247 78.9437 61.1229 78.6686 61.7154 78.0762L84.9478 56.1133C85.5403 55.6055 85.8576 54.9495 85.9 54.1455C85.9423 53.3415 85.6672 52.6432 85.0748 52.0508C84.567 51.4583 83.8899 51.141 83.0435 51.0986C82.1972 51.0563 81.4778 51.3314 80.8853 51.9238L59.8111 71.8555L49.5279 61.4453Z" fill="#F8F5F5"/>
</svg>
