<svg width="41" height="39" viewBox="0 0 41 39" fill="none" xmlns="http://www.w3.org/2000/svg">
<path d="M27.4384 13.875V25.6719H29.9384V21.2578C29.9384 20.737 30.0425 20.3138 30.2509 19.9883C30.4592 19.6628 30.7196 19.5 31.0321 19.5C31.4748 19.5 31.7157 19.7018 31.7548 20.1055C31.7938 20.5091 31.8134 20.8802 31.8134 21.2188C31.8134 21.2188 31.8199 21.9609 31.8329 23.4453C31.8459 24.9297 31.8524 25.6719 31.8524 25.6719H34.3524V21.2578C34.3524 20.4505 34.2678 19.7669 34.0985 19.207C33.9292 18.6471 33.6623 18.1849 33.2977 17.8203C33.0113 17.5599 32.6792 17.3581 32.3016 17.2148C31.924 17.0716 31.5009 17 31.0321 17C30.8498 17 30.6675 17.013 30.4852 17.0391C30.3029 17.0651 30.1206 17.1042 29.9384 17.1562V13.875H27.4384ZM21.4227 13.5625L16.2274 22.5859H21.9696L21.9305 25.4375L24.4696 25.4766V22.5859H25.7196V20.0859H24.4696V13.5625H21.4227ZM21.9696 20.0859H20.5243L21.9696 17.5859V20.0859ZM13.1024 13.3281C12.217 13.3281 11.4227 13.6081 10.7196 14.168C10.0165 14.7279 9.58679 15.4505 9.43054 16.3359L9.19617 17.5469L11.6571 18.0547L11.8915 16.8047C11.9436 16.5182 12.0803 16.2839 12.3016 16.1016C12.523 15.9193 12.7899 15.8281 13.1024 15.8281C13.4149 15.8281 13.6884 15.9388 13.9227 16.1602C14.1571 16.3815 14.2873 16.6615 14.3134 17C14.2873 17.3125 14.1831 17.625 14.0009 17.9375C13.8186 18.25 13.6363 18.5365 13.454 18.7969C12.3081 20.4635 11.4683 21.6159 10.9344 22.2539C10.4006 22.8919 10.1337 23.2109 10.1337 23.2109L9.7821 23.6016V25.6719H17.243V23.1719H13.3759C13.6623 22.8073 13.9813 22.3841 14.3329 21.9023C14.6844 21.4206 15.0816 20.8672 15.5243 20.2422C15.8368 19.7734 16.1233 19.2721 16.3837 18.7383C16.6441 18.2044 16.7873 17.638 16.8134 17.0391C16.8134 16.0234 16.4488 15.151 15.7196 14.4219C14.9904 13.6927 14.118 13.3281 13.1024 13.3281ZM35.0165 6.25781C34.1311 5.37239 33.1805 4.57812 32.1649 3.875C31.1493 3.19792 30.0816 2.625 28.9618 2.15625C27.842 1.6875 26.6701 1.33594 25.4462 1.10156C24.2483 0.867188 23.0243 0.75 21.7743 0.75C20.7066 0.75 19.6519 0.841145 18.6102 1.02344C17.5425 1.20573 16.5139 1.47266 15.5243 1.82422C14.5347 2.17578 13.5712 2.61198 12.6337 3.13281C11.6962 3.65364 10.8108 4.25261 9.97742 4.92969C9.17013 5.58073 8.41492 6.29688 7.71179 7.07812C7.03471 7.88542 6.41622 8.72526 5.85632 9.59766C5.29643 10.4701 4.82117 11.401 4.43054 12.3906C4.03992 13.3542 3.72742 14.3438 3.49304 15.3594L5.91492 15.9062C6.33158 14.1354 7.02169 12.4753 7.98523 10.9258C8.94877 9.3763 10.1467 8.02865 11.579 6.88281C13.0113 5.71094 14.6063 4.8125 16.3641 4.1875C18.1219 3.5625 19.9253 3.25 21.7743 3.25C24.0139 3.25 26.1233 3.67969 28.1024 4.53906C30.0555 5.39844 31.7678 6.5638 33.2391 8.03516C34.7105 9.50651 35.8759 11.2188 36.7352 13.1719C37.5946 15.151 38.0243 17.2604 38.0243 19.5C38.0243 21.7396 37.5946 23.849 36.7352 25.8281C35.8759 27.7812 34.7105 29.4935 33.2391 30.9648C31.7678 32.4362 30.0555 33.6016 28.1024 34.4609C26.1233 35.3203 24.0139 35.75 21.7743 35.75C19.7951 35.75 17.9201 35.4115 16.1493 34.7344C14.3785 34.0573 12.7899 33.1328 11.3837 31.9609C9.97742 30.7891 8.79252 29.3958 7.82898 27.7812C6.86544 26.1927 6.20138 24.4609 5.83679 22.5859L6.46179 23.0938L8.02429 21.1406L4.7821 18.4844H3.76648L0.524292 21.1406L2.12585 23.0938L3.2196 22.1562C3.50606 24.1615 4.09851 26.069 4.99695 27.8789C5.89539 29.6888 7.07377 31.3099 8.5321 32.7422C9.41752 33.6276 10.368 34.4219 11.3837 35.125C12.3993 35.8021 13.467 36.375 14.5868 36.8438C15.7066 37.3125 16.8785 37.6641 18.1024 37.8984C19.3003 38.1328 20.5243 38.25 21.7743 38.25C23.0243 38.25 24.2483 38.1328 25.4462 37.8984C26.6701 37.6641 27.842 37.3125 28.9618 36.8438C30.0816 36.375 31.1493 35.8021 32.1649 35.125C33.1805 34.4219 34.1311 33.6276 35.0165 32.7422C35.9019 31.8568 36.6962 30.9062 37.3993 29.8906C38.0764 28.875 38.6493 27.8073 39.118 26.6875C39.5868 25.5677 39.9384 24.3958 40.1727 23.1719C40.4071 21.974 40.5243 20.75 40.5243 19.5C40.5243 18.25 40.4071 17.026 40.1727 15.8281C39.9384 14.6042 39.5868 13.4323 39.118 12.3125C38.6493 11.1927 38.0764 10.125 37.3993 9.10938C36.6962 8.09375 35.9019 7.14323 35.0165 6.25781Z" fill="#F37021"/>
</svg>
