<svg width="31" height="41" viewBox="0 0 31 41" fill="none" xmlns="http://www.w3.org/2000/svg">
<path d="M15.5081 19.4062C14.5445 19.4062 13.7177 19.0612 13.0276 18.3711C12.3375 17.681 11.9925 16.8542 11.9925 15.8906C11.9925 14.9271 12.3375 14.1003 13.0276 13.4102C13.7177 12.7201 14.5445 12.375 15.5081 12.375C16.4716 12.375 17.2985 12.7201 17.9886 13.4102C18.6787 14.1003 19.0237 14.9271 19.0237 15.8906C19.0237 16.8542 18.6787 17.681 17.9886 18.3711C17.2985 19.0612 16.4716 19.4062 15.5081 19.4062ZM15.5081 14.7188C15.1956 14.7188 14.9221 14.8359 14.6878 15.0703C14.4534 15.3047 14.3362 15.5781 14.3362 15.8906C14.3362 16.2031 14.4534 16.4766 14.6878 16.7109C14.9221 16.9453 15.1956 17.0625 15.5081 17.0625C15.8206 17.0625 16.094 16.9453 16.3284 16.7109C16.5628 16.4766 16.68 16.2031 16.68 15.8906C16.68 15.5781 16.5628 15.3047 16.3284 15.0703C16.094 14.8359 15.8206 14.7188 15.5081 14.7188ZM20.1956 26.4375H10.8206V24.0938C10.8206 22.7917 11.2763 21.6849 12.1878 20.7734C13.0992 19.862 14.206 19.4062 15.5081 19.4062C16.8102 19.4062 17.9169 19.862 18.8284 20.7734C19.7399 21.6849 20.1956 22.7917 20.1956 24.0938V26.4375ZM13.1643 24.0938H17.8518C17.8518 23.4427 17.624 22.8893 17.1682 22.4336C16.7125 21.9779 16.1591 21.75 15.5081 21.75C14.857 21.75 14.3037 21.9779 13.8479 22.4336C13.3922 22.8893 13.1643 23.4427 13.1643 24.0938ZM15.5081 40.5L15.1565 40.3828C12.9169 39.6276 10.8857 38.5729 9.06277 37.2188C7.23986 35.8646 5.67736 34.2891 4.37527 32.4922C3.07319 30.6953 2.05757 28.7161 1.3284 26.5547C0.625275 24.3932 0.273712 22.1536 0.273712 19.8359V5.1875H3.78934C4.75288 5.1875 5.5797 4.84245 6.26981 4.15234C6.95991 3.46224 7.30496 2.63542 7.30496 1.67188V0.5H23.7112V1.67188C23.7112 2.63542 24.0563 3.46224 24.7464 4.15234C25.4365 4.84245 26.2633 5.1875 27.2268 5.1875H30.7425V19.8359C30.7425 22.1536 30.3909 24.3932 29.6878 26.5547C28.9586 28.7161 27.943 30.6953 26.6409 32.4922C25.3388 34.2891 23.7763 35.8646 21.9534 37.2188C20.1305 38.5729 18.0992 39.6276 15.8596 40.3828L15.5081 40.5ZM2.61746 7.53125V19.8359C2.61746 21.8672 2.92996 23.8333 3.55496 25.7344C4.15392 27.6354 5.01981 29.3802 6.15262 30.9688C7.28543 32.5573 8.64611 33.9635 10.2346 35.1875C11.8232 36.3854 13.581 37.3359 15.5081 38.0391C17.4352 37.3359 19.193 36.3854 20.7815 35.1875C22.3701 33.9635 23.7307 32.5573 24.8636 30.9688C25.9964 29.3802 26.8623 27.6354 27.4612 25.7344C28.0862 23.8333 28.3987 21.8672 28.3987 19.8359V7.53125H27.2268C25.8206 7.53125 24.5771 7.08203 23.4964 6.18359C22.4156 5.28516 21.7451 4.17188 21.4846 2.84375H9.53152C9.27111 4.17188 8.60054 5.28516 7.51981 6.18359C6.43908 7.08203 5.19559 7.53125 3.78934 7.53125H2.61746ZM15.5081 35.5391L15.0393 35.3047C13.5289 34.6276 12.1487 33.7682 10.8987 32.7266C9.67475 31.6589 8.62007 30.4544 7.73465 29.1133C6.84923 27.7721 6.17215 26.3203 5.7034 24.7578C5.20861 23.1693 4.96121 21.5286 4.96121 19.8359V9.83594L5.82059 9.60156C6.8883 9.34115 7.86486 8.8724 8.75027 8.19531C9.63569 7.51823 10.3518 6.71094 10.8987 5.77344L11.2503 5.1875H19.7659L20.1175 5.77344C20.6643 6.71094 21.3805 7.51823 22.2659 8.19531C23.1513 8.8724 24.1279 9.34115 25.1956 9.60156L26.055 9.83594V19.8359C26.055 21.4766 25.8206 23.0781 25.3518 24.6406C24.8831 26.2031 24.2125 27.6615 23.3401 29.0156C22.4677 30.3698 21.4065 31.5807 20.1565 32.6484C18.9326 33.7422 17.5393 34.6276 15.9768 35.3047L15.5081 35.5391ZM7.30496 11.6328V19.8359C7.30496 21.2161 7.50027 22.5573 7.8909 23.8594C8.28152 25.1875 8.8284 26.418 9.53152 27.5508C10.2346 28.6836 11.094 29.7188 12.1096 30.6562C13.1253 31.5677 14.2581 32.3359 15.5081 32.9609C16.7581 32.3359 17.8909 31.5677 18.9065 30.6562C19.9221 29.7188 20.7815 28.6836 21.4846 27.5508C22.1878 26.418 22.7346 25.1875 23.1253 23.8594C23.5159 22.5573 23.7112 21.2161 23.7112 19.8359V11.6328C22.6435 11.2422 21.6604 10.6953 20.762 9.99219C19.8636 9.28906 19.1018 8.46875 18.4768 7.53125H12.5393C11.9143 8.46875 11.1526 9.28906 10.2542 9.99219C9.35574 10.6953 8.37267 11.2422 7.30496 11.6328Z" fill="#F37021"/>
</svg>
