<svg width="36" height="40" viewBox="0 0 36 40" fill="none" xmlns="http://www.w3.org/2000/svg">
<path d="M33.5469 27.3171C33.9896 27.3171 34.3607 27.171 34.6602 26.8788C34.9596 26.5866 35.1094 26.2246 35.1094 25.7927V6.58538C35.1094 4.90855 34.4974 3.47308 33.2734 2.27897C32.0495 1.08487 30.5781 0.487816 28.8594 0.487816H7.14062C5.42188 0.487816 3.95052 1.08487 2.72656 2.27897C1.5026 3.47308 0.890625 4.90855 0.890625 6.58538V33.4146C0.890625 35.0915 1.5026 36.5269 2.72656 37.721C3.95052 38.9152 5.42188 39.5122 7.14062 39.5122H28.8594C30.5781 39.5122 32.0495 38.9152 33.2734 37.721C34.4974 36.5269 35.1094 35.0915 35.1094 33.4146C35.1094 32.9827 34.9596 32.6207 34.6602 32.3285C34.3607 32.0363 33.9896 31.8903 33.5469 31.8903C33.1042 31.8903 32.7331 32.0363 32.4336 32.3285C32.1341 32.6207 31.9844 32.9827 31.9844 33.4146C31.9844 34.2531 31.6784 34.9708 31.0664 35.5678C30.4544 36.1649 29.7188 36.4634 28.8594 36.4634H7.14062C6.28125 36.4634 5.54557 36.1649 4.93359 35.5678C4.32161 34.9708 4.01562 34.2531 4.01562 33.4146V6.58538C4.01562 5.74696 4.32161 5.02923 4.93359 4.43217C5.54557 3.83512 6.28125 3.5366 7.14062 3.5366H28.8594C29.7188 3.5366 30.4544 3.83512 31.0664 4.43217C31.6784 5.02923 31.9844 5.74696 31.9844 6.58538V25.7927C31.9844 26.2246 32.1341 26.5866 32.4336 26.8788C32.7331 27.171 33.1042 27.3171 33.5469 27.3171ZM27.2969 30.3659H21.0469C20.6042 30.3659 20.2331 30.512 19.9336 30.8041C19.6341 31.0963 19.4844 31.4583 19.4844 31.8903C19.4844 32.3222 19.6341 32.6842 19.9336 32.9764C20.2331 33.2686 20.6042 33.4146 21.0469 33.4146H27.2969C27.7396 33.4146 28.1107 33.2686 28.4102 32.9764C28.7096 32.6842 28.8594 32.3222 28.8594 31.8903C28.8594 31.4583 28.7096 31.0963 28.4102 30.8041C28.1107 30.512 27.7396 30.3659 27.2969 30.3659ZM8.70312 18.7805C8.26042 18.7805 7.88932 18.9266 7.58984 19.2188C7.29036 19.5109 7.14062 19.873 7.14062 20.3049C7.14062 20.7368 7.29036 21.0988 7.58984 21.391C7.88932 21.6832 8.26042 21.8293 8.70312 21.8293C9.14583 21.8293 9.52995 21.6832 9.85547 21.391C10.181 21.0988 10.3438 20.7368 10.3438 20.3049C10.3438 19.873 10.181 19.5109 9.85547 19.2188C9.52995 18.9266 9.14583 18.7805 8.70312 18.7805ZM16.5156 20.3049C16.5156 20.7368 16.3659 21.0988 16.0664 21.391C15.7669 21.6832 15.3958 21.8293 14.9531 21.8293C14.5104 21.8293 14.1393 21.6832 13.8398 21.391C13.5404 21.0988 13.3906 20.7368 13.3906 20.3049C13.3906 19.873 13.5404 19.5109 13.8398 19.2188C14.1393 18.9266 14.5104 18.7805 14.9531 18.7805C15.3958 18.7805 15.7669 18.9266 16.0664 19.2188C16.3659 19.5109 16.5156 19.873 16.5156 20.3049ZM22.6875 20.3049C22.6875 20.7368 22.5378 21.0988 22.2383 21.391C21.9388 21.6832 21.5677 21.8293 21.125 21.8293C20.6823 21.8293 20.3112 21.6832 20.0117 21.391C19.7122 21.0988 19.5625 20.7368 19.5625 20.3049C19.5625 19.873 19.7122 19.5109 20.0117 19.2188C20.3112 18.9266 20.6823 18.7805 21.125 18.7805C21.5677 18.7805 21.9388 18.9266 22.2383 19.2188C22.5378 19.5109 22.6875 19.873 22.6875 20.3049ZM8.70312 24.5732C8.26042 24.5732 7.88932 24.7193 7.58984 25.0114C7.29036 25.3036 7.14062 25.6657 7.14062 26.0976C7.14062 26.5295 7.29036 26.8915 7.58984 27.1837C7.88932 27.4759 8.26042 27.622 8.70312 27.622C9.14583 27.622 9.52995 27.4759 9.85547 27.1837C10.181 26.8915 10.3438 26.5295 10.3438 26.0976C10.3438 25.6657 10.181 25.3036 9.85547 25.0114C9.52995 24.7193 9.14583 24.5732 8.70312 24.5732ZM16.5156 26.0976C16.5156 26.5295 16.3659 26.8915 16.0664 27.1837C15.7669 27.4759 15.3958 27.622 14.9531 27.622C14.5104 27.622 14.1393 27.4759 13.8398 27.1837C13.5404 26.8915 13.3906 26.5295 13.3906 26.0976C13.3906 25.6657 13.5404 25.3036 13.8398 25.0114C14.1393 24.7193 14.5104 24.5732 14.9531 24.5732C15.3958 24.5732 15.7669 24.7193 16.0664 25.0114C16.3659 25.3036 16.5156 25.6657 16.5156 26.0976ZM22.6875 26.0976C22.6875 26.5295 22.5378 26.8915 22.2383 27.1837C21.9388 27.4759 21.5677 27.622 21.125 27.622C20.6823 27.622 20.3112 27.4759 20.0117 27.1837C19.7122 26.8915 19.5625 26.5295 19.5625 26.0976C19.5625 25.6657 19.7122 25.3036 20.0117 25.0114C20.3112 24.7193 20.6823 24.5732 21.125 24.5732C21.5677 24.5732 21.9388 24.7193 22.2383 25.0114C22.5378 25.3036 22.6875 25.6657 22.6875 26.0976ZM28.8594 20.3049C28.8594 20.7368 28.7096 21.0988 28.4102 21.391C28.1107 21.6832 27.7396 21.8293 27.2969 21.8293C26.8542 21.8293 26.4831 21.6832 26.1836 21.391C25.8841 21.0988 25.7344 20.7368 25.7344 20.3049C25.7344 19.873 25.8841 19.5109 26.1836 19.2188C26.4831 18.9266 26.8542 18.7805 27.2969 18.7805C27.7396 18.7805 28.1107 18.9266 28.4102 19.2188C28.7096 19.5109 28.8594 19.873 28.8594 20.3049ZM10.2656 31.8903C10.2656 32.3222 10.1159 32.6842 9.81641 32.9764C9.51693 33.2686 9.14583 33.4146 8.70312 33.4146C8.26042 33.4146 7.88932 33.2686 7.58984 32.9764C7.29036 32.6842 7.14062 32.3222 7.14062 31.8903C7.14062 31.4583 7.29036 31.0963 7.58984 30.8041C7.88932 30.512 8.26042 30.3659 8.70312 30.3659C9.14583 30.3659 9.51693 30.512 9.81641 30.8041C10.1159 31.0963 10.2656 31.4583 10.2656 31.8903ZM28.8594 26.0976C28.8594 26.5295 28.7096 26.8915 28.4102 27.1837C28.1107 27.4759 27.7396 27.622 27.2969 27.622C26.8542 27.622 26.4831 27.4759 26.1836 27.1837C25.8841 26.8915 25.7344 26.5295 25.7344 26.0976C25.7344 25.6657 25.8841 25.3036 26.1836 25.0114C26.4831 24.7193 26.8542 24.5732 27.2969 24.5732C27.7396 24.5732 28.1107 24.7193 28.4102 25.0114C28.7096 25.3036 28.8594 25.6657 28.8594 26.0976ZM16.4375 31.8903C16.4375 32.3222 16.2878 32.6842 15.9883 32.9764C15.6888 33.2686 15.3177 33.4146 14.875 33.4146C14.4323 33.4146 14.0612 33.2686 13.7617 32.9764C13.4622 32.6842 13.3125 32.3222 13.3125 31.8903C13.3125 31.4583 13.4622 31.0963 13.7617 30.8041C14.0612 30.512 14.4323 30.3659 14.875 30.3659C15.3177 30.3659 15.6888 30.512 15.9883 30.8041C16.2878 31.0963 16.4375 31.4583 16.4375 31.8903ZM27.2969 6.58538H8.70312C8.26042 6.58538 7.88932 6.73146 7.58984 7.02364C7.29036 7.31581 7.14062 7.67786 7.14062 8.10977V14.2073C7.14062 14.6392 7.29036 15.0013 7.58984 15.2935C7.88932 15.5856 8.26042 15.7317 8.70312 15.7317H27.2969C27.7396 15.7317 28.1107 15.5856 28.4102 15.2935C28.7096 15.0013 28.8594 14.6392 28.8594 14.2073V8.10977C28.8594 7.67786 28.7096 7.31581 28.4102 7.02364C28.1107 6.73146 27.7396 6.58538 27.2969 6.58538ZM25.7344 12.6829H10.2656V9.63416H25.7344V12.6829Z" fill="#F37021"/>
</svg>
