<svg width="40" height="40" viewBox="0 0 40 40" fill="none" xmlns="http://www.w3.org/2000/svg">
<path d="M31.7188 16.4939C31.7188 16.9258 31.569 17.2879 31.2695 17.58C30.9701 17.8722 30.599 18.0183 30.1562 18.0183C29.7135 18.0183 29.3424 17.8722 29.043 17.58C28.7435 17.2879 28.5938 16.9258 28.5938 16.4939C28.5938 16.062 28.7435 15.7 29.043 15.4078C29.3424 15.1156 29.7135 14.9695 30.1562 14.9695C30.599 14.9695 30.9701 15.1156 31.2695 15.4078C31.569 15.7 31.7188 16.062 31.7188 16.4939ZM33.75 3.5366H31.7188V2.01221C31.7188 1.5803 31.569 1.21825 31.2695 0.926079C30.9701 0.633904 30.599 0.487816 30.1562 0.487816C29.7135 0.487816 29.3424 0.633904 29.043 0.926079C28.7435 1.21825 28.5938 1.5803 28.5938 2.01221V3.5366H21.4844V2.01221C21.4844 1.5803 21.3346 1.21825 21.0352 0.926079C20.7357 0.633904 20.3646 0.487816 19.9219 0.487816C19.4792 0.487816 19.1081 0.633904 18.8086 0.926079C18.5091 1.21825 18.3594 1.5803 18.3594 2.01221V3.5366H11.3281V2.01221C11.3281 1.5803 11.1784 1.21825 10.8789 0.926079C10.5794 0.633904 10.2083 0.487816 9.76562 0.487816C9.32292 0.487816 8.95182 0.633904 8.65234 0.926079C8.35286 1.21825 8.20312 1.5803 8.20312 2.01221V3.5366H6.25C4.53125 3.5366 3.0599 4.13365 1.83594 5.32775C0.611979 6.52186 0 7.95733 0 9.63416V33.4146C0 35.0915 0.611979 36.5269 1.83594 37.721C3.0599 38.9152 4.53125 39.5122 6.25 39.5122H18.2031C18.6458 39.5122 19.0169 39.3661 19.3164 39.0739C19.6159 38.7818 19.7656 38.4197 19.7656 37.9878C19.7656 37.5559 19.6159 37.1939 19.3164 36.9017C19.0169 36.6095 18.6458 36.4634 18.2031 36.4634H6.25C5.39062 36.4634 4.65495 36.1649 4.04297 35.5678C3.43099 34.9708 3.125 34.2531 3.125 33.4146V9.63416C3.125 8.79574 3.43099 8.07801 4.04297 7.48096C4.65495 6.8839 5.39062 6.58538 6.25 6.58538H8.20312V8.10977C8.20312 8.54168 8.35286 8.90372 8.65234 9.1959C8.95182 9.48807 9.32292 9.63416 9.76562 9.63416C10.2083 9.63416 10.5794 9.48807 10.8789 9.1959C11.1784 8.90372 11.3281 8.54168 11.3281 8.10977V6.58538H18.3594V8.10977C18.3594 8.54168 18.5091 8.90372 18.8086 9.1959C19.1081 9.48807 19.4792 9.63416 19.9219 9.63416C20.3646 9.63416 20.7357 9.48807 21.0352 9.1959C21.3346 8.90372 21.4844 8.54168 21.4844 8.10977V6.58538H28.5938V8.10977C28.5938 8.54168 28.7435 8.90372 29.043 9.1959C29.3424 9.48807 29.7135 9.63416 30.1562 9.63416C30.599 9.63416 30.9701 9.48807 31.2695 9.1959C31.569 8.90372 31.7188 8.54168 31.7188 8.10977V6.58538H33.75C34.6094 6.58538 35.3451 6.8839 35.957 7.48096C36.569 8.07801 36.875 8.79574 36.875 9.63416V18.3232C36.875 18.7551 37.0247 19.1171 37.3242 19.4093C37.6237 19.7015 37.9948 19.8476 38.4375 19.8476C38.8802 19.8476 39.2513 19.7015 39.5508 19.4093C39.8503 19.1171 40 18.7551 40 18.3232V9.63416C40 7.95733 39.388 6.52186 38.1641 5.32775C36.9401 4.13365 35.4688 3.5366 33.75 3.5366ZM30.5469 21.0671C29.2448 21.0671 28.0208 21.3084 26.875 21.7912C25.7292 22.2739 24.7266 22.9345 23.8672 23.7729C23.0078 24.6113 22.3307 25.5894 21.8359 26.7073C21.3411 27.8252 21.0938 29.0193 21.0938 30.2896C21.0938 31.56 21.3411 32.7541 21.8359 33.872C22.3307 34.9898 23.0078 35.968 23.8672 36.8064C24.7266 37.6448 25.7292 38.3054 26.875 38.7881C28.0208 39.2708 29.2448 39.5122 30.5469 39.5122C31.849 39.5122 33.0729 39.2708 34.2188 38.7881C35.3646 38.3054 36.3672 37.6448 37.2266 36.8064C38.0859 35.968 38.763 34.9898 39.2578 33.872C39.7526 32.7541 40 31.56 40 30.2896C40 29.0193 39.7526 27.8252 39.2578 26.7073C38.763 25.5894 38.0859 24.6113 37.2266 23.7729C36.3672 22.9345 35.3646 22.2739 34.2188 21.7912C33.0729 21.3084 31.849 21.0671 30.5469 21.0671ZM30.5469 36.4634C28.8021 36.4634 27.3112 35.86 26.0742 34.6532C24.8372 33.4464 24.2188 31.9919 24.2188 30.2896C24.2188 28.5874 24.8372 27.1329 26.0742 25.9261C27.3112 24.7193 28.8021 24.1159 30.5469 24.1159C32.2917 24.1159 33.7826 24.7193 35.0195 25.9261C36.2565 27.1329 36.875 28.5874 36.875 30.2896C36.875 31.9919 36.2565 33.4464 35.0195 34.6532C33.7826 35.86 32.2917 36.4634 30.5469 36.4634ZM32.8125 28.7653H32.1094V27.1646C32.1094 26.7327 31.9596 26.3707 31.6602 26.0785C31.3607 25.7863 30.9896 25.6403 30.5469 25.6403C30.1042 25.6403 29.7331 25.7863 29.4336 26.0785C29.1341 26.3707 28.9844 26.7327 28.9844 27.1646V30.2896C28.9844 30.7216 29.1341 31.0836 29.4336 31.3758C29.7331 31.6679 30.1042 31.814 30.5469 31.814H32.8125C33.2552 31.814 33.6263 31.6679 33.9258 31.3758C34.2253 31.0836 34.375 30.7216 34.375 30.2896C34.375 29.8577 34.2253 29.4957 33.9258 29.2035C33.6263 28.9113 33.2552 28.7653 32.8125 28.7653ZM24.9219 16.4939C24.9219 16.9258 24.7721 17.2879 24.4727 17.58C24.1732 17.8722 23.8021 18.0183 23.3594 18.0183C22.9167 18.0183 22.5456 17.8722 22.2461 17.58C21.9466 17.2879 21.7969 16.9258 21.7969 16.4939C21.7969 16.062 21.9466 15.7 22.2461 15.4078C22.5456 15.1156 22.9167 14.9695 23.3594 14.9695C23.8021 14.9695 24.1732 15.1156 24.4727 15.4078C24.7721 15.7 24.9219 16.062 24.9219 16.4939ZM18.125 23.125C18.125 23.5569 17.9753 23.919 17.6758 24.2111C17.3763 24.5033 17.0052 24.6494 16.5625 24.6494C16.1198 24.6494 15.7487 24.5033 15.4492 24.2111C15.1497 23.919 15 23.5569 15 23.125C15 22.6931 15.1497 22.3311 15.4492 22.0389C15.7487 21.7467 16.1198 21.6006 16.5625 21.6006C17.0052 21.6006 17.3763 21.7467 17.6758 22.0389C17.9753 22.3311 18.125 22.6931 18.125 23.125ZM11.3281 16.4939C11.3281 16.9258 11.1784 17.2879 10.8789 17.58C10.5794 17.8722 10.2083 18.0183 9.76562 18.0183C9.32292 18.0183 8.95182 17.8722 8.65234 17.58C8.35286 17.2879 8.20312 16.9258 8.20312 16.4939C8.20312 16.062 8.35286 15.7 8.65234 15.4078C8.95182 15.1156 9.32292 14.9695 9.76562 14.9695C10.2083 14.9695 10.5794 15.1156 10.8789 15.4078C11.1784 15.7 11.3281 16.062 11.3281 16.4939ZM11.3281 23.125C11.3281 23.5569 11.1784 23.919 10.8789 24.2111C10.5794 24.5033 10.2083 24.6494 9.76562 24.6494C9.32292 24.6494 8.95182 24.5033 8.65234 24.2111C8.35286 23.919 8.20312 23.5569 8.20312 23.125C8.20312 22.6931 8.35286 22.3311 8.65234 22.0389C8.95182 21.7467 9.32292 21.6006 9.76562 21.6006C10.2083 21.6006 10.5794 21.7467 10.8789 22.0389C11.1784 22.3311 11.3281 22.6931 11.3281 23.125ZM11.3281 29.7561C11.3281 30.188 11.1784 30.5501 10.8789 30.8422C10.5794 31.1344 10.2083 31.2805 9.76562 31.2805C9.32292 31.2805 8.95182 31.1344 8.65234 30.8422C8.35286 30.5501 8.20312 30.188 8.20312 29.7561C8.20312 29.3242 8.35286 28.9622 8.65234 28.67C8.95182 28.3778 9.32292 28.2317 9.76562 28.2317C10.2083 28.2317 10.5794 28.3778 10.8789 28.67C11.1784 28.9622 11.3281 29.3242 11.3281 29.7561ZM18.125 29.7561C18.125 30.188 17.9753 30.5501 17.6758 30.8422C17.3763 31.1344 17.0052 31.2805 16.5625 31.2805C16.1198 31.2805 15.7487 31.1344 15.4492 30.8422C15.1497 30.5501 15 30.188 15 29.7561C15 29.3242 15.1497 28.9622 15.4492 28.67C15.7487 28.3778 16.1198 28.2317 16.5625 28.2317C17.0052 28.2317 17.3763 28.3778 17.6758 28.67C17.9753 28.9622 18.125 29.3242 18.125 29.7561ZM18.125 16.4939C18.125 16.9258 17.9753 17.2879 17.6758 17.58C17.3763 17.8722 17.0052 18.0183 16.5625 18.0183C16.1198 18.0183 15.7487 17.8722 15.4492 17.58C15.1497 17.2879 15 16.9258 15 16.4939C15 16.062 15.1497 15.7 15.4492 15.4078C15.7487 15.1156 16.1198 14.9695 16.5625 14.9695C17.0052 14.9695 17.3763 15.1156 17.6758 15.4078C17.9753 15.7 18.125 16.062 18.125 16.4939Z" fill="#F37021"/>
</svg>
