<svg width="36" height="40" viewBox="0 0 36 40" fill="none" xmlns="http://www.w3.org/2000/svg">
<path d="M15.3438 36.4634H6.35938C5.5 36.4634 4.76432 36.1649 4.15234 35.5678C3.54036 34.9708 3.23438 34.2531 3.23438 33.4146V10.3964C3.23438 9.55794 3.54036 8.8402 4.15234 8.24315C4.76432 7.6461 5.5 7.34757 6.35938 7.34757H11.2812V8.10977C11.2812 9.38009 11.737 10.4599 12.6484 11.3491C13.5599 12.2383 14.6667 12.6829 15.9688 12.6829C17.2448 12.6829 18.3451 12.2383 19.2695 11.3491C20.194 10.4599 20.6562 9.38009 20.6562 8.10977V7.34757H25.5781C26.4375 7.34757 27.1732 7.6461 27.7852 8.24315C28.3971 8.8402 28.7031 9.55794 28.7031 10.3964V22.1342C28.7031 22.5661 28.8529 22.9281 29.1523 23.2203C29.4518 23.5125 29.8229 23.6585 30.2656 23.6585C30.6823 23.6585 31.0469 23.5125 31.3594 23.2203C31.6719 22.9281 31.8281 22.5661 31.8281 22.1342V10.3964C31.8281 8.71952 31.2161 7.28406 29.9922 6.08995C28.7682 4.89584 27.2969 4.29879 25.5781 4.29879H20.6562V2.01221C20.6562 1.5803 20.5 1.21825 20.1875 0.926079C19.875 0.633904 19.5104 0.487816 19.0938 0.487816H12.8438C12.401 0.487816 12.0299 0.633904 11.7305 0.926079C11.431 1.21825 11.2812 1.5803 11.2812 2.01221V4.29879H6.35938C4.64062 4.29879 3.16927 4.89584 1.94531 6.08995C0.721354 7.28406 0.109375 8.71952 0.109375 10.3964V33.4146C0.109375 35.0915 0.721354 36.5269 1.94531 37.721C3.16927 38.9152 4.64062 39.5122 6.35938 39.5122H15.3438C15.7604 39.5122 16.125 39.3661 16.4375 39.0739C16.75 38.7818 16.9062 38.4197 16.9062 37.9878C16.9062 37.5559 16.75 37.1939 16.4375 36.9017C16.125 36.6095 15.7604 36.4634 15.3438 36.4634ZM14.4062 3.5366H17.5312V8.10977C17.5312 8.54168 17.375 8.90372 17.0625 9.1959C16.75 9.48807 16.3854 9.63416 15.9688 9.63416C15.526 9.63416 15.1549 9.48807 14.8555 9.1959C14.556 8.90372 14.4062 8.54168 14.4062 8.10977V3.5366ZM35.6562 27.4314L27.9219 37.9878C27.9219 37.9878 27.9154 37.9942 27.9023 38.0069C27.8893 38.0196 27.8828 38.0386 27.8828 38.064C27.5182 38.4705 27.0885 38.8008 26.5938 39.0549C26.099 39.309 25.5781 39.4614 25.0312 39.5122C24.9792 39.5122 24.9271 39.5122 24.875 39.5122C24.8229 39.5122 24.7839 39.5122 24.7578 39.5122C24.237 39.5122 23.7357 39.4169 23.2539 39.2264C22.7721 39.0358 22.349 38.7754 21.9844 38.4451L16.9844 33.7576C16.6719 33.4528 16.5091 33.0907 16.4961 32.6715C16.4831 32.2523 16.6328 31.8903 16.9453 31.5854C17.2318 31.2805 17.5964 31.1281 18.0391 31.1281C18.4818 31.1281 18.8464 31.2678 19.1328 31.5473L24.1328 36.2348C24.263 36.3364 24.3867 36.3999 24.5039 36.4253C24.6211 36.4507 24.7188 36.4634 24.7969 36.4634C24.875 36.4634 24.9727 36.4444 25.0898 36.4063C25.207 36.3682 25.3177 36.2856 25.4219 36.1585L33.1172 25.6784C33.3776 25.3227 33.7227 25.1131 34.1523 25.0496C34.582 24.986 34.9661 25.0686 35.3047 25.2973C35.6432 25.5513 35.8516 25.888 35.9297 26.3072C36.0078 26.7264 35.9167 27.1011 35.6562 27.4314ZM10.8906 18.7043C10.8906 19.1362 10.7344 19.4982 10.4219 19.7904C10.1094 20.0826 9.74479 20.2287 9.32812 20.2287H8.54688C8.10417 20.2287 7.73307 20.0826 7.43359 19.7904C7.13411 19.4982 6.98438 19.1362 6.98438 18.7043C6.98438 18.2724 7.13411 17.9103 7.43359 17.6182C7.73307 17.326 8.10417 17.1799 8.54688 17.1799H9.32812C9.74479 17.1799 10.1094 17.326 10.4219 17.6182C10.7344 17.9103 10.8906 18.2724 10.8906 18.7043ZM25.1094 18.7043C25.1094 19.1362 24.9531 19.4982 24.6406 19.7904C24.3281 20.0826 23.9635 20.2287 23.5469 20.2287H14.7969C14.3542 20.2287 13.9831 20.0826 13.6836 19.7904C13.3841 19.4982 13.2344 19.1362 13.2344 18.7043C13.2344 18.2724 13.3841 17.9103 13.6836 17.6182C13.9831 17.326 14.3542 17.1799 14.7969 17.1799H23.5469C23.9635 17.1799 24.3281 17.326 24.6406 17.6182C24.9531 17.9103 25.1094 18.2724 25.1094 18.7043ZM10.8906 24.8018C10.8906 25.2338 10.7344 25.5958 10.4219 25.888C10.1094 26.1801 9.74479 26.3262 9.32812 26.3262H8.54688C8.10417 26.3262 7.73307 26.1801 7.43359 25.888C7.13411 25.5958 6.98438 25.2338 6.98438 24.8018C6.98438 24.3699 7.13411 24.0079 7.43359 23.7157C7.73307 23.4235 8.10417 23.2775 8.54688 23.2775H9.32812C9.74479 23.2775 10.1094 23.4235 10.4219 23.7157C10.7344 24.0079 10.8906 24.3699 10.8906 24.8018ZM25.1094 24.8018C25.1094 25.2338 24.9531 25.5958 24.6406 25.888C24.3281 26.1801 23.9635 26.3262 23.5469 26.3262H14.7969C14.3542 26.3262 13.9831 26.1801 13.6836 25.888C13.3841 25.5958 13.2344 25.2338 13.2344 24.8018C13.2344 24.3699 13.3841 24.0079 13.6836 23.7157C13.9831 23.4235 14.3542 23.2775 14.7969 23.2775H23.5469C23.9635 23.2775 24.3281 23.4235 24.6406 23.7157C24.9531 24.0079 25.1094 24.3699 25.1094 24.8018Z" fill="#F37021"/>
</svg>
