<svg width="40" height="40" viewBox="0 0 40 40" fill="none" xmlns="http://www.w3.org/2000/svg">
<path d="M39.8047 4.29879C39.6484 4.07013 39.4531 3.88594 39.2188 3.7462C38.9844 3.60646 38.724 3.5366 38.4375 3.5366H31.7969C31.3542 3.5366 30.9831 3.68268 30.6836 3.97486C30.3841 4.26703 30.2344 4.62908 30.2344 5.06099C30.2344 5.4929 30.3841 5.85494 30.6836 6.14711C30.9831 6.43929 31.3542 6.58538 31.7969 6.58538H35.7812L34.1016 9.48172H26.9531C26.6667 9.48172 26.3932 9.55794 26.1328 9.71038C25.8724 9.86282 25.6771 10.0661 25.5469 10.3201L21.6797 17.8659H10.9375C10.4948 17.8659 10.1237 17.7198 9.82422 17.4276C9.52474 17.1354 9.375 16.7734 9.375 16.3415V8.10977C9.375 7.67786 9.52474 7.31581 9.82422 7.02364C10.1237 6.73146 10.4948 6.58538 10.9375 6.58538H23.0469C23.4896 6.58538 23.8607 6.43929 24.1602 6.14711C24.4596 5.85494 24.6094 5.4929 24.6094 5.06099C24.6094 4.62908 24.4596 4.26703 24.1602 3.97486C23.8607 3.68268 23.4896 3.5366 23.0469 3.5366H10.9375C9.63542 3.5366 8.52865 3.98121 7.61719 4.87044C6.70573 5.75967 6.25 6.83944 6.25 8.10977V16.3415C6.25 17.6118 6.70573 18.6916 7.61719 19.5808C8.52865 20.47 9.63542 20.9146 10.9375 20.9146H16.25L13.6719 27.0122C13.099 27.0376 12.5781 27.2028 12.1094 27.5076C11.6406 27.8125 11.2891 28.2063 11.0547 28.689H3.125V2.01221C3.125 1.5803 2.97526 1.21825 2.67578 0.926079C2.3763 0.633904 2.00521 0.487816 1.5625 0.487816C1.11979 0.487816 0.748698 0.633904 0.449219 0.926079C0.14974 1.21825 0 1.5803 0 2.01221V37.9878C0 38.4197 0.14974 38.7818 0.449219 39.0739C0.748698 39.3661 1.11979 39.5122 1.5625 39.5122C2.00521 39.5122 2.3763 39.3661 2.67578 39.0739C2.97526 38.7818 3.125 38.4197 3.125 37.9878V31.7378H11.2109C11.4974 32.1443 11.8685 32.4746 12.3242 32.7287C12.7799 32.9827 13.2812 33.1098 13.8281 33.1098C14.6875 33.1098 15.4232 32.8112 16.0352 32.2142C16.6471 31.6171 16.9531 30.8994 16.9531 30.061C16.9531 29.7561 16.9076 29.4639 16.8164 29.1845C16.7253 28.905 16.6016 28.6382 16.4453 28.3842L19.6484 20.9146H22.6562C22.9427 20.9146 23.2161 20.8384 23.4766 20.686C23.737 20.5335 23.9323 20.3303 24.0625 20.0762L24.8047 18.6281H35.3125C35.7552 18.6281 36.1263 18.482 36.4258 18.1898C36.7253 17.8976 36.875 17.5356 36.875 17.1037V11.0061C36.875 10.9807 36.875 10.9553 36.875 10.9299C36.875 10.9045 36.875 10.8918 36.875 10.8918L39.8047 5.82318C39.9349 5.56912 40 5.3087 40 5.04193C40 4.77516 39.9349 4.52745 39.8047 4.29879ZM26.3672 15.5793L27.9297 12.5305H33.75V15.5793H26.3672ZM20.3125 9.63416C20.7552 9.63416 21.1263 9.78024 21.4258 10.0724C21.7253 10.3646 21.875 10.7266 21.875 11.1585C21.875 11.5905 21.7253 11.9525 21.4258 12.2447C21.1263 12.5368 20.7552 12.6829 20.3125 12.6829C19.8698 12.6829 19.4987 12.5368 19.1992 12.2447C18.8997 11.9525 18.75 11.5905 18.75 11.1585C18.75 10.7266 18.8997 10.3646 19.1992 10.0724C19.4987 9.78024 19.8698 9.63416 20.3125 9.63416ZM14.0625 9.63416C14.5052 9.63416 14.8763 9.78024 15.1758 10.0724C15.4753 10.3646 15.625 10.7266 15.625 11.1585C15.625 11.5905 15.4753 11.9525 15.1758 12.2447C14.8763 12.5368 14.5052 12.6829 14.0625 12.6829C13.6198 12.6829 13.2487 12.5368 12.9492 12.2447C12.6497 11.9525 12.5 11.5905 12.5 11.1585C12.5 10.7266 12.6497 10.3646 12.9492 10.0724C13.2487 9.78024 13.6198 9.63416 14.0625 9.63416Z" fill="#F37021"/>
</svg>
