<svg width="284" height="99" viewBox="0 0 284 99" fill="none" xmlns="http://www.w3.org/2000/svg">
<path d="M28.88 40.56V68.4H27.36L22.84 64.4L24.08 62.96V54.08H18.32C18 55.3067 17.3867 56.44 16.48 57.48C15.6 58.52 14.7733 59.04 14 59.04C13.2267 59.04 12.3333 58.6 11.32 57.72C10.3067 56.84 9.42667 55.8 8.68 54.6C7.96 53.4 7.6 52.4 7.6 51.6C7.6 51.0133 8.06667 50.6133 9 50.4C9.96 50.1867 11.68 50.08 14.16 50.08H24.12V40.56H3.64L0.6 38.08V36.56H32.52L35.32 39.04L35.28 40.56H28.88ZM44.7188 40.6C46.6654 43.8533 47.6388 47.2267 47.6388 50.72C47.6388 52.1067 47.3988 53.3867 46.9188 54.56C46.4388 55.7067 45.8254 56.6667 45.0788 57.44C44.3321 58.1867 43.5588 58.6933 42.7588 58.96L52.6388 67.68L51.3188 69.16L37.9188 57.32C36.9588 56.5467 36.1321 55.68 35.4388 54.72C34.7721 53.7333 34.4388 52.9067 34.4388 52.24C34.4388 51.5467 34.7054 51.0267 35.2388 50.68C35.7988 50.3067 36.5854 50.12 37.5987 50.12C38.8254 50.12 40.2788 50.36 41.9588 50.84C42.1188 49.9867 42.1988 49.0933 42.1988 48.16C42.1988 46.8 42.0388 45.44 41.7188 44.08C41.4254 42.72 41.0254 41.5467 40.5188 40.56H30.5187L27.4787 38.08V36.56H50.1188L53.1588 39.04L53.1988 40.6H44.7188ZM20.8753 22.68C22.7953 22.68 24.4753 23 25.9153 23.64C27.3286 24.2533 29.0486 25.4267 31.0753 27.16L42.5153 36.96L41.2353 38.48L30.5953 29.36C29.502 28.4267 28.382 27.7467 27.2353 27.32C26.0886 26.8667 24.7953 26.64 23.3553 26.64C22.1286 26.64 20.702 26.8133 19.0753 27.16L16.2753 24.68V23.16C17.822 22.84 19.3553 22.68 20.8753 22.68ZM43.5953 29.84H42.0753L38.7953 28.24V22.8H40.3153L43.5953 24.4V29.84ZM71.5303 70.12L67.5703 77.92H66.0503L62.7703 76.32L66.8903 68.12C64.4636 67.6933 62.2503 66.84 60.2503 65.56C58.2503 64.28 56.6636 62.72 55.4903 60.88C54.317 59.04 53.7303 57.0933 53.7303 55.04C53.7303 53.6267 54.1303 52.28 54.9303 51C55.7303 49.72 56.7836 48.7067 58.0903 47.96C59.397 47.1867 60.7836 46.8 62.2503 46.8H65.0903V40.56H49.9703L47.1703 38.08V36.56H77.4903L80.2903 39.04V40.56H69.8903V50.8H64.7703C62.9303 50.8 61.4103 51.3867 60.2103 52.56C59.037 53.7333 58.4503 55.2667 58.4503 57.16C58.4503 59.3733 58.9036 61.08 59.8103 62.28C60.717 63.4533 61.9436 64.04 63.4903 64.04C64.1036 64.04 64.7303 63.96 65.3703 63.8C65.077 62.52 64.9303 61.52 64.9303 60.8C64.9303 58.9867 65.7036 58.08 67.2503 58.08C68.317 58.08 69.437 58.4533 70.6103 59.2C71.8103 59.92 72.8103 60.84 73.6103 61.96C74.4103 63.08 74.8103 64.16 74.8103 65.2C74.8103 65.8667 74.5836 66.4667 74.1303 67C73.677 67.5067 73.037 67.88 72.2103 68.12L72.4503 68.24L82.4903 77.08L81.1703 78.6L71.5303 70.12Z" fill="black"/>
<path d="M146.52 40.56V68.4H145L140.48 64.4L141.72 62.96V54.08H133.72C133.373 55.28 132.747 56.4133 131.84 57.48C130.933 58.52 130.107 59.04 129.36 59.04C128.533 59.04 127.573 58.6133 126.48 57.76C125.413 56.9067 124.493 55.8933 123.72 54.72C122.947 53.52 122.56 52.48 122.56 51.6C122.56 51.0133 123.04 50.6133 124 50.4C124.987 50.1867 126.773 50.08 129.36 50.08V47C128.053 46.92 126.747 46.56 125.44 45.92C124.133 45.28 123.053 44.44 122.2 43.4C121.347 42.36 120.92 41.2533 120.92 40.08C120.92 38.8533 121.347 37.8267 122.2 37C123.08 36.1733 124.253 35.76 125.72 35.76C127.187 35.76 128.56 36.2 129.84 37.08C131.147 37.96 132.187 39.1467 132.96 40.64C133.76 42.1333 134.16 43.7467 134.16 45.48V50.08H141.72V40.56H139L136.2 38.08V36.56H150.12L152.92 39.04V40.56H146.52ZM126.12 42C126.12 42.5867 126.227 43.04 126.44 43.36C126.653 43.6533 126.96 43.8 127.36 43.8C128.08 43.8 128.747 43.5333 129.36 43C129.307 40.3067 128.893 38.96 128.12 38.96C127.507 38.96 127.013 39.2533 126.64 39.84C126.293 40.4 126.12 41.12 126.12 42ZM159.633 40.56V68.4H158.113L153.593 64.4L154.833 62.96V40.56H152.113L149.312 38.08V36.56H154.873L146.472 29.36C145.379 28.4267 144.259 27.7467 143.112 27.32C141.966 26.8667 140.672 26.64 139.232 26.64C138.006 26.64 136.579 26.8133 134.952 27.16L132.152 24.68V23.16C133.699 22.84 135.232 22.68 136.752 22.68C138.672 22.68 140.352 23 141.792 23.64C143.206 24.2533 144.926 25.4267 146.952 27.16L157.913 36.56H163.233L166.033 39.04V40.56H159.633ZM159.637 29.84H158.117L154.837 28.24V22.8H156.357L159.637 24.4V29.84ZM178.078 48C176.744 48 175.624 48.36 174.718 49.08C173.811 49.7733 173.358 50.6267 173.358 51.64C173.358 52.1467 173.518 52.6133 173.838 53.04C174.184 53.44 174.784 53.88 175.638 54.36C176.784 53.64 177.744 53.12 178.518 52.8C179.291 52.48 179.971 52.32 180.558 52.32C181.971 52.32 183.451 52.8 184.998 53.76C186.571 54.6933 187.878 55.8667 188.918 57.28C189.958 58.6667 190.478 60.0133 190.478 61.32C190.478 62.3067 189.824 63.36 188.518 64.48C187.211 65.6 185.584 66.5333 183.638 67.28C181.691 68.0267 179.838 68.4 178.078 68.4C176.931 68.4 175.651 68.2933 174.238 68.08L162.678 58.2L163.958 56.72L169.598 61.48C170.691 62.4133 171.851 63.0933 173.078 63.52C174.331 63.92 175.744 64.12 177.318 64.12C178.651 64.12 179.971 63.88 181.278 63.4C182.584 62.8933 183.651 62.2533 184.477 61.48C185.331 60.68 185.758 59.8933 185.758 59.12C185.758 58.56 185.491 58.0267 184.958 57.52C184.451 56.9867 183.904 56.72 183.318 56.72C182.064 56.72 180.464 57.2933 178.518 58.44C177.104 58.28 175.611 57.7067 174.038 56.72C172.491 55.7067 171.198 54.52 170.158 53.16C169.118 51.8 168.598 50.56 168.598 49.44C168.598 48.48 168.904 47.5867 169.518 46.76C170.158 45.9067 171.011 45.24 172.078 44.76C173.144 44.2533 174.291 44 175.518 44H181.958V40.56H160.837L158.037 38.08V36.56H191.958L194.758 39.04V40.56H186.758V48H178.078ZM163.877 22.68C165.797 22.68 167.477 23 168.917 23.64C170.331 24.2533 172.051 25.4267 174.077 27.16L185.517 36.96L184.237 38.48L173.597 29.36C172.504 28.4267 171.384 27.7467 170.237 27.32C169.091 26.8667 167.797 26.64 166.357 26.64C165.131 26.64 163.704 26.8133 162.077 27.16L159.277 24.68V23.16C160.824 22.84 162.357 22.68 163.877 22.68ZM210.711 47.04C211.804 46.3467 213.058 46 214.471 46C216.071 46 217.711 46.4267 219.391 47.28C221.098 48.1333 222.511 49.28 223.631 50.72C224.751 52.16 225.311 53.6933 225.311 55.32C225.311 56.4667 224.964 57.5333 224.271 58.52C223.578 59.48 222.618 60.24 221.391 60.8C220.191 61.36 218.831 61.64 217.311 61.64L214.511 59.16V57.64C214.991 57.72 215.458 57.76 215.911 57.76C217.244 57.76 218.271 57.3467 218.991 56.52C219.738 55.6933 220.111 54.6533 220.111 53.4C220.111 52.04 219.844 51 219.311 50.28C218.778 49.56 217.964 49.2 216.871 49.2C216.044 49.2 215.311 49.3867 214.671 49.76C214.058 50.1333 213.524 50.5867 213.071 51.12C212.644 51.6267 212.138 52.32 211.551 53.2L210.871 54.2L210.751 54.44V68.4H209.231L204.711 64.4L205.951 62.96V60.68C204.964 61.3467 203.751 61.68 202.311 61.68C200.711 61.68 199.058 61.2533 197.351 60.4C195.671 59.5467 194.271 58.4 193.151 56.96C192.031 55.52 191.471 53.9867 191.471 52.36C191.471 51.2133 191.818 50.16 192.511 49.2C193.204 48.2133 194.151 47.44 195.351 46.88C196.578 46.32 197.951 46.04 199.471 46.04L202.271 48.52V50.04C201.791 49.96 201.324 49.92 200.871 49.92C199.538 49.92 198.498 50.3333 197.751 51.16C197.031 51.9867 196.671 53.0267 196.671 54.28C196.671 55.64 196.938 56.68 197.471 57.4C198.004 58.12 198.818 58.48 199.911 58.48C200.738 58.48 201.458 58.2933 202.071 57.92C202.711 57.5467 203.244 57.1067 203.671 56.6C204.124 56.0667 204.644 55.36 205.231 54.48L205.911 53.48L206.031 53.36V40.56H188.111L185.311 38.08V36.56H228.791L231.591 39.04V40.56L210.711 40.52V47.04ZM239.813 40.6C241.759 43.8533 242.733 47.2267 242.733 50.72C242.733 52.1067 242.493 53.3867 242.013 54.56C241.533 55.7067 240.919 56.6667 240.173 57.44C239.426 58.1867 238.653 58.6933 237.853 58.96L247.733 67.68L246.413 69.16L233.013 57.32C232.053 56.5467 231.226 55.68 230.533 54.72C229.866 53.7333 229.533 52.9067 229.533 52.24C229.533 51.5467 229.799 51.0267 230.333 50.68C230.893 50.3067 231.679 50.12 232.692 50.12C233.919 50.12 235.373 50.36 237.053 50.84C237.213 49.9867 237.293 49.0933 237.293 48.16C237.293 46.8 237.133 45.44 236.812 44.08C236.519 42.72 236.119 41.5467 235.613 40.56H225.612L222.572 38.08V36.56H245.213L248.253 39.04L248.293 40.6H239.813Z" fill="black"/>
<path d="M37.4 91.65H38.85V92.1H36.2V80.46H38.85V80.91H37.4V91.65ZM52.0657 83.12V90.08H51.6857L50.5557 89.08L50.8657 88.72V83.12H48.7857V90.08H48.4057L47.2757 89.08L47.5857 88.72V86.65C47.3657 86.8233 47.139 86.95 46.9057 87.03C46.679 87.1033 46.4224 87.14 46.1357 87.14C45.7824 87.14 45.429 87.0667 45.0757 86.92C45.089 87 45.0957 87.06 45.0957 87.1C45.1024 87.34 45.0124 87.58 44.8257 87.82C44.639 88.0533 44.399 88.2467 44.1057 88.4C43.8124 88.5533 43.5124 88.63 43.2057 88.63C43.0924 88.63 42.9557 88.6233 42.7957 88.61C42.6357 88.59 42.5157 88.57 42.4357 88.55L40.2257 86.6L40.5457 86.22L41.0957 86.7C41.749 87.2733 42.329 87.56 42.8357 87.56C43.149 87.5467 43.4057 87.46 43.6057 87.3C43.8124 87.14 43.9157 86.94 43.9157 86.7C43.9157 86.5 43.8024 86.2833 43.5757 86.05C43.349 85.8167 42.979 85.54 42.4657 85.22V84.84C42.8257 84.68 43.099 84.49 43.2857 84.27C43.4724 84.0433 43.5657 83.7967 43.5657 83.53C43.5657 83.3367 43.519 83.19 43.4257 83.09C43.339 82.9833 43.2124 82.93 43.0457 82.93C42.8257 82.93 42.559 83.0133 42.2457 83.18C41.939 83.34 41.6257 83.5633 41.3057 83.85L40.6057 83.23V82.85C40.9057 82.59 41.2124 82.39 41.5257 82.25C41.8457 82.1033 42.1424 82.03 42.4157 82.03C42.7557 82.03 43.109 82.14 43.4757 82.36C43.8424 82.5733 44.149 82.8433 44.3957 83.17C44.6424 83.4967 44.7657 83.8067 44.7657 84.1C44.7657 84.38 44.6757 84.65 44.4957 84.91C44.3224 85.17 44.0857 85.3833 43.7857 85.55C43.939 85.65 44.099 85.7667 44.2657 85.9C44.5057 86.0667 44.7224 86.1867 44.9157 86.26C45.1157 86.3267 45.3057 86.36 45.4857 86.36C45.839 86.36 46.1757 86.2567 46.4957 86.05C46.8157 85.8367 47.179 85.4767 47.5857 84.97V83.14H45.9457L45.2457 82.52V82.14H52.9657L53.6657 82.76V83.12H52.0657ZM59.9037 83.14V90.1H59.5237L58.3937 89.1L58.7037 88.74V86.52H56.2037C56.117 86.82 55.9603 87.1033 55.7337 87.37C55.507 87.63 55.3003 87.76 55.1137 87.76C54.907 87.76 54.667 87.6533 54.3937 87.44C54.127 87.2267 53.897 86.9733 53.7037 86.68C53.5103 86.38 53.4137 86.12 53.4137 85.9C53.4137 85.7533 53.5337 85.6533 53.7737 85.6C54.0203 85.5467 54.467 85.52 55.1137 85.52V83.14H52.4037L51.6637 82.52V82.14H60.8037L61.5037 82.76V83.14H59.9037ZM58.7037 83.14H56.3137V85.52H58.6937L58.7037 85.53V83.14ZM64.3955 85.7C63.9355 85.7 63.5555 85.8467 63.2555 86.14C62.9621 86.4333 62.8155 86.8167 62.8155 87.29C62.8155 87.8433 62.9288 88.27 63.1555 88.57C63.3821 88.8633 63.6888 89.01 64.0755 89.01C64.2288 89.01 64.3855 88.99 64.5455 88.95C64.4721 88.63 64.4355 88.38 64.4355 88.2C64.4355 87.7467 64.6288 87.52 65.0155 87.52C65.2821 87.52 65.5621 87.6133 65.8555 87.8C66.1555 87.98 66.4055 88.21 66.6055 88.49C66.8055 88.77 66.9055 89.04 66.9055 89.3C66.9055 89.4933 66.8321 89.66 66.6855 89.8C66.5388 89.94 66.3355 90.0333 66.0755 90.08L67.7455 91.55L67.4155 91.92L65.3355 90.08C64.6755 90.02 64.0621 89.8333 63.4955 89.52C62.9288 89.2 62.4788 88.7967 62.1455 88.31C61.8121 87.8233 61.6455 87.3067 61.6455 86.76C61.6455 86.4067 61.7455 86.07 61.9455 85.75C62.1455 85.43 62.4088 85.1767 62.7355 84.99C63.0621 84.7967 63.4088 84.7 63.7755 84.7H64.4855V83.14H60.7055L60.0055 82.52V82.14H67.5855L68.2855 82.76V83.14H65.6855V85.7H64.3955ZM69.9628 83.14V90.1H69.5828L68.4528 89.1L68.7628 88.74V83.14H68.0828L67.3828 82.52V82.14H70.8628L71.5628 82.76V83.14H69.9628ZM73.9141 83.15C74.4007 83.9633 74.6441 84.8067 74.6441 85.68C74.6441 86.0267 74.5841 86.3467 74.4641 86.64C74.3441 86.9267 74.1907 87.1667 74.0041 87.36C73.8174 87.5467 73.6241 87.6733 73.4241 87.74L75.8941 89.92L75.5641 90.29L72.2141 87.33C71.9741 87.1367 71.7674 86.92 71.5941 86.68C71.4274 86.4333 71.3441 86.2267 71.3441 86.06C71.3441 85.8867 71.4107 85.7567 71.5441 85.67C71.6841 85.5767 71.8807 85.53 72.1341 85.53C72.4407 85.53 72.8041 85.59 73.2241 85.71C73.2641 85.4967 73.2841 85.2733 73.2841 85.04C73.2841 84.7 73.2441 84.36 73.1641 84.02C73.0907 83.68 72.9907 83.3867 72.8641 83.14H70.3641L69.6041 82.52V82.14H75.2641L76.0241 82.76L76.0341 83.15H73.9141ZM85.796 83.14V90.1H85.416L84.286 89.1L84.596 88.74V86.52H82.596C82.5093 86.82 82.3527 87.1033 82.126 87.37C81.8993 87.63 81.6927 87.76 81.506 87.76C81.2993 87.76 81.0593 87.6533 80.786 87.44C80.5193 87.2267 80.2893 86.9733 80.096 86.68C79.9027 86.38 79.806 86.12 79.806 85.9C79.806 85.7533 79.926 85.6533 80.166 85.6C80.4127 85.5467 80.8593 85.52 81.506 85.52V84.75C81.1793 84.73 80.8527 84.64 80.526 84.48C80.1993 84.32 79.9293 84.11 79.716 83.85C79.5027 83.59 79.396 83.3133 79.396 83.02C79.396 82.7133 79.5027 82.4567 79.716 82.25C79.936 82.0433 80.2293 81.94 80.596 81.94C80.9627 81.94 81.306 82.05 81.626 82.27C81.9527 82.49 82.2127 82.7867 82.406 83.16C82.606 83.5333 82.706 83.9367 82.706 84.37V85.52H84.596V83.14H83.916L83.216 82.52V82.14H86.696L87.396 82.76V83.14H85.796ZM80.696 83.5C80.696 83.6467 80.7227 83.76 80.776 83.84C80.8293 83.9133 80.906 83.95 81.006 83.95C81.186 83.95 81.3527 83.8833 81.506 83.75C81.4927 83.0767 81.3893 82.74 81.196 82.74C81.0427 82.74 80.9193 82.8133 80.826 82.96C80.7393 83.1 80.696 83.28 80.696 83.5ZM96.361 85C96.0277 85 95.7477 85.09 95.521 85.27C95.2943 85.4433 95.181 85.6567 95.181 85.91C95.181 86.0367 95.221 86.1533 95.301 86.26C95.3877 86.36 95.5377 86.47 95.751 86.59C96.0377 86.41 96.2777 86.28 96.471 86.2C96.6643 86.12 96.8343 86.08 96.981 86.08C97.3343 86.08 97.7043 86.2 98.091 86.44C98.4843 86.6733 98.811 86.9667 99.071 87.32C99.331 87.6667 99.461 88.0033 99.461 88.33C99.461 88.5767 99.2977 88.84 98.971 89.12C98.6443 89.4 98.2377 89.6333 97.751 89.82C97.2643 90.0067 96.801 90.1 96.361 90.1C96.0743 90.1 95.7543 90.0733 95.401 90.02L93.161 88.1L93.481 87.73L93.981 88.15C94.3677 88.4767 94.721 88.7067 95.041 88.84C95.361 88.9667 95.7377 89.03 96.171 89.03C96.5043 89.03 96.8343 88.97 97.161 88.85C97.4877 88.7233 97.7543 88.5633 97.961 88.37C98.1743 88.17 98.281 87.9733 98.281 87.78C98.281 87.64 98.2143 87.5067 98.081 87.38C97.9543 87.2467 97.8177 87.18 97.671 87.18C97.3577 87.18 96.9577 87.3233 96.471 87.61C96.1177 87.57 95.7443 87.4267 95.351 87.18C94.9643 86.9267 94.641 86.63 94.381 86.29C94.121 85.95 93.991 85.64 93.991 85.36C93.991 85.12 94.0677 84.8967 94.221 84.69C94.381 84.4767 94.5943 84.31 94.861 84.19C95.1277 84.0633 95.4143 84 95.721 84H97.331V83.14H92.371V85.56C92.371 85.88 92.281 86.1933 92.101 86.5C91.921 86.8 91.681 87.0467 91.381 87.24C91.081 87.4267 90.761 87.52 90.421 87.52C90.0477 87.52 89.6643 87.4233 89.271 87.23C88.8843 87.03 88.561 86.7667 88.301 86.44C88.0477 86.1133 87.921 85.7633 87.921 85.39V83.14H87.141L86.441 82.52V82.14H99.831L100.531 82.76V83.14H98.531V85H96.361ZM89.831 86.72C90.0443 86.72 90.2543 86.6733 90.461 86.58C90.6677 86.48 90.8377 86.33 90.971 86.13C91.111 85.9233 91.181 85.67 91.181 85.37V83.14H89.131V85.73C89.131 86.39 89.3643 86.72 89.831 86.72ZM102.15 83.14V90.1H101.77L100.64 89.1L100.95 88.74V83.14H100.27L99.5703 82.52V82.14H103.05L103.75 82.76V83.14H102.15ZM106.102 83.15C106.588 83.9633 106.832 84.8067 106.832 85.68C106.832 86.0267 106.772 86.3467 106.652 86.64C106.532 86.9267 106.378 87.1667 106.192 87.36C106.005 87.5467 105.812 87.6733 105.612 87.74L108.082 89.92L107.752 90.29L104.402 87.33C104.162 87.1367 103.955 86.92 103.782 86.68C103.615 86.4333 103.532 86.2267 103.532 86.06C103.532 85.8867 103.598 85.7567 103.732 85.67C103.872 85.5767 104.068 85.53 104.322 85.53C104.628 85.53 104.992 85.59 105.412 85.71C105.452 85.4967 105.472 85.2733 105.472 85.04C105.472 84.7 105.432 84.36 105.352 84.02C105.278 83.68 105.178 83.3867 105.052 83.14H102.552L101.792 82.52V82.14H107.452L108.212 82.76L108.222 83.15H106.102ZM109.894 83.14V90.1H109.514L108.384 89.1L108.694 88.74V83.14H108.014L107.314 82.52V82.14H110.794L111.494 82.76V83.14H109.894ZM115.876 86.32H112.396L111.696 85.7V85.32H115.176L115.876 85.94V86.32ZM123.767 83.14H122.167V90.1H121.787L120.657 89.1L120.967 88.74V87.21C120.687 87.4167 120.35 87.52 119.957 87.52C119.557 87.52 119.144 87.4133 118.717 87.2C118.297 86.9867 117.947 86.7 117.667 86.34C117.394 85.98 117.257 85.5967 117.257 85.19V83.14H116.477L115.777 82.52V82.14H123.057L123.767 82.76V83.14ZM118.467 83.14V85.53C118.467 86.3233 118.767 86.72 119.367 86.72C119.587 86.72 119.784 86.6667 119.957 86.56C120.13 86.4467 120.284 86.3033 120.417 86.13C120.557 85.95 120.74 85.6867 120.967 85.34V83.14H118.467ZM125.441 83.14V90.1H125.061L123.931 89.1L124.241 88.74V83.14H123.561L122.861 82.52V82.14H123.041L121.731 81.02C121.458 80.7867 121.178 80.6167 120.891 80.51C120.598 80.3967 120.275 80.34 119.921 80.34C119.615 80.34 119.258 80.3833 118.851 80.47L118.151 79.85V79.47C118.545 79.39 118.928 79.35 119.301 79.35C119.788 79.35 120.211 79.43 120.571 79.59C120.925 79.7433 121.351 80.0367 121.851 80.47L123.801 82.14H125.161L121.731 79.2C121.458 78.9667 121.178 78.7967 120.891 78.69C120.605 78.5767 120.281 78.52 119.921 78.52C119.615 78.52 119.258 78.5633 118.851 78.65L118.151 78.03V77.65C118.545 77.57 118.928 77.53 119.301 77.53C119.788 77.53 120.211 77.61 120.571 77.77C120.925 77.9233 121.351 78.2167 121.851 78.65L125.921 82.14H126.341L127.041 82.76V83.14H125.441ZM131.963 79.3C132.683 79.3 133.459 79.5367 134.293 80.01C135.133 80.4833 136.056 81.2233 137.063 82.23V82.61C136.196 81.8567 135.359 81.2833 134.553 80.89C133.746 80.4967 132.999 80.3 132.313 80.3C131.546 80.3 130.859 80.49 130.253 80.87C129.653 81.25 129.146 81.8067 128.733 82.54V90.1H128.353L127.223 89.1L127.533 88.74V83.14H126.853L126.153 82.52V82.14H127.533C128.046 81.22 128.676 80.52 129.423 80.04C130.169 79.5533 131.013 79.31 131.953 79.31L131.963 79.3ZM138.161 83.14V90.1H137.781L136.651 89.1L136.961 88.74V83.14H135.301V85.56C135.301 85.88 135.211 86.1933 135.031 86.5C134.851 86.8 134.611 87.0467 134.311 87.24C134.011 87.4267 133.691 87.52 133.351 87.52C132.977 87.52 132.594 87.4233 132.201 87.23C131.814 87.03 131.491 86.7667 131.231 86.44C130.977 86.1133 130.851 85.7633 130.851 85.39V83.14H130.071L129.371 82.52V82.14H139.061L139.761 82.76V83.14H138.161ZM132.051 83.14V85.73C132.051 86.39 132.284 86.72 132.751 86.72C132.964 86.72 133.174 86.6733 133.381 86.58C133.587 86.48 133.757 86.33 133.891 86.13C134.031 85.9233 134.101 85.67 134.101 85.37V83.14H132.051ZM150.556 83.14V90.1H150.176L149.046 89.1L149.356 88.74V86.27C148.836 86.5767 148.356 86.73 147.916 86.73C147.703 86.73 147.523 86.7033 147.376 86.65L146.356 85.85C146.01 86.1367 145.733 86.3733 145.526 86.56C145.326 86.7467 145.156 86.9467 145.016 87.16C144.876 87.3733 144.806 87.59 144.806 87.81C144.806 88.1967 144.903 88.4867 145.096 88.68C145.29 88.8733 145.543 88.97 145.856 88.97C145.943 88.97 146.006 88.9667 146.046 88.96C145.973 88.6267 145.936 88.37 145.936 88.19C145.936 87.7367 146.13 87.51 146.516 87.51C146.783 87.51 147.063 87.6033 147.356 87.79C147.656 87.97 147.906 88.2 148.106 88.48C148.306 88.76 148.406 89.03 148.406 89.29C148.406 89.4833 148.33 89.65 148.176 89.79C148.023 89.93 147.816 90.02 147.556 90.06L149.226 91.53L148.896 91.9L146.806 90.06C146.233 90 145.703 89.8367 145.216 89.57C144.736 89.2967 144.353 88.9567 144.066 88.55C143.78 88.1367 143.636 87.7 143.636 87.24C143.636 87 143.71 86.7667 143.856 86.54C144.003 86.3067 144.18 86.0967 144.386 85.91C144.6 85.7167 144.883 85.4767 145.236 85.19L145.436 85.03C145.05 84.71 144.77 84.4333 144.596 84.2C144.423 83.96 144.336 83.6967 144.336 83.41C144.336 83.1633 144.41 82.9267 144.556 82.7C144.71 82.4667 144.903 82.28 145.136 82.14C145.37 82 145.603 81.93 145.836 81.93C146.156 81.93 146.476 82.0367 146.796 82.25C147.116 82.4633 147.376 82.73 147.576 83.05C147.783 83.37 147.886 83.6733 147.886 83.96C147.886 84.2 147.8 84.44 147.626 84.68C147.453 84.9133 147.21 85.1633 146.896 85.43C147.01 85.49 147.113 85.53 147.206 85.55C147.306 85.57 147.42 85.58 147.546 85.58C147.806 85.58 148.083 85.5133 148.376 85.38C148.67 85.2467 149.006 85.0367 149.386 84.75V83.14H148.706L148.006 82.52V82.14H151.486L152.186 82.76L152.156 83.14H150.556ZM145.606 83.69C145.606 83.9033 145.626 84.0833 145.666 84.23C145.713 84.3767 145.786 84.5133 145.886 84.64C146.146 84.4067 146.35 84.18 146.496 83.96C146.643 83.74 146.716 83.5167 146.716 83.29C146.716 83.1633 146.68 83.04 146.606 82.92C146.533 82.8 146.433 82.74 146.306 82.74C146.1 82.74 145.93 82.8467 145.796 83.06C145.67 83.2667 145.606 83.48 145.606 83.7V83.69ZM144.862 78.67C145.342 78.67 145.762 78.75 146.122 78.91C146.475 79.0633 146.905 79.3567 147.412 79.79L150.272 82.24L149.952 82.62L147.292 80.34C147.019 80.1067 146.739 79.9367 146.452 79.83C146.165 79.7167 145.842 79.66 145.482 79.66C145.175 79.66 144.819 79.7033 144.412 79.79L143.712 79.17V78.79C144.099 78.71 144.482 78.67 144.862 78.67ZM157.649 83.15V90.11H157.269L156.139 89.11L156.449 88.75V86.74C155.589 87.3867 154.759 87.9267 153.959 88.36L153.259 87.74V87.36C153.959 87.0133 154.716 86.54 155.529 85.94L155.479 85.9C155.306 85.7533 155.152 85.6533 155.019 85.6C154.892 85.54 154.766 85.51 154.639 85.51C154.326 85.51 154.019 85.5933 153.719 85.76C153.426 85.92 152.979 86.2233 152.379 86.67L151.679 86.05V85.67C152.219 85.29 152.662 85.02 153.009 84.86C153.362 84.6933 153.672 84.61 153.939 84.61C154.226 84.61 154.476 84.6567 154.689 84.75C154.909 84.8367 155.196 85.0267 155.549 85.32L155.929 85.64C156.109 85.5 156.279 85.36 156.439 85.22V83.14H151.289L150.589 82.52V82.14H158.539L159.239 82.76L159.249 83.15H157.649ZM160.29 80.91H158.84V80.46H161.49V92.1H158.84V91.65H160.29V80.91Z" fill="black"/>
<path d="M99.9971 33C111.548 32.9923 120.995 42.4372 121 53.9969C121.005 65.5529 111.563 74.9982 100.004 75.0003C88.4487 75.0025 79.003 65.5608 79 54.0049C78.997 42.4513 88.4371 33.0077 99.9971 33Z" fill="#F16F21"/>
<path d="M99.1316 39.354C98.561 39.5909 98.0091 39.82 97.4032 40.0716C98.2877 38.2736 99.1701 36.5399 100.093 34.7837C100.991 36.5478 101.873 38.2799 102.755 40.0113C102.695 40.069 102.652 40.0144 102.613 39.9987C102.149 39.815 101.686 39.6277 101.224 39.4399C101.11 39.3939 101.05 39.3825 101.05 39.5504C101.056 41.5709 101.055 43.5914 101.051 45.6119C101.051 45.7445 101.087 45.77 101.219 45.787C101.663 45.8446 102.007 45.7026 102.334 45.3941C102.705 45.0441 103.181 44.8617 103.673 44.7149C104.374 44.506 105.08 44.4937 105.781 44.6398C106.197 44.7265 106.602 44.8792 107.005 45.0266C108.359 45.5214 109.449 46.3805 110.388 47.4512C110.557 47.644 110.725 47.838 110.896 48.0293C111.251 48.4266 111.585 48.8353 111.843 49.3079C112.128 49.8293 112.557 50.2454 112.956 50.6778C113.521 51.2898 114.116 51.8683 114.789 52.3711C115.268 52.7285 115.742 53.0879 116.28 53.3429C116.726 53.5544 117.176 53.7875 117.704 53.7271C117.813 53.7146 117.865 53.6873 117.916 53.5855C118.148 53.1203 118.737 52.9101 119.189 53.2343C119.215 53.2526 119.244 53.2661 119.273 53.279C119.626 53.4366 119.732 53.6378 119.689 54.0169C119.653 54.3306 119.575 54.6168 119.336 54.8442C119.262 54.9152 119.195 54.9681 119.088 54.9552C119.037 54.9492 118.985 54.9542 118.934 54.9542C106.317 54.9542 93.7003 54.9542 81.0834 54.9542C80.681 54.9542 80.4482 54.7906 80.3395 54.3974C80.2538 54.087 80.1894 53.762 80.43 53.4865C80.7107 53.1651 81.0863 53.0906 81.4875 53.1555C81.6539 53.1825 81.8581 53.1477 81.9683 53.3382C81.9843 53.3658 82.0217 53.3908 82.0211 53.4165C82.0156 53.6955 82.2023 53.6726 82.397 53.6813C82.8296 53.7005 83.2232 53.5403 83.5966 53.3784C84.4489 53.0086 85.1932 52.457 85.87 51.8245C86.5497 51.1893 87.1868 50.5108 87.7781 49.7918C88.0996 49.4008 88.3325 48.945 88.66 48.5567C89.4422 47.6291 90.2417 46.7205 91.2249 45.9929C92.1351 45.3193 93.1433 44.8616 94.251 44.6466C94.9578 44.5094 95.6709 44.4777 96.3782 44.7123C96.7824 44.8464 97.2211 44.8808 97.5622 45.1763C97.7512 45.3399 97.949 45.4933 98.1369 45.6581C98.1985 45.7121 98.2556 45.7434 98.3398 45.7413C98.5578 45.736 98.7761 45.734 98.9939 45.7419C99.1051 45.7459 99.1366 45.7074 99.134 45.5996C99.1275 45.3239 99.1319 45.0481 99.1319 44.7722C99.1319 43.0404 99.1319 41.3085 99.1319 39.5766C99.1315 39.5079 99.1316 39.4391 99.1316 39.354Z" fill="#131518"/>
<path d="M84.3025 58.592C84.3005 58.5095 84.2459 58.4511 84.2101 58.3856C83.8692 57.7619 83.531 57.1366 83.1806 56.5183C83.1011 56.3779 83.1498 56.3422 83.2746 56.3275C83.3375 56.3201 83.4045 56.3119 83.4649 56.3254C84.4383 56.5436 85.401 56.4431 86.3568 56.2218C87.2816 56.0076 88.2028 55.7947 89.1652 55.86C90.0293 55.9186 90.7806 56.2328 91.4229 56.8046C91.85 57.1848 92.2027 57.6373 92.5886 58.0573C92.7406 58.2226 92.8962 58.3834 93.0681 58.5288C93.1698 58.6149 93.2715 58.6831 93.4125 58.6633C93.4838 58.6533 93.5288 58.6827 93.5627 58.7518C93.7462 59.125 93.9343 59.496 94.1226 59.867C94.1793 59.9789 94.1615 60.0322 94.0236 60.0257C93.8828 60.0191 93.7412 60.03 93.6005 60.0225C93.4986 60.017 93.4678 60.0533 93.4699 60.1537C93.4762 60.455 93.4726 60.7564 93.4748 61.0579C93.487 62.6804 93.5 64.3028 93.5121 65.9253C93.5139 66.1691 93.4339 66.2164 93.1978 66.1004C92.7208 65.8662 92.2452 65.6291 91.7724 65.3865C91.6547 65.3261 91.463 65.3095 91.4394 65.1859C91.4071 65.0161 91.6321 65.0596 91.7227 64.9747C91.8097 64.8931 91.8857 64.811 91.8998 64.6887C91.9101 64.5997 91.9211 64.5102 91.9212 64.4209C91.9225 63.0228 91.9197 61.6247 91.9255 60.2266C91.926 60.0733 91.8963 60.0182 91.7288 60.0201C90.9273 60.0294 90.1255 60.0271 89.3239 60.0216C89.1845 60.0207 89.1355 60.0444 89.1212 60.2045C89.0952 60.496 89.1692 60.6568 89.469 60.7647C89.8488 60.9013 90.1347 61.1964 90.3674 61.5248C90.7909 62.1224 91.1685 62.749 91.3617 63.4621C91.4943 63.9513 91.317 64.3596 90.8932 64.6431C90.5112 64.8987 90.076 65.0008 89.6289 65.0637C89.5348 65.077 89.4404 65.0882 89.3156 65.1042C89.6965 65.6623 90.1967 66.0347 90.798 66.3394C90.5644 66.4576 90.3527 66.5697 90.1363 66.672C90.0474 66.7141 89.993 66.6329 89.9435 66.5798C89.6199 66.2328 89.2958 65.8862 88.9802 65.5321C88.755 65.2793 88.5004 65.0854 88.1794 64.9569C87.5935 64.7223 87.0472 64.413 86.6039 63.9501C86.4382 63.7772 86.3047 63.5835 86.2347 63.3504C86.1694 63.133 86.1843 62.9278 86.344 62.7572C86.5113 62.5783 86.7293 62.5607 86.9496 62.6212C87.3746 62.7378 87.6421 63.0464 87.8478 63.4119C87.9108 63.5238 87.9821 63.5802 88.1037 63.6132C88.6106 63.751 89.1007 63.7053 89.5949 63.5385C89.8109 63.4656 90.0112 63.3807 90.186 63.2375C90.5773 62.9169 90.5617 62.5524 90.1433 62.2631C89.858 62.0658 89.5327 61.9676 89.1958 61.9143C88.526 61.8082 87.8794 61.8726 87.2824 62.2223C87.1914 62.2756 87.1417 62.2503 87.0948 62.1724C86.8702 61.7993 86.6461 61.4258 86.4194 61.0538C86.3529 60.9446 86.4172 60.9036 86.5048 60.8713C86.812 60.758 87.1264 60.6687 87.453 60.6396C87.5756 60.6287 87.629 60.6035 87.6278 60.463C87.6238 60.0246 87.6307 60.0245 87.1889 60.0245C86.849 60.0245 86.5091 60.0245 86.1692 60.0245C85.8914 60.0245 85.8914 60.0245 85.8914 60.2929C85.8914 62.172 85.8914 64.0511 85.8914 65.9302C85.8914 66.1539 85.8214 66.2163 85.6244 66.1248C85.0556 65.8607 84.4935 65.5824 83.9294 65.3082C83.8835 65.2859 83.8326 65.2512 83.8357 65.1963C83.8389 65.1392 83.8972 65.1176 83.9455 65.1011C84.2553 64.9953 84.3465 64.7674 84.3449 64.4573C84.3377 63.0592 84.34 61.6611 84.3443 60.263C84.3447 60.1155 84.3227 60.0517 84.154 60.0933C83.9853 60.135 83.8121 60.1578 83.6763 60.2768C83.5832 60.3585 83.5437 60.3175 83.495 60.2263C83.2444 59.7577 82.99 59.2911 82.7326 58.826C82.6569 58.6892 82.6829 58.623 82.8438 58.6218C83.2605 58.6188 83.6772 58.6162 84.094 58.6112C84.1624 58.6101 84.2337 58.6277 84.3025 58.592Z" fill="#FEFEFE"/>
<path d="M110.11 62.591C110.156 62.7612 110.239 62.8995 110.268 63.0579C110.342 63.4577 110.085 63.8093 109.678 63.8396C109.182 63.8767 108.769 63.6609 108.383 63.3848C107.972 63.0905 107.652 62.7259 107.537 62.2124C107.426 61.7089 107.601 61.3954 108.095 61.2388C108.367 61.1525 108.647 61.132 108.93 61.1312C109.796 61.1288 110.662 61.1239 111.527 61.1291C111.681 61.13 111.746 61.0994 111.736 60.9309C111.722 60.6815 111.728 60.4308 111.734 60.1808C111.737 60.0724 111.717 60.0205 111.589 60.0212C110.685 60.0266 109.78 60.0232 108.876 60.0249C108.682 60.0253 108.54 60.137 108.412 60.2672C108.336 60.345 108.299 60.335 108.248 60.2391C107.996 59.764 107.739 59.2916 107.48 58.82C107.414 58.6982 107.421 58.6263 107.58 58.6225C107.663 58.6206 107.746 58.612 107.829 58.612C110.702 58.6114 113.575 58.613 116.448 58.6077C116.613 58.6073 116.699 58.6525 116.766 58.8061C116.92 59.1576 117.094 59.5008 117.264 59.8451C117.328 59.9743 117.311 60.0311 117.153 60.026C116.916 60.0184 116.677 60.0352 116.441 60.0202C116.281 60.0101 116.255 60.0709 116.255 60.2147C116.26 61.7794 116.258 63.3442 116.258 64.9089C116.258 65.268 116.25 65.6274 116.262 65.9862C116.266 66.1329 116.207 66.1662 116.084 66.1442C116.034 66.1353 115.983 66.1231 115.939 66.101C115.384 65.824 114.829 65.5453 114.275 65.2659C114.225 65.2411 114.15 65.2276 114.154 65.1587C114.158 65.0925 114.229 65.0795 114.283 65.0611C114.551 64.9704 114.656 64.7825 114.655 64.503C114.65 63.0666 114.651 61.6301 114.656 60.1936C114.656 60.0607 114.621 60.0168 114.485 60.0211C114.178 60.0308 113.869 60.033 113.562 60.0204C113.407 60.0141 113.372 60.0635 113.372 60.2129C113.378 61.534 113.376 62.855 113.376 64.1761C113.376 64.7597 113.376 65.3433 113.376 65.9268C113.376 66.1674 113.303 66.2149 113.076 66.107C112.782 65.9667 112.491 65.8181 112.199 65.6718C111.93 65.537 111.662 65.4007 111.394 65.2642C111.345 65.239 111.274 65.2243 111.281 65.1519C111.286 65.0925 111.348 65.078 111.395 65.0634C111.687 64.9742 111.789 64.7654 111.787 64.4769C111.782 63.9062 111.782 63.3354 111.788 62.7647C111.79 62.6353 111.76 62.5858 111.62 62.588C111.121 62.5959 110.622 62.591 110.11 62.591Z" fill="#FEFEFE"/>
<path d="M103.923 63.2201C103.348 63.748 102.694 64.0134 101.899 63.8796C102.59 64.7925 103.461 65.4917 104.355 66.2024C104.152 66.2846 103.956 66.3639 103.76 66.4431C103.701 66.4668 103.664 66.4327 103.625 66.3967C102.493 65.3443 101.349 64.3035 100.425 63.0518C100.208 62.7573 100.018 62.4467 99.8948 62.0985C99.7959 61.8183 99.8318 61.6242 100.024 61.4508C100.207 61.2857 100.462 61.2571 100.705 61.3834C100.984 61.5285 101.152 61.7663 101.222 62.0664C101.264 62.2511 101.358 62.3159 101.544 62.3079C101.858 62.2943 102.172 62.2847 102.473 62.1791C102.968 62.0056 103.147 61.6544 102.995 61.1526C102.874 60.7529 102.642 60.4159 102.385 60.0936C102.339 60.0351 102.285 60.0247 102.217 60.03C101.859 60.0576 101.501 60.0829 101.143 60.1082C100.954 60.1215 100.798 60.2048 100.672 60.3403C100.592 60.4254 100.546 60.4453 100.481 60.3221C100.23 59.8465 99.9717 59.3747 99.7128 58.9032C99.641 58.7725 99.6718 58.7119 99.821 58.7114C99.9043 58.711 99.9878 58.7083 100.071 58.7083C101.95 58.7082 103.829 58.7087 105.709 58.7064C105.78 58.7063 105.884 58.7504 105.916 58.671C105.942 58.6045 105.861 58.5351 105.814 58.4746C105.211 57.6863 104.404 57.4336 103.447 57.5759C103.289 57.5994 103.132 57.6325 102.975 57.6614C102.697 57.7128 102.455 57.6469 102.256 57.4396C101.887 57.056 101.516 56.674 101.147 56.2906C101.109 56.2509 101.049 56.2137 101.082 56.1458C101.109 56.0898 101.167 56.0657 101.225 56.0616C101.275 56.058 101.332 56.0586 101.375 56.0796C101.861 56.3177 102.362 56.2239 102.864 56.1565C103.131 56.1207 103.4 56.0985 103.67 56.1079C104.144 56.1247 104.533 56.3298 104.864 56.6546C105.478 57.2566 106.074 57.8759 106.594 58.5622C106.685 58.682 106.792 58.675 106.899 58.6592C107.139 58.624 107.268 58.7165 107.359 58.9416C107.487 59.2617 107.649 59.569 107.803 59.8781C107.87 60.0125 107.866 60.071 107.691 60.0717C107.258 60.0732 107.258 60.079 107.258 60.5128C107.258 62.3344 107.258 64.1558 107.258 65.9774C107.258 66.2031 107.179 66.2583 106.967 66.1558C106.396 65.8805 105.83 65.5962 105.263 65.3144C105.217 65.2916 105.167 65.2616 105.162 65.2066C105.156 65.1402 105.222 65.126 105.266 65.113C105.589 65.0176 105.675 64.7812 105.667 64.4749C105.659 64.1416 105.661 63.8079 105.668 63.4745C105.67 63.3586 105.637 63.3197 105.517 63.3202C105.093 63.3219 104.686 63.384 104.325 63.6243C104.215 63.6983 104.154 63.6708 104.102 63.5626C104.049 63.4535 103.99 63.3474 103.923 63.2201Z" fill="#FEFEFE"/>
<path d="M97.76 61.2955C97.76 60.89 97.7587 60.5128 97.761 60.1357C97.7615 60.0547 97.7324 60.023 97.6492 60.0232C96.8157 60.0253 95.9823 60.0216 95.1488 60.0273C94.9729 60.0284 94.8368 60.1382 94.7208 60.2608C94.6368 60.3496 94.5982 60.3306 94.5449 60.2299C94.2931 59.7548 94.0359 59.2826 93.7779 58.811C93.7148 58.6956 93.7265 58.6293 93.8719 58.6235C93.955 58.6203 94.0382 58.6123 94.1213 58.6123C95.769 58.6116 97.4167 58.6144 99.0643 58.6077C99.225 58.607 99.3021 58.6608 99.3655 58.8016C99.5203 59.1459 99.6922 59.4823 99.8551 59.8229C99.9417 60.0042 99.9306 60.021 99.7411 60.0242C99.3181 60.0315 99.3174 60.0315 99.3204 60.4568C99.3336 62.2839 99.3473 64.111 99.3607 65.9381C99.3623 66.1556 99.2864 66.2161 99.0872 66.1205C98.5049 65.8407 97.9284 65.5487 97.3505 65.2595C97.3065 65.2375 97.255 65.2054 97.264 65.1462C97.2716 65.0969 97.3243 65.0826 97.3658 65.0684C97.5652 64.9996 97.7216 64.8924 97.7511 64.6623C97.7638 64.5629 97.7669 64.5016 97.6266 64.5491C96.4379 64.9514 95.4983 64.5298 94.7094 63.6446C94.3533 63.2452 94.0791 62.7898 93.8582 62.303C93.5757 61.6804 93.7282 61.2076 94.3475 60.9215C95.2071 60.5246 96.1174 60.4334 97.0513 60.5641C97.2035 60.5854 97.321 60.6617 97.402 60.8028C97.4912 60.9578 97.5994 61.102 97.7 61.2505C97.706 61.2596 97.7182 61.2646 97.76 61.2955Z" fill="#FEFEFE"/>
<path d="M85.9907 53.7119C86.5995 53.2544 87.17 52.832 87.7331 52.4001C88.2001 52.0419 88.7202 51.743 89.1006 51.2852C89.4851 50.8225 89.8293 50.3265 90.2058 49.8567C90.8348 49.0722 91.5719 48.4051 92.3901 47.8171C93.1155 47.2957 93.9193 46.997 94.7854 46.8472C95.2836 46.761 95.7584 46.8741 96.2203 47.0758C96.5803 47.2329 96.8523 47.4827 97.0818 47.7887C97.1435 47.8709 97.2166 47.8913 97.3133 47.8907C97.8262 47.8875 98.3392 47.8935 98.8521 47.8864C98.9943 47.8845 99.0559 47.911 99.051 48.073C99.0387 48.4766 99.0428 48.8809 99.0497 49.2847C99.0515 49.3954 99.0158 49.4615 98.9224 49.5171C98.7134 49.6415 98.5132 49.7811 98.3022 49.9019C98.1989 49.9611 98.1685 50.0313 98.169 50.1473C98.1735 51.2822 98.1696 52.4172 98.1744 53.5522C98.175 53.6844 98.141 53.7258 98.0043 53.7257C94.048 53.7222 90.0918 53.7228 86.1355 53.7225C86.1042 53.7223 86.073 53.718 85.9907 53.7119Z" fill="#F27021"/>
<path d="M114.057 53.7227C113.937 53.7227 113.873 53.7227 113.809 53.7227C109.896 53.7227 105.984 53.7229 102.071 53.7222C101.786 53.7222 101.827 53.7478 101.827 53.4755C101.825 52.4171 101.824 51.3587 101.829 50.3004C101.83 50.1715 101.797 50.0875 101.684 50.0192C101.465 49.8868 101.187 49.7722 101.083 49.5595C100.986 49.3621 101.056 49.0823 101.054 48.8389C101.053 48.6337 101.066 48.4274 101.05 48.2234C101.035 48.0313 101.083 47.9602 101.294 47.9684C101.761 47.9866 102.23 47.9715 102.698 47.9761C102.798 47.9772 102.863 47.9462 102.925 47.8673C103.592 47.019 104.477 46.7997 105.498 46.9888C106.578 47.1887 107.466 47.7481 108.284 48.4531C108.982 49.0551 109.581 49.7413 110.158 50.4583C110.539 50.9313 110.939 51.3998 111.448 51.7629C112.283 52.3578 113.094 52.9866 113.914 53.6015C113.949 53.6269 113.98 53.6566 114.057 53.7227Z" fill="#F27021"/>
<path d="M98.3108 53.6784C98.8396 53.3801 99.3684 53.0822 99.8968 52.7833C99.9539 52.7511 100.005 52.7228 100.073 52.7643C100.608 53.0889 101.144 53.4111 101.676 53.7496C100.554 53.6733 99.4339 53.7529 98.3108 53.6784Z" fill="#F26F21"/>
<path d="M92.3659 58.6117C92.2687 58.6117 92.2051 58.6117 92.1416 58.6117C89.852 58.6117 87.5624 58.6101 85.2728 58.6153C85.1186 58.6157 85.0285 58.5722 84.9558 58.4353C84.8425 58.2221 84.708 58.0201 84.571 57.7946C85.4976 57.9279 86.3711 57.7453 87.2457 57.5787C88.0635 57.423 88.8783 57.242 89.7157 57.2311C90.5471 57.2202 91.3237 57.3792 91.9331 58.0076C92.0979 58.1778 92.2385 58.3662 92.3659 58.6117Z" fill="#F27021"/>
<path d="M103.117 60.0242C103.892 60.0242 104.668 60.026 105.443 60.022C105.552 60.0214 105.569 60.0679 105.57 60.1596C105.58 60.6597 105.593 61.1598 105.61 61.6596C105.613 61.7661 105.584 61.8066 105.472 61.8051C105.042 61.7998 104.612 61.8024 104.183 61.8034C104.114 61.8035 104.067 61.7994 104.049 61.7102C103.919 61.0798 103.572 60.5711 103.139 60.112C103.122 60.0944 103.099 60.0791 103.117 60.0242Z" fill="#F27021"/>
<path d="M96.231 63.3158C95.7969 63.3042 95.3758 63.2371 94.9965 63.0088C94.6371 62.7925 94.6423 62.5506 95.0114 62.3423C95.3507 62.1509 95.7231 62.0573 96.1042 61.9986C96.5371 61.9319 96.9711 61.9114 97.4026 62.0144C97.7222 62.0907 97.795 62.1998 97.6971 62.516C97.6115 62.7927 97.4546 63.0199 97.169 63.1394C96.8676 63.2657 96.5525 63.304 96.231 63.3158Z" fill="#F27021"/>
</svg>
