<svg width="567" height="94" viewBox="0 0 567 94" fill="none" xmlns="http://www.w3.org/2000/svg">
<path d="M29.56 40.8V68.04H27.36L8.36 44V64.32L12.56 66.44L11.76 68.04H2.4V66.8L6.16 63.84V40.4L2 38.16L2.8 36.56H8.84L27.36 60V40.24L23.2 38.16L24 36.56H33.36V37.84L29.56 40.8ZM58.0009 68H50.4009V64.52L45.8809 68.08C45.3476 68.2933 44.6809 68.4 43.8809 68.4C41.5876 68.4 39.9209 67.8267 38.8809 66.68C37.8676 65.5333 37.3609 64.16 37.3609 62.56C37.3609 61.6 37.7076 60.6533 38.4009 59.72C39.0943 58.7867 40.0809 57.9067 41.3609 57.08H50.4009V54.52C50.4009 52.7867 49.9343 51.56 49.0009 50.84C48.0943 50.12 46.8409 49.76 45.2409 49.76C43.5876 49.76 41.5609 50.76 39.1609 52.76L37.9609 51.24L43.7209 46.68C44.7876 46.4667 46.0676 46.36 47.5609 46.36C49.9876 46.36 51.8676 46.96 53.2009 48.16C54.5343 49.3333 55.2009 51.0533 55.2009 53.32V65L58.8009 66.4L58.0009 68ZM45.1609 65C46.7876 65 48.5343 64.2533 50.4009 62.76V58.72H43.3209C42.9743 59.1467 42.7209 59.5733 42.5609 60C42.4276 60.4267 42.3609 60.8933 42.3609 61.4C42.3609 62.3867 42.6143 63.24 43.1209 63.96C43.6276 64.6533 44.3076 65 45.1609 65ZM76.4447 46.4C77.3247 46.4 78.098 46.64 78.7647 47.12C79.4314 47.6 79.9514 48.2667 80.3247 49.12L77.6847 52.44H76.1647C76.058 51.7733 75.858 51.3067 75.5647 51.04C75.298 50.7467 74.9247 50.6 74.4447 50.6C73.858 50.6 73.2314 50.76 72.5647 51.08C71.9247 51.3733 71.1914 51.9467 70.3647 52.8V64.72L75.9647 66.44L75.1647 68.04H62.0047V66.8L65.5647 64V52.68L62.0047 50.6V49.36L68.8447 46L70.0847 50.92L74.2447 46.68C74.8047 46.4667 75.538 46.36 76.4447 46.36V46.4ZM96.3869 68.08C95.3202 68.2933 94.0402 68.4 92.5469 68.4C90.7869 68.4 89.2002 67.9467 87.7869 67.04C86.4002 66.1067 85.3069 64.8533 84.5069 63.28C83.7335 61.7067 83.3469 59.9733 83.3469 58.08C83.3469 56.0267 83.9735 54.1067 85.2269 52.32C86.4802 50.5067 88.0402 49.0667 89.9069 48C91.8002 46.9067 93.6269 46.36 95.3869 46.36C97.9202 46.36 99.8802 47.36 101.267 49.36C102.68 51.36 103.387 54 103.387 57.28H88.5869C88.7469 59.5467 89.3602 61.4 90.4269 62.84C91.5202 64.28 93.0002 65 94.8669 65C96.6002 65 99.0669 63.6533 102.267 60.96L103.467 62.48L96.3869 68.08ZM93.0669 49.72C90.1869 49.72 88.6802 51.6933 88.5469 55.64H97.9069C97.6669 54.2 97.4135 53.1067 97.1469 52.36C96.9069 51.5867 96.4669 50.96 95.8269 50.48C95.2135 49.9733 94.2935 49.72 93.0669 49.72ZM133.21 68.04H125.61V54.56C125.61 53.0933 125.383 52.0667 124.93 51.48C124.477 50.8933 123.663 50.6 122.49 50.6C121.61 50.6 120.73 50.76 119.85 51.08C118.997 51.4 117.983 52.0133 116.81 52.92V65.04L120.41 66.44L119.61 68.04H108.45V66.8L112.01 64V52.68L108.45 50.6V49.36L115.29 46L116.61 51.2L122.29 46.68C122.85 46.4667 123.583 46.36 124.49 46.36C126.303 46.36 127.743 46.92 128.81 48.04C129.877 49.1333 130.41 50.6267 130.41 52.52V65L134.01 66.44L133.21 68.04ZM161.36 68H153.76V65.12L150.04 68.08C149.187 68.2933 148.16 68.4 146.96 68.4C145.2 68.4 143.613 67.9467 142.2 67.04C140.813 66.1067 139.72 64.8533 138.92 63.28C138.147 61.7067 137.76 59.9733 137.76 58.08C137.76 56.0267 138.387 54.1067 139.64 52.32C140.893 50.5067 142.453 49.0667 144.32 48C146.213 46.9067 148.04 46.36 149.8 46.36C151.267 46.36 152.6 46.7733 153.8 47.6V39.36L150.24 36.88V35.64L157.08 33.08H158.6V65L162.16 66.4L161.36 68ZM149 65C149.8 65 150.56 64.8933 151.28 64.68C152.027 64.44 152.853 64 153.76 63.36V54.24C153.6 52.9067 152.973 51.8267 151.88 51C150.813 50.1467 149.347 49.72 147.48 49.72C144.467 49.72 142.96 51.8667 142.96 56.16C142.96 58.6667 143.48 60.7733 144.52 62.48C145.56 64.16 147.053 65 149 65ZM179.843 46.4C180.723 46.4 181.496 46.64 182.163 47.12C182.83 47.6 183.35 48.2667 183.723 49.12L181.083 52.44H179.563C179.456 51.7733 179.256 51.3067 178.963 51.04C178.696 50.7467 178.323 50.6 177.843 50.6C177.256 50.6 176.63 50.76 175.963 51.08C175.323 51.3733 174.59 51.9467 173.763 52.8V64.72L179.363 66.44L178.563 68.04H165.403V66.8L168.963 64V52.68L165.403 50.6V49.36L172.243 46L173.483 50.92L177.643 46.68C178.203 46.4667 178.936 46.36 179.843 46.36V46.4ZM206.595 68H198.995V64.52L194.475 68.08C193.941 68.2933 193.275 68.4 192.475 68.4C190.181 68.4 188.515 67.8267 187.475 66.68C186.461 65.5333 185.955 64.16 185.955 62.56C185.955 61.6 186.301 60.6533 186.995 59.72C187.688 58.7867 188.675 57.9067 189.955 57.08H198.995V54.52C198.995 52.7867 198.528 51.56 197.595 50.84C196.688 50.12 195.435 49.76 193.835 49.76C192.181 49.76 190.155 50.76 187.755 52.76L186.555 51.24L192.315 46.68C193.381 46.4667 194.661 46.36 196.155 46.36C198.581 46.36 200.461 46.96 201.795 48.16C203.128 49.3333 203.795 51.0533 203.795 53.32V65L207.395 66.4L206.595 68ZM193.755 65C195.381 65 197.128 64.2533 198.995 62.76V58.72H191.915C191.568 59.1467 191.315 59.5733 191.155 60C191.021 60.4267 190.955 60.8933 190.955 61.4C190.955 62.3867 191.208 63.24 191.715 63.96C192.221 64.6533 192.901 65 193.755 65Z" fill="black"/>
<path d="M275.56 51.08C277.613 51.6667 279.227 52.6533 280.4 54.04C281.573 55.4267 282.16 57.0267 282.16 58.84C282.16 60.52 281.48 62.1067 280.12 63.6C278.787 65.0667 277.107 66.24 275.08 67.12C273.08 68 271.173 68.44 269.36 68.44C268.027 68.44 266.72 68.3733 265.44 68.24C263.307 68.1067 261.653 68.04 260.48 68.04H255.4V66.8L259.16 63.84V39.52L255 38.16L255.8 36.56H260.44C262.867 36.56 265.253 36.48 267.6 36.32C269.413 36.2133 270.747 36.16 271.6 36.16C273.387 36.16 274.96 36.5067 276.32 37.2C277.68 37.8933 278.72 38.84 279.44 40.04C280.187 41.2133 280.56 42.5333 280.56 44C280.56 45.3333 280.093 46.6133 279.16 47.84C278.253 49.04 277.053 50.0933 275.56 51V51.08ZM275.16 46C275.16 43.8933 274.6 42.1733 273.48 40.84C272.36 39.5067 270.693 38.84 268.48 38.84C266.88 38.84 265.44 39.2933 264.16 40.2V50.8H269.88C271.533 50.8 272.827 50.3867 273.76 49.56C274.693 48.7067 275.16 47.5067 275.16 45.96V46ZM270.48 65.52C272.4 65.52 273.92 65.04 275.04 64.08C276.187 63.12 276.76 61.8267 276.76 60.2C276.76 58.12 276.147 56.44 274.92 55.16C273.72 53.88 271.92 53.2 269.52 53.12C269.333 53.1467 269.08 53.16 268.76 53.16H264.16V64.48C265.947 65.2 268.053 65.56 270.48 65.56V65.52ZM310.723 68H303.123V54.52C303.123 53.0533 302.896 52.0267 302.443 51.44C301.989 50.8533 301.176 50.56 300.003 50.56C299.123 50.56 298.243 50.72 297.363 51.04C296.509 51.36 295.496 51.9733 294.323 52.88V65L297.923 66.4L297.123 68H285.963V66.76L289.523 63.96V39.36L285.963 36.88V35.64L292.803 33.08H294.323V51L299.803 46.68C300.363 46.4667 301.096 46.36 302.003 46.36C303.816 46.36 305.256 46.92 306.323 48.04C307.389 49.1333 307.923 50.6267 307.923 52.52V65L311.523 66.4L310.723 68ZM327.371 46.36C329.131 46.36 330.705 46.8267 332.091 47.76C333.505 48.6667 334.598 49.9067 335.371 51.48C336.171 53.0533 336.571 54.7867 336.571 56.68C336.571 58.7333 335.945 60.6667 334.691 62.48C333.438 64.2667 331.865 65.7067 329.971 66.8C328.105 67.8667 326.291 68.4 324.531 68.4C322.771 68.4 321.185 67.9467 319.771 67.04C318.385 66.1067 317.291 64.8533 316.491 63.28C315.718 61.7067 315.331 59.9733 315.331 58.08C315.331 56.0267 315.958 54.1067 317.211 52.32C318.465 50.5067 320.025 49.0667 321.891 48C323.785 46.9067 325.611 46.36 327.371 46.36ZM325.051 49.72C322.038 49.72 320.531 51.8667 320.531 56.16C320.531 58.6933 321.078 60.8133 322.171 62.52C323.265 64.2 324.825 65.04 326.851 65.04C329.865 65.04 331.371 62.88 331.371 58.56C331.371 56.0533 330.825 53.96 329.731 52.28C328.638 50.5733 327.078 49.72 325.051 49.72ZM366.327 68.04H358.727V54.56C358.727 53.0933 358.501 52.0667 358.047 51.48C357.594 50.8933 356.781 50.6 355.607 50.6C354.727 50.6 353.847 50.76 352.967 51.08C352.114 51.4 351.101 52.0133 349.927 52.92V65.04L353.527 66.44L352.727 68.04H341.567V66.8L345.127 64V52.68L341.567 50.6V49.36L348.407 46L349.727 51.2L355.407 46.68C355.967 46.4667 356.701 46.36 357.607 46.36C359.421 46.36 360.861 46.92 361.927 48.04C362.994 49.1333 363.527 50.6267 363.527 52.52V65L367.127 66.44L366.327 68.04ZM394.477 68H386.877V65.12L383.157 68.08C382.304 68.2933 381.277 68.4 380.077 68.4C378.317 68.4 376.731 67.9467 375.317 67.04C373.931 66.1067 372.837 64.8533 372.037 63.28C371.264 61.7067 370.877 59.9733 370.877 58.08C370.877 56.0267 371.504 54.1067 372.757 52.32C374.011 50.5067 375.571 49.0667 377.437 48C379.331 46.9067 381.157 46.36 382.917 46.36C384.384 46.36 385.717 46.7733 386.917 47.6V39.36L383.357 36.88V35.64L390.197 33.08H391.717V65L395.277 66.4L394.477 68ZM382.117 65C382.917 65 383.677 64.8933 384.397 64.68C385.144 64.44 385.971 64 386.877 63.36V54.24C386.717 52.9067 386.091 51.8267 384.997 51C383.931 50.1467 382.464 49.72 380.597 49.72C377.584 49.72 376.077 51.8667 376.077 56.16C376.077 58.6667 376.597 60.7733 377.637 62.48C378.677 64.16 380.171 65 382.117 65ZM412.16 68.08C411.094 68.2933 409.814 68.4 408.32 68.4C406.56 68.4 404.974 67.9467 403.56 67.04C402.174 66.1067 401.08 64.8533 400.28 63.28C399.507 61.7067 399.12 59.9733 399.12 58.08C399.12 56.0267 399.747 54.1067 401 52.32C402.254 50.5067 403.814 49.0667 405.68 48C407.574 46.9067 409.4 46.36 411.16 46.36C413.694 46.36 415.654 47.36 417.04 49.36C418.454 51.36 419.16 54 419.16 57.28H404.36C404.52 59.5467 405.134 61.4 406.2 62.84C407.294 64.28 408.774 65 410.64 65C412.374 65 414.84 63.6533 418.04 60.96L419.24 62.48L412.16 68.08ZM408.84 49.72C405.96 49.72 404.454 51.6933 404.32 55.64H413.68C413.44 54.2 413.187 53.1067 412.92 52.36C412.68 51.5867 412.24 50.96 411.6 50.48C410.987 49.9733 410.067 49.72 408.84 49.72ZM435.383 66.4L434.583 68H423.423V66.76L426.983 63.96V39.36L423.423 36.88V35.64L430.263 33.08H431.783V65L435.383 66.4ZM448.183 68H441.423L433.903 57.44L441.383 51.16L437.543 48.36L438.343 46.76H447.903V48L438.623 55.8L445.383 65L448.983 66.4L448.183 68ZM472.642 68H465.042V64.52L460.522 68.08C459.988 68.2933 459.322 68.4 458.522 68.4C456.228 68.4 454.562 67.8267 453.522 66.68C452.508 65.5333 452.002 64.16 452.002 62.56C452.002 61.6 452.348 60.6533 453.042 59.72C453.735 58.7867 454.722 57.9067 456.002 57.08H465.042V54.52C465.042 52.7867 464.575 51.56 463.642 50.84C462.735 50.12 461.482 49.76 459.882 49.76C458.228 49.76 456.202 50.76 453.802 52.76L452.602 51.24L458.362 46.68C459.428 46.4667 460.708 46.36 462.202 46.36C464.628 46.36 466.508 46.96 467.842 48.16C469.175 49.3333 469.842 51.0533 469.842 53.32V65L473.442 66.4L472.642 68ZM459.802 65C461.428 65 463.175 64.2533 465.042 62.76V58.72H457.962C457.615 59.1467 457.362 59.5733 457.202 60C457.068 60.4267 457.002 60.8933 457.002 61.4C457.002 62.3867 457.255 63.24 457.762 63.96C458.268 64.6533 458.948 65 459.802 65ZM491.085 46.4C491.965 46.4 492.739 46.64 493.405 47.12C494.072 47.6 494.592 48.2667 494.965 49.12L492.325 52.44H490.805C490.699 51.7733 490.499 51.3067 490.205 51.04C489.939 50.7467 489.565 50.6 489.085 50.6C488.499 50.6 487.872 50.76 487.205 51.08C486.565 51.3733 485.832 51.9467 485.005 52.8V64.72L490.605 66.44L489.805 68.04H476.645V66.8L480.205 64V52.68L476.645 50.6V49.36L483.485 46L484.725 50.92L488.885 46.68C489.445 46.4667 490.179 46.36 491.085 46.36V46.4Z" fill="black"/>
<path d="M158.14 87H157.59V75.14H158.14V87ZM172.583 85.01H169.543V84.7L170.483 83.96V78.43L167.813 85.01H167.263L164.613 78.36V84.08L165.663 84.61L165.463 85.01H163.123V84.7L164.063 83.96V78.1L163.023 77.54L163.223 77.14H165.393L167.893 83.42L170.383 77.14H172.683V77.45L171.733 78.19V84.24L172.783 84.61L172.583 85.01ZM179.885 85H173.885V84.69L174.825 83.95V77.89L173.785 77.54L173.985 77.14H177.025V77.45L176.075 78.19V84.55H178.655L180.125 82.38L180.425 82.48V85.18L179.885 85ZM189.627 85H186.587V84.69L187.527 83.96L186.757 82.11H183.397L182.577 84L184.337 84.6L184.137 85H181.097V84.69L182.037 83.95L184.867 77.46L185.907 76.95L188.827 83.99L189.827 84.6L189.627 85ZM185.117 78.15L183.597 81.66H186.577L185.117 78.15ZM198.261 80.77C198.774 80.9167 199.178 81.1633 199.471 81.51C199.764 81.8567 199.911 82.2567 199.911 82.71C199.911 83.13 199.741 83.5267 199.401 83.9C199.068 84.2667 198.648 84.56 198.141 84.78C197.641 85 197.164 85.11 196.711 85.11C196.378 85.11 196.051 85.0933 195.731 85.06C195.198 85.0267 194.784 85.01 194.491 85.01H193.221V84.7L194.161 83.96V77.88L193.121 77.54L193.321 77.14H194.481C195.088 77.14 195.684 77.12 196.271 77.08C196.724 77.0533 197.058 77.04 197.271 77.04C197.718 77.04 198.111 77.1267 198.451 77.3C198.791 77.4733 199.051 77.71 199.231 78.01C199.418 78.3033 199.511 78.6333 199.511 79C199.511 79.3333 199.394 79.6533 199.161 79.96C198.934 80.26 198.634 80.5233 198.261 80.75V80.77ZM198.161 79.5C198.161 78.9733 198.021 78.5433 197.741 78.21C197.461 77.8767 197.044 77.71 196.491 77.71C196.091 77.71 195.731 77.8233 195.411 78.05V80.7H196.841C197.254 80.7 197.578 80.5967 197.811 80.39C198.044 80.1767 198.161 79.8767 198.161 79.49V79.5ZM196.991 84.38C197.471 84.38 197.851 84.26 198.131 84.02C198.418 83.78 198.561 83.4567 198.561 83.05C198.561 82.53 198.408 82.11 198.101 81.79C197.801 81.47 197.351 81.3 196.751 81.28C196.704 81.2867 196.641 81.29 196.561 81.29H195.411V84.12C195.858 84.3 196.384 84.39 196.991 84.39V84.38ZM207.052 85H205.152V81.63C205.152 81.2633 205.095 81.0067 204.982 80.86C204.868 80.7133 204.665 80.64 204.372 80.64C204.152 80.64 203.932 80.68 203.712 80.76C203.498 80.84 203.245 80.9933 202.952 81.22V84.25L203.852 84.6L203.652 85H200.862V84.69L201.752 83.99V77.84L200.862 77.22V76.91L202.572 76.27H202.952V80.75L204.322 79.67C204.462 79.6167 204.645 79.59 204.872 79.59C205.325 79.59 205.685 79.73 205.952 80.01C206.218 80.2833 206.352 80.6567 206.352 81.13V84.25L207.252 84.6L207.052 85ZM213.264 85H211.364V84.13L210.234 85.02C210.101 85.0733 209.934 85.1 209.734 85.1C209.161 85.1 208.744 84.9567 208.484 84.67C208.231 84.3833 208.104 84.04 208.104 83.64C208.104 83.4 208.191 83.1633 208.364 82.93C208.537 82.6967 208.784 82.4767 209.104 82.27H211.364V81.63C211.364 81.1967 211.247 80.89 211.014 80.71C210.787 80.53 210.474 80.44 210.074 80.44C209.661 80.44 209.154 80.69 208.554 81.19L208.254 80.81L209.694 79.67C209.961 79.6167 210.281 79.59 210.654 79.59C211.261 79.59 211.731 79.74 212.064 80.04C212.397 80.3333 212.564 80.7633 212.564 81.33V84.25L213.464 84.6L213.264 85ZM210.054 84.25C210.461 84.25 210.897 84.0633 211.364 83.69V82.68H209.594C209.507 82.7867 209.444 82.8933 209.404 83C209.371 83.1067 209.354 83.2233 209.354 83.35C209.354 83.5967 209.417 83.81 209.544 83.99C209.671 84.1633 209.841 84.25 210.054 84.25ZM220.455 85.01H218.555V81.64C218.555 81.2733 218.498 81.0167 218.385 80.87C218.272 80.7233 218.068 80.65 217.775 80.65C217.555 80.65 217.335 80.69 217.115 80.77C216.902 80.85 216.648 81.0033 216.355 81.23V84.26L217.255 84.61L217.055 85.01H214.265V84.7L215.155 84V81.17L214.265 80.65V80.34L215.975 79.5L216.305 80.8L217.725 79.67C217.865 79.6167 218.048 79.59 218.275 79.59C218.728 79.59 219.088 79.73 219.355 80.01C219.622 80.2833 219.755 80.6567 219.755 81.13V84.25L220.655 84.61L220.455 85.01ZM227.492 85H225.592V84.28L224.662 85.02C224.449 85.0733 224.192 85.1 223.892 85.1C223.452 85.1 223.056 84.9867 222.702 84.76C222.356 84.5267 222.082 84.2133 221.882 83.82C221.689 83.4267 221.592 82.9933 221.592 82.52C221.592 82.0067 221.749 81.5267 222.062 81.08C222.376 80.6267 222.766 80.2667 223.232 80C223.706 79.7267 224.162 79.59 224.602 79.59C224.969 79.59 225.302 79.6933 225.602 79.9V77.84L224.712 77.22V76.91L226.422 76.27H226.802V84.25L227.692 84.6L227.492 85ZM224.402 84.25C224.602 84.25 224.792 84.2233 224.972 84.17C225.159 84.11 225.366 84 225.592 83.84V81.56C225.552 81.2267 225.396 80.9567 225.122 80.75C224.856 80.5367 224.489 80.43 224.022 80.43C223.269 80.43 222.892 80.9667 222.892 82.04C222.892 82.6667 223.022 83.1933 223.282 83.62C223.542 84.04 223.916 84.25 224.402 84.25ZM233.713 85H231.813V84.13L230.683 85.02C230.55 85.0733 230.383 85.1 230.183 85.1C229.61 85.1 229.193 84.9567 228.933 84.67C228.68 84.3833 228.553 84.04 228.553 83.64C228.553 83.4 228.64 83.1633 228.813 82.93C228.986 82.6967 229.233 82.4767 229.553 82.27H231.813V81.63C231.813 81.1967 231.696 80.89 231.463 80.71C231.236 80.53 230.923 80.44 230.523 80.44C230.11 80.44 229.603 80.69 229.003 81.19L228.703 80.81L230.143 79.67C230.41 79.6167 230.73 79.59 231.103 79.59C231.71 79.59 232.18 79.74 232.513 80.04C232.846 80.3333 233.013 80.7633 233.013 81.33V84.25L233.913 84.6L233.713 85ZM230.503 84.25C230.91 84.25 231.346 84.0633 231.813 83.69V82.68H230.043C229.956 82.7867 229.893 82.8933 229.853 83C229.82 83.1067 229.803 83.2233 229.803 83.35C229.803 83.5967 229.866 83.81 229.993 83.99C230.12 84.1633 230.29 84.25 230.503 84.25ZM238.324 79.6C238.544 79.6 238.737 79.66 238.904 79.78C239.071 79.9 239.201 80.0667 239.294 80.28L238.634 81.11H238.254C238.227 80.9433 238.177 80.8267 238.104 80.76C238.037 80.6867 237.944 80.65 237.824 80.65C237.677 80.65 237.521 80.69 237.354 80.77C237.194 80.8433 237.011 80.9867 236.804 81.2V84.18L238.204 84.61L238.004 85.01H234.714V84.7L235.604 84V81.17L234.714 80.65V80.34L236.424 79.5L236.734 80.73L237.774 79.67C237.914 79.6167 238.097 79.59 238.324 79.59V79.6ZM245.012 85H243.112V84.13L241.982 85.02C241.849 85.0733 241.682 85.1 241.482 85.1C240.909 85.1 240.492 84.9567 240.232 84.67C239.979 84.3833 239.852 84.04 239.852 83.64C239.852 83.4 239.939 83.1633 240.112 82.93C240.285 82.6967 240.532 82.4767 240.852 82.27H243.112V81.63C243.112 81.1967 242.995 80.89 242.762 80.71C242.535 80.53 242.222 80.44 241.822 80.44C241.409 80.44 240.902 80.69 240.302 81.19L240.002 80.81L241.442 79.67C241.709 79.6167 242.029 79.59 242.402 79.59C243.009 79.59 243.479 79.74 243.812 80.04C244.145 80.3333 244.312 80.7633 244.312 81.33V84.25L245.212 84.6L245.012 85ZM241.802 84.25C242.209 84.25 242.645 84.0633 243.112 83.69V82.68H241.342C241.255 82.7867 241.192 82.8933 241.152 83C241.119 83.1067 241.102 83.2233 241.102 83.35C241.102 83.5967 241.165 83.81 241.292 83.99C241.419 84.1633 241.589 84.25 241.802 84.25ZM246.263 82.02L246.663 81.51H249.793V81.81L249.393 82.32H246.263V82.02ZM254.97 81.17C255.423 81.17 255.78 81.0467 256.04 80.8C256.307 80.5533 256.44 80.2133 256.44 79.78C256.44 79.1667 256.283 78.6667 255.97 78.28C255.663 77.8867 255.213 77.69 254.62 77.69C254.167 77.69 253.753 77.82 253.38 78.08V84.18L254.93 84.61L254.73 85.01H251.19V84.7L252.13 83.96V77.88L251.09 77.54L251.29 77.14H252.45C253.097 77.14 253.733 77.12 254.36 77.08C254.827 77.0533 255.17 77.04 255.39 77.04C255.857 77.04 256.27 77.14 256.63 77.34C256.997 77.5333 257.28 77.8033 257.48 78.15C257.68 78.4967 257.78 78.88 257.78 79.3C257.78 79.7667 257.61 80.2067 257.27 80.62C256.93 81.0333 256.497 81.3567 255.97 81.59C255.443 81.8233 254.927 81.9267 254.42 81.9L253.95 81.56L254.15 81.16H254.96L254.97 81.17ZM263.742 85H261.842V84.13L260.712 85.02C260.579 85.0733 260.412 85.1 260.212 85.1C259.639 85.1 259.222 84.9567 258.962 84.67C258.709 84.3833 258.582 84.04 258.582 83.64C258.582 83.4 258.669 83.1633 258.842 82.93C259.016 82.6967 259.262 82.4767 259.582 82.27H261.842V81.63C261.842 81.1967 261.726 80.89 261.492 80.71C261.266 80.53 260.952 80.44 260.552 80.44C260.139 80.44 259.632 80.69 259.032 81.19L258.732 80.81L260.172 79.67C260.439 79.6167 260.759 79.59 261.132 79.59C261.739 79.59 262.209 79.74 262.542 80.04C262.876 80.3333 263.042 80.7633 263.042 81.33V84.25L263.942 84.6L263.742 85ZM260.532 84.25C260.939 84.25 261.376 84.0633 261.842 83.69V82.68H260.072C259.986 82.7867 259.922 82.8933 259.882 83C259.849 83.1067 259.832 83.2233 259.832 83.35C259.832 83.5967 259.896 83.81 260.022 83.99C260.149 84.1633 260.319 84.25 260.532 84.25ZM270.023 80L267.493 85H266.733L265.173 81.19L264.243 80.65V80.34L265.953 79.5L266.333 81.01L267.553 83.99L268.963 81.06L267.633 80.09L267.833 79.69H270.023V80ZM275.959 85H274.059V84.13L272.929 85.02C272.796 85.0733 272.629 85.1 272.429 85.1C271.856 85.1 271.439 84.9567 271.179 84.67C270.926 84.3833 270.799 84.04 270.799 83.64C270.799 83.4 270.886 83.1633 271.059 82.93C271.233 82.6967 271.479 82.4767 271.799 82.27H274.059V81.63C274.059 81.1967 273.943 80.89 273.709 80.71C273.483 80.53 273.169 80.44 272.769 80.44C272.356 80.44 271.849 80.69 271.249 81.19L270.949 80.81L272.389 79.67C272.656 79.6167 272.976 79.59 273.349 79.59C273.956 79.59 274.426 79.74 274.759 80.04C275.093 80.3333 275.259 80.7633 275.259 81.33V84.25L276.159 84.6L275.959 85ZM272.749 84.25C273.156 84.25 273.593 84.0633 274.059 83.69V82.68H272.289C272.203 82.7867 272.139 82.8933 272.099 83C272.066 83.1067 272.049 83.2233 272.049 83.35C272.049 83.5967 272.113 83.81 272.239 83.99C272.366 84.1633 272.536 84.25 272.749 84.25ZM283.15 85.01H281.25V81.64C281.25 81.2733 281.193 81.0167 281.08 80.87C280.967 80.7233 280.763 80.65 280.47 80.65C280.25 80.65 280.03 80.69 279.81 80.77C279.597 80.85 279.343 81.0033 279.05 81.23V84.26L279.95 84.61L279.75 85.01H276.96V84.7L277.85 84V81.17L276.96 80.65V80.34L278.67 79.5L279 80.8L280.42 79.67C280.56 79.6167 280.743 79.59 280.97 79.59C281.423 79.59 281.783 79.73 282.05 80.01C282.317 80.2833 282.45 80.6567 282.45 81.13V84.25L283.35 84.61L283.15 85.01ZM286.938 85H284.148V84.69L285.038 83.99V81.07L284.148 80.45V80.14L285.858 79.5H286.238V84.25L287.138 84.6L286.938 85ZM285.598 76.5C285.798 76.5 285.961 76.5733 286.088 76.72C286.221 76.8667 286.288 77.05 286.288 77.27C286.288 77.4233 286.241 77.57 286.148 77.71C286.054 77.8433 285.938 77.95 285.798 78.03C285.658 78.11 285.521 78.15 285.388 78.15C285.188 78.15 285.021 78.0767 284.888 77.93C284.761 77.7833 284.698 77.6 284.698 77.38C284.698 77.2267 284.744 77.0833 284.838 76.95C284.931 76.81 285.048 76.7 285.188 76.62C285.328 76.54 285.464 76.5 285.598 76.5ZM296.037 85H294.137V84.13L293.007 85.02C292.874 85.0733 292.707 85.1 292.507 85.1C291.934 85.1 291.517 84.9567 291.257 84.67C291.004 84.3833 290.877 84.04 290.877 83.64C290.877 83.4 290.964 83.1633 291.137 82.93C291.311 82.6967 291.557 82.4767 291.877 82.27H294.137V81.63C294.137 81.1967 294.021 80.89 293.787 80.71C293.561 80.53 293.247 80.44 292.847 80.44C292.434 80.44 291.927 80.69 291.327 81.19L291.027 80.81L292.467 79.67C292.734 79.6167 293.054 79.59 293.427 79.59C294.034 79.59 294.504 79.74 294.837 80.04C295.171 80.3333 295.337 80.7633 295.337 81.33V84.25L296.237 84.6L296.037 85ZM292.827 84.25C293.234 84.25 293.671 84.0633 294.137 83.69V82.68H292.367C292.281 82.7867 292.217 82.8933 292.177 83C292.144 83.1067 292.127 83.2233 292.127 83.35C292.127 83.5967 292.191 83.81 292.317 83.99C292.444 84.1633 292.614 84.25 292.827 84.25ZM300.648 79.6C300.868 79.6 301.062 79.66 301.228 79.78C301.395 79.9 301.525 80.0667 301.618 80.28L300.958 81.11H300.578C300.552 80.9433 300.502 80.8267 300.428 80.76C300.362 80.6867 300.268 80.65 300.148 80.65C300.002 80.65 299.845 80.69 299.678 80.77C299.518 80.8433 299.335 80.9867 299.128 81.2V84.18L300.528 84.61L300.328 85.01H297.038V84.7L297.928 84V81.17L297.038 80.65V80.34L298.748 79.5L299.058 80.73L300.098 79.67C300.238 79.6167 300.422 79.59 300.648 79.59V79.6ZM305.634 85.02C305.367 85.0733 305.047 85.1 304.674 85.1C304.234 85.1 303.837 84.9867 303.484 84.76C303.137 84.5267 302.864 84.2133 302.664 83.82C302.47 83.4267 302.374 82.9933 302.374 82.52C302.374 82.0067 302.53 81.5267 302.844 81.08C303.157 80.6267 303.547 80.2667 304.014 80C304.487 79.7267 304.944 79.59 305.384 79.59C306.017 79.59 306.507 79.84 306.854 80.34C307.207 80.84 307.384 81.5 307.384 82.32H303.684C303.724 82.8867 303.877 83.35 304.144 83.71C304.417 84.07 304.787 84.25 305.254 84.25C305.687 84.25 306.304 83.9133 307.104 83.24L307.404 83.62L305.634 85.02ZM304.804 80.43C304.084 80.43 303.707 80.9233 303.674 81.91H306.014C305.954 81.55 305.89 81.2767 305.824 81.09C305.764 80.8967 305.654 80.74 305.494 80.62C305.34 80.4933 305.11 80.43 304.804 80.43ZM313.86 85H311.96V84.13L310.83 85.02C310.696 85.0733 310.53 85.1 310.33 85.1C309.756 85.1 309.34 84.9567 309.08 84.67C308.826 84.3833 308.7 84.04 308.7 83.64C308.7 83.4 308.786 83.1633 308.96 82.93C309.133 82.6967 309.38 82.4767 309.7 82.27H311.96V81.63C311.96 81.1967 311.843 80.89 311.61 80.71C311.383 80.53 311.07 80.44 310.67 80.44C310.256 80.44 309.75 80.69 309.15 81.19L308.85 80.81L310.29 79.67C310.556 79.6167 310.876 79.59 311.25 79.59C311.856 79.59 312.326 79.74 312.66 80.04C312.993 80.3333 313.16 80.7633 313.16 81.33V84.25L314.06 84.6L313.86 85ZM310.65 84.25C311.056 84.25 311.493 84.0633 311.96 83.69V82.68H310.19C310.103 82.7867 310.04 82.8933 310 83C309.966 83.1067 309.95 83.2233 309.95 83.35C309.95 83.5967 310.013 83.81 310.14 83.99C310.266 84.1633 310.436 84.25 310.65 84.25ZM319.244 87H318.694V75.14H319.244V87Z" fill="black"/>
<path d="M231.997 33C243.548 32.9923 252.995 42.4372 253 53.9969C253.005 65.5529 243.563 74.9982 232.004 75.0003C220.449 75.0025 211.003 65.5608 211 54.0049C210.997 42.4513 220.437 33.0077 231.997 33Z" fill="#F16F21"/>
<path d="M231.132 39.354C230.561 39.5909 230.009 39.82 229.403 40.0716C230.288 38.2736 231.17 36.5399 232.093 34.7837C232.991 36.5478 233.873 38.2799 234.755 40.0113C234.695 40.069 234.652 40.0144 234.613 39.9987C234.149 39.815 233.686 39.6277 233.224 39.4399C233.11 39.3939 233.05 39.3825 233.05 39.5504C233.056 41.5709 233.055 43.5914 233.051 45.6119C233.051 45.7445 233.087 45.77 233.219 45.787C233.663 45.8446 234.007 45.7026 234.334 45.3941C234.705 45.0441 235.181 44.8617 235.673 44.7149C236.374 44.506 237.08 44.4937 237.781 44.6398C238.197 44.7265 238.602 44.8792 239.005 45.0266C240.359 45.5214 241.449 46.3805 242.388 47.4512C242.557 47.644 242.725 47.838 242.896 48.0293C243.251 48.4266 243.585 48.8353 243.843 49.3079C244.128 49.8293 244.557 50.2454 244.956 50.6778C245.521 51.2898 246.116 51.8683 246.789 52.3711C247.268 52.7285 247.742 53.0879 248.28 53.3429C248.726 53.5544 249.176 53.7875 249.704 53.7271C249.813 53.7146 249.865 53.6873 249.916 53.5855C250.148 53.1203 250.737 52.9101 251.189 53.2343C251.215 53.2526 251.244 53.2661 251.273 53.279C251.626 53.4366 251.732 53.6378 251.689 54.0169C251.653 54.3306 251.575 54.6168 251.336 54.8442C251.262 54.9152 251.195 54.9681 251.088 54.9552C251.037 54.9492 250.985 54.9542 250.934 54.9542C238.317 54.9542 225.7 54.9542 213.083 54.9542C212.681 54.9542 212.448 54.7906 212.34 54.3974C212.254 54.087 212.189 53.762 212.43 53.4865C212.711 53.1651 213.086 53.0906 213.487 53.1555C213.654 53.1825 213.858 53.1477 213.968 53.3382C213.984 53.3658 214.022 53.3908 214.021 53.4165C214.016 53.6955 214.202 53.6726 214.397 53.6813C214.83 53.7005 215.223 53.5403 215.597 53.3784C216.449 53.0086 217.193 52.457 217.87 51.8245C218.55 51.1893 219.187 50.5108 219.778 49.7918C220.1 49.4008 220.332 48.945 220.66 48.5567C221.442 47.6291 222.242 46.7205 223.225 45.9929C224.135 45.3193 225.143 44.8616 226.251 44.6466C226.958 44.5094 227.671 44.4777 228.378 44.7123C228.782 44.8464 229.221 44.8808 229.562 45.1763C229.751 45.3399 229.949 45.4933 230.137 45.6581C230.198 45.7121 230.256 45.7434 230.34 45.7413C230.558 45.736 230.776 45.734 230.994 45.7419C231.105 45.7459 231.137 45.7074 231.134 45.5996C231.127 45.3239 231.132 45.0481 231.132 44.7722C231.132 43.0404 231.132 41.3085 231.132 39.5766C231.132 39.5079 231.132 39.4391 231.132 39.354Z" fill="#131518"/>
<path d="M216.303 58.592C216.301 58.5095 216.246 58.4511 216.21 58.3856C215.869 57.7619 215.531 57.1366 215.181 56.5183C215.101 56.3779 215.15 56.3422 215.275 56.3275C215.337 56.3201 215.404 56.3119 215.465 56.3254C216.438 56.5436 217.401 56.4431 218.357 56.2218C219.282 56.0076 220.203 55.7947 221.165 55.86C222.029 55.9186 222.781 56.2328 223.423 56.8046C223.85 57.1848 224.203 57.6373 224.589 58.0573C224.741 58.2226 224.896 58.3834 225.068 58.5288C225.17 58.6149 225.271 58.6831 225.413 58.6633C225.484 58.6533 225.529 58.6827 225.563 58.7518C225.746 59.125 225.934 59.496 226.123 59.867C226.179 59.9789 226.161 60.0322 226.024 60.0257C225.883 60.0191 225.741 60.03 225.601 60.0225C225.499 60.017 225.468 60.0533 225.47 60.1537C225.476 60.455 225.473 60.7564 225.475 61.0579C225.487 62.6804 225.5 64.3028 225.512 65.9253C225.514 66.1691 225.434 66.2164 225.198 66.1004C224.721 65.8662 224.245 65.6291 223.772 65.3865C223.655 65.3261 223.463 65.3095 223.439 65.1859C223.407 65.0161 223.632 65.0596 223.723 64.9747C223.81 64.8931 223.886 64.811 223.9 64.6887C223.91 64.5997 223.921 64.5102 223.921 64.4209C223.923 63.0228 223.92 61.6247 223.925 60.2266C223.926 60.0733 223.896 60.0182 223.729 60.0201C222.927 60.0294 222.126 60.0271 221.324 60.0216C221.185 60.0207 221.135 60.0444 221.121 60.2045C221.095 60.496 221.169 60.6568 221.469 60.7647C221.849 60.9013 222.135 61.1964 222.367 61.5248C222.791 62.1224 223.169 62.749 223.362 63.4621C223.494 63.9513 223.317 64.3596 222.893 64.6431C222.511 64.8987 222.076 65.0008 221.629 65.0637C221.535 65.077 221.44 65.0882 221.316 65.1042C221.697 65.6623 222.197 66.0347 222.798 66.3394C222.564 66.4576 222.353 66.5697 222.136 66.672C222.047 66.7141 221.993 66.6329 221.943 66.5798C221.62 66.2328 221.296 65.8862 220.98 65.5321C220.755 65.2793 220.5 65.0854 220.179 64.9569C219.593 64.7223 219.047 64.413 218.604 63.9501C218.438 63.7772 218.305 63.5835 218.235 63.3504C218.169 63.133 218.184 62.9278 218.344 62.7572C218.511 62.5783 218.729 62.5607 218.95 62.6212C219.375 62.7378 219.642 63.0464 219.848 63.4119C219.911 63.5238 219.982 63.5802 220.104 63.6132C220.611 63.751 221.101 63.7053 221.595 63.5385C221.811 63.4656 222.011 63.3807 222.186 63.2375C222.577 62.9169 222.562 62.5524 222.143 62.2631C221.858 62.0658 221.533 61.9676 221.196 61.9143C220.526 61.8082 219.879 61.8726 219.282 62.2223C219.191 62.2756 219.142 62.2503 219.095 62.1724C218.87 61.7993 218.646 61.4258 218.419 61.0538C218.353 60.9446 218.417 60.9036 218.505 60.8713C218.812 60.758 219.126 60.6687 219.453 60.6396C219.576 60.6287 219.629 60.6035 219.628 60.463C219.624 60.0246 219.631 60.0245 219.189 60.0245C218.849 60.0245 218.509 60.0245 218.169 60.0245C217.891 60.0245 217.891 60.0245 217.891 60.2929C217.891 62.172 217.891 64.0511 217.891 65.9302C217.891 66.1539 217.821 66.2163 217.624 66.1248C217.056 65.8607 216.493 65.5824 215.929 65.3082C215.883 65.2859 215.833 65.2512 215.836 65.1963C215.839 65.1392 215.897 65.1176 215.945 65.1011C216.255 64.9953 216.346 64.7674 216.345 64.4573C216.338 63.0592 216.34 61.6611 216.344 60.263C216.345 60.1155 216.323 60.0517 216.154 60.0933C215.985 60.135 215.812 60.1578 215.676 60.2768C215.583 60.3585 215.544 60.3175 215.495 60.2263C215.244 59.7577 214.99 59.2911 214.733 58.826C214.657 58.6892 214.683 58.623 214.844 58.6218C215.261 58.6188 215.677 58.6162 216.094 58.6112C216.162 58.6101 216.234 58.6277 216.303 58.592Z" fill="#FEFEFE"/>
<path d="M242.11 62.591C242.156 62.7612 242.239 62.8995 242.268 63.0579C242.342 63.4577 242.085 63.8093 241.678 63.8396C241.182 63.8767 240.769 63.6609 240.383 63.3848C239.972 63.0905 239.652 62.7259 239.537 62.2124C239.426 61.7089 239.601 61.3954 240.095 61.2388C240.367 61.1525 240.647 61.132 240.93 61.1312C241.796 61.1288 242.662 61.1239 243.527 61.1291C243.681 61.13 243.746 61.0994 243.736 60.9309C243.722 60.6815 243.728 60.4308 243.734 60.1808C243.737 60.0724 243.717 60.0205 243.589 60.0212C242.685 60.0266 241.78 60.0232 240.876 60.0249C240.682 60.0253 240.54 60.137 240.412 60.2672C240.336 60.345 240.299 60.335 240.248 60.2391C239.996 59.764 239.739 59.2916 239.48 58.82C239.414 58.6982 239.421 58.6263 239.58 58.6225C239.663 58.6206 239.746 58.612 239.829 58.612C242.702 58.6114 245.575 58.613 248.448 58.6077C248.613 58.6073 248.699 58.6525 248.766 58.8061C248.92 59.1576 249.094 59.5008 249.264 59.8451C249.328 59.9743 249.311 60.0311 249.153 60.026C248.916 60.0184 248.677 60.0352 248.441 60.0202C248.281 60.0101 248.255 60.0709 248.255 60.2147C248.26 61.7794 248.258 63.3442 248.258 64.9089C248.258 65.268 248.25 65.6274 248.262 65.9862C248.266 66.1329 248.207 66.1662 248.084 66.1442C248.034 66.1353 247.983 66.1231 247.939 66.101C247.384 65.824 246.829 65.5453 246.275 65.2659C246.225 65.2411 246.15 65.2276 246.154 65.1587C246.158 65.0925 246.229 65.0795 246.283 65.0611C246.551 64.9704 246.656 64.7825 246.655 64.503C246.65 63.0666 246.651 61.6301 246.656 60.1936C246.656 60.0607 246.621 60.0168 246.485 60.0211C246.178 60.0308 245.869 60.033 245.562 60.0204C245.407 60.0141 245.372 60.0635 245.372 60.2129C245.378 61.534 245.376 62.855 245.376 64.1761C245.376 64.7597 245.376 65.3433 245.376 65.9268C245.376 66.1674 245.303 66.2149 245.076 66.107C244.782 65.9667 244.491 65.8181 244.199 65.6718C243.93 65.537 243.662 65.4007 243.394 65.2642C243.345 65.239 243.274 65.2243 243.281 65.1519C243.286 65.0925 243.348 65.078 243.395 65.0634C243.687 64.9742 243.789 64.7654 243.787 64.4769C243.782 63.9062 243.782 63.3354 243.788 62.7647C243.79 62.6353 243.76 62.5858 243.62 62.588C243.121 62.5959 242.622 62.591 242.11 62.591Z" fill="#FEFEFE"/>
<path d="M235.923 63.2201C235.348 63.748 234.694 64.0134 233.899 63.8796C234.59 64.7925 235.461 65.4917 236.355 66.2024C236.152 66.2846 235.956 66.3639 235.76 66.4431C235.701 66.4668 235.664 66.4327 235.625 66.3967C234.493 65.3443 233.349 64.3035 232.425 63.0518C232.208 62.7573 232.018 62.4467 231.895 62.0985C231.796 61.8183 231.832 61.6242 232.024 61.4508C232.207 61.2857 232.462 61.2571 232.705 61.3834C232.984 61.5285 233.152 61.7663 233.222 62.0664C233.264 62.2511 233.358 62.3159 233.544 62.3079C233.858 62.2943 234.172 62.2847 234.473 62.1791C234.968 62.0056 235.147 61.6544 234.995 61.1526C234.874 60.7529 234.642 60.4159 234.385 60.0936C234.339 60.0351 234.285 60.0247 234.217 60.03C233.859 60.0576 233.501 60.0829 233.143 60.1082C232.954 60.1215 232.798 60.2048 232.672 60.3403C232.592 60.4254 232.546 60.4453 232.481 60.3221C232.23 59.8465 231.972 59.3747 231.713 58.9032C231.641 58.7725 231.672 58.7119 231.821 58.7114C231.904 58.711 231.988 58.7083 232.071 58.7083C233.95 58.7082 235.829 58.7087 237.709 58.7064C237.78 58.7063 237.884 58.7504 237.916 58.671C237.942 58.6045 237.861 58.5351 237.814 58.4746C237.211 57.6863 236.404 57.4336 235.447 57.5759C235.289 57.5994 235.132 57.6325 234.975 57.6614C234.697 57.7128 234.455 57.6469 234.256 57.4396C233.887 57.056 233.516 56.674 233.147 56.2906C233.109 56.2509 233.049 56.2137 233.082 56.1458C233.109 56.0898 233.167 56.0657 233.225 56.0616C233.275 56.058 233.332 56.0586 233.375 56.0796C233.861 56.3177 234.362 56.2239 234.864 56.1565C235.131 56.1207 235.4 56.0985 235.67 56.1079C236.144 56.1247 236.533 56.3298 236.864 56.6546C237.478 57.2566 238.074 57.8759 238.594 58.5622C238.685 58.682 238.792 58.675 238.899 58.6592C239.139 58.624 239.268 58.7165 239.359 58.9416C239.487 59.2617 239.649 59.569 239.803 59.8781C239.87 60.0125 239.866 60.071 239.691 60.0717C239.258 60.0732 239.258 60.079 239.258 60.5128C239.258 62.3344 239.258 64.1558 239.258 65.9774C239.258 66.2031 239.179 66.2583 238.967 66.1558C238.396 65.8805 237.83 65.5962 237.263 65.3144C237.217 65.2916 237.167 65.2616 237.162 65.2066C237.156 65.1402 237.222 65.126 237.266 65.113C237.589 65.0176 237.675 64.7812 237.667 64.4749C237.659 64.1416 237.661 63.8079 237.668 63.4745C237.67 63.3586 237.637 63.3197 237.517 63.3202C237.093 63.3219 236.686 63.384 236.325 63.6243C236.215 63.6983 236.154 63.6708 236.102 63.5626C236.049 63.4535 235.99 63.3474 235.923 63.2201Z" fill="#FEFEFE"/>
<path d="M229.76 61.2955C229.76 60.89 229.759 60.5128 229.761 60.1357C229.761 60.0547 229.732 60.023 229.649 60.0232C228.816 60.0253 227.982 60.0216 227.149 60.0273C226.973 60.0284 226.837 60.1382 226.721 60.2608C226.637 60.3496 226.598 60.3306 226.545 60.2299C226.293 59.7548 226.036 59.2826 225.778 58.811C225.715 58.6956 225.726 58.6293 225.872 58.6235C225.955 58.6203 226.038 58.6123 226.121 58.6123C227.769 58.6116 229.417 58.6144 231.064 58.6077C231.225 58.607 231.302 58.6608 231.365 58.8016C231.52 59.1459 231.692 59.4823 231.855 59.8229C231.942 60.0042 231.931 60.021 231.741 60.0242C231.318 60.0315 231.317 60.0315 231.32 60.4568C231.334 62.2839 231.347 64.111 231.361 65.9381C231.362 66.1556 231.286 66.2161 231.087 66.1205C230.505 65.8407 229.928 65.5487 229.351 65.2595C229.307 65.2375 229.255 65.2054 229.264 65.1462C229.272 65.0969 229.324 65.0826 229.366 65.0684C229.565 64.9996 229.722 64.8924 229.751 64.6623C229.764 64.5629 229.767 64.5016 229.627 64.5491C228.438 64.9514 227.498 64.5298 226.709 63.6446C226.353 63.2452 226.079 62.7898 225.858 62.303C225.576 61.6804 225.728 61.2076 226.348 60.9215C227.207 60.5246 228.117 60.4334 229.051 60.5641C229.203 60.5854 229.321 60.6617 229.402 60.8028C229.491 60.9578 229.599 61.102 229.7 61.2505C229.706 61.2596 229.718 61.2646 229.76 61.2955Z" fill="#FEFEFE"/>
<path d="M217.991 53.7119C218.599 53.2544 219.17 52.832 219.733 52.4001C220.2 52.0419 220.72 51.743 221.101 51.2852C221.485 50.8225 221.829 50.3265 222.206 49.8567C222.835 49.0722 223.572 48.4051 224.39 47.8171C225.116 47.2957 225.919 46.997 226.785 46.8472C227.284 46.761 227.758 46.8741 228.22 47.0758C228.58 47.2329 228.852 47.4827 229.082 47.7887C229.143 47.8709 229.217 47.8913 229.313 47.8907C229.826 47.8875 230.339 47.8935 230.852 47.8864C230.994 47.8845 231.056 47.911 231.051 48.073C231.039 48.4766 231.043 48.8809 231.05 49.2847C231.052 49.3954 231.016 49.4615 230.922 49.5171C230.713 49.6415 230.513 49.7811 230.302 49.9019C230.199 49.9611 230.169 50.0313 230.169 50.1473C230.173 51.2822 230.17 52.4172 230.174 53.5522C230.175 53.6844 230.141 53.7258 230.004 53.7257C226.048 53.7222 222.092 53.7228 218.135 53.7225C218.104 53.7223 218.073 53.718 217.991 53.7119Z" fill="#F27021"/>
<path d="M246.057 53.7227C245.937 53.7227 245.873 53.7227 245.809 53.7227C241.896 53.7227 237.984 53.7229 234.071 53.7222C233.786 53.7222 233.827 53.7478 233.827 53.4755C233.825 52.4171 233.824 51.3587 233.829 50.3004C233.83 50.1715 233.797 50.0875 233.684 50.0192C233.465 49.8868 233.187 49.7722 233.083 49.5595C232.986 49.3621 233.056 49.0823 233.054 48.8389C233.053 48.6337 233.066 48.4274 233.05 48.2234C233.035 48.0313 233.083 47.9602 233.294 47.9684C233.761 47.9866 234.23 47.9715 234.698 47.9761C234.798 47.9772 234.863 47.9462 234.925 47.8673C235.592 47.019 236.477 46.7997 237.498 46.9888C238.578 47.1887 239.466 47.7481 240.284 48.4531C240.982 49.0551 241.581 49.7413 242.158 50.4583C242.539 50.9313 242.939 51.3998 243.448 51.7629C244.283 52.3578 245.094 52.9866 245.914 53.6015C245.949 53.6269 245.98 53.6566 246.057 53.7227Z" fill="#F27021"/>
<path d="M230.311 53.6784C230.84 53.3801 231.368 53.0822 231.897 52.7833C231.954 52.7511 232.005 52.7228 232.073 52.7643C232.608 53.0889 233.144 53.4111 233.676 53.7496C232.554 53.6733 231.434 53.7529 230.311 53.6784Z" fill="#F26F21"/>
<path d="M224.366 58.6117C224.269 58.6117 224.205 58.6117 224.142 58.6117C221.852 58.6117 219.562 58.6101 217.273 58.6153C217.119 58.6157 217.029 58.5722 216.956 58.4353C216.843 58.2221 216.708 58.0201 216.571 57.7946C217.498 57.9279 218.371 57.7453 219.246 57.5787C220.064 57.423 220.878 57.242 221.716 57.2311C222.547 57.2202 223.324 57.3792 223.933 58.0076C224.098 58.1778 224.238 58.3662 224.366 58.6117Z" fill="#F27021"/>
<path d="M235.117 60.0242C235.892 60.0242 236.668 60.026 237.443 60.022C237.552 60.0214 237.569 60.0679 237.57 60.1596C237.58 60.6597 237.593 61.1598 237.61 61.6596C237.613 61.7661 237.584 61.8066 237.472 61.8051C237.042 61.7998 236.612 61.8024 236.183 61.8034C236.114 61.8035 236.067 61.7994 236.049 61.7102C235.919 61.0798 235.572 60.5711 235.139 60.112C235.122 60.0944 235.099 60.0791 235.117 60.0242Z" fill="#F27021"/>
<path d="M228.231 63.3158C227.797 63.3042 227.376 63.2371 226.996 63.0088C226.637 62.7925 226.642 62.5506 227.011 62.3423C227.351 62.1509 227.723 62.0573 228.104 61.9986C228.537 61.9319 228.971 61.9114 229.403 62.0144C229.722 62.0907 229.795 62.1998 229.697 62.516C229.611 62.7927 229.455 63.0199 229.169 63.1394C228.868 63.2657 228.552 63.304 228.231 63.3158Z" fill="#F27021"/>
</svg>
