<svg width="284" height="99" viewBox="0 0 284 99" fill="none" xmlns="http://www.w3.org/2000/svg">
<path d="M28.88 40.56V68.4H27.36L22.84 64.4L24.08 62.96V54.08H18.32C18 55.3067 17.3867 56.44 16.48 57.48C15.6 58.52 14.7733 59.04 14 59.04C13.2267 59.04 12.3333 58.6 11.32 57.72C10.3067 56.84 9.42667 55.8 8.68 54.6C7.96 53.4 7.6 52.4 7.6 51.6C7.6 51.0133 8.06667 50.6133 9 50.4C9.96 50.1867 11.68 50.08 14.16 50.08H24.12V40.56H3.64L0.6 38.08V36.56H32.52L35.32 39.04L35.28 40.56H28.88ZM44.7188 40.6C46.6654 43.8533 47.6388 47.2267 47.6388 50.72C47.6388 52.1067 47.3988 53.3867 46.9188 54.56C46.4388 55.7067 45.8254 56.6667 45.0788 57.44C44.3321 58.1867 43.5588 58.6933 42.7588 58.96L52.6388 67.68L51.3188 69.16L37.9188 57.32C36.9588 56.5467 36.1321 55.68 35.4388 54.72C34.7721 53.7333 34.4388 52.9067 34.4388 52.24C34.4388 51.5467 34.7054 51.0267 35.2388 50.68C35.7988 50.3067 36.5854 50.12 37.5987 50.12C38.8254 50.12 40.2788 50.36 41.9588 50.84C42.1188 49.9867 42.1988 49.0933 42.1988 48.16C42.1988 46.8 42.0388 45.44 41.7188 44.08C41.4254 42.72 41.0254 41.5467 40.5188 40.56H30.5187L27.4787 38.08V36.56H50.1188L53.1588 39.04L53.1988 40.6H44.7188ZM20.8753 22.68C22.7953 22.68 24.4753 23 25.9153 23.64C27.3286 24.2533 29.0486 25.4267 31.0753 27.16L42.5153 36.96L41.2353 38.48L30.5953 29.36C29.502 28.4267 28.382 27.7467 27.2353 27.32C26.0886 26.8667 24.7953 26.64 23.3553 26.64C22.1286 26.64 20.702 26.8133 19.0753 27.16L16.2753 24.68V23.16C17.822 22.84 19.3553 22.68 20.8753 22.68ZM43.5953 29.84H42.0753L38.7953 28.24V22.8H40.3153L43.5953 24.4V29.84ZM71.5303 70.12L67.5703 77.92H66.0503L62.7703 76.32L66.8903 68.12C64.4636 67.6933 62.2503 66.84 60.2503 65.56C58.2503 64.28 56.6636 62.72 55.4903 60.88C54.317 59.04 53.7303 57.0933 53.7303 55.04C53.7303 53.6267 54.1303 52.28 54.9303 51C55.7303 49.72 56.7836 48.7067 58.0903 47.96C59.397 47.1867 60.7836 46.8 62.2503 46.8H65.0903V40.56H49.9703L47.1703 38.08V36.56H77.4903L80.2903 39.04V40.56H69.8903V50.8H64.7703C62.9303 50.8 61.4103 51.3867 60.2103 52.56C59.037 53.7333 58.4503 55.2667 58.4503 57.16C58.4503 59.3733 58.9036 61.08 59.8103 62.28C60.717 63.4533 61.9436 64.04 63.4903 64.04C64.1036 64.04 64.7303 63.96 65.3703 63.8C65.077 62.52 64.9303 61.52 64.9303 60.8C64.9303 58.9867 65.7036 58.08 67.2503 58.08C68.317 58.08 69.437 58.4533 70.6103 59.2C71.8103 59.92 72.8103 60.84 73.6103 61.96C74.4103 63.08 74.8103 64.16 74.8103 65.2C74.8103 65.8667 74.5836 66.4667 74.1303 67C73.677 67.5067 73.037 67.88 72.2103 68.12L72.4503 68.24L82.4903 77.08L81.1703 78.6L71.5303 70.12Z" fill="black"/>
<path d="M146.52 40.56V68.4H145L140.48 64.4L141.72 62.96V54.08H133.72C133.373 55.28 132.747 56.4133 131.84 57.48C130.933 58.52 130.107 59.04 129.36 59.04C128.533 59.04 127.573 58.6133 126.48 57.76C125.413 56.9067 124.493 55.8933 123.72 54.72C122.947 53.52 122.56 52.48 122.56 51.6C122.56 51.0133 123.04 50.6133 124 50.4C124.987 50.1867 126.773 50.08 129.36 50.08V47C128.053 46.92 126.747 46.56 125.44 45.92C124.133 45.28 123.053 44.44 122.2 43.4C121.347 42.36 120.92 41.2533 120.92 40.08C120.92 38.8533 121.347 37.8267 122.2 37C123.08 36.1733 124.253 35.76 125.72 35.76C127.187 35.76 128.56 36.2 129.84 37.08C131.147 37.96 132.187 39.1467 132.96 40.64C133.76 42.1333 134.16 43.7467 134.16 45.48V50.08H141.72V40.56H139L136.2 38.08V36.56H150.12L152.92 39.04V40.56H146.52ZM126.12 42C126.12 42.5867 126.227 43.04 126.44 43.36C126.653 43.6533 126.96 43.8 127.36 43.8C128.08 43.8 128.747 43.5333 129.36 43C129.307 40.3067 128.893 38.96 128.12 38.96C127.507 38.96 127.013 39.2533 126.64 39.84C126.293 40.4 126.12 41.12 126.12 42ZM159.633 40.56V68.4H158.113L153.593 64.4L154.833 62.96V40.56H152.113L149.312 38.08V36.56H154.873L146.472 29.36C145.379 28.4267 144.259 27.7467 143.112 27.32C141.966 26.8667 140.672 26.64 139.232 26.64C138.006 26.64 136.579 26.8133 134.952 27.16L132.152 24.68V23.16C133.699 22.84 135.232 22.68 136.752 22.68C138.672 22.68 140.352 23 141.792 23.64C143.206 24.2533 144.926 25.4267 146.952 27.16L157.913 36.56H163.233L166.033 39.04V40.56H159.633ZM159.637 29.84H158.117L154.837 28.24V22.8H156.357L159.637 24.4V29.84ZM178.078 48C176.744 48 175.624 48.36 174.718 49.08C173.811 49.7733 173.358 50.6267 173.358 51.64C173.358 52.1467 173.518 52.6133 173.838 53.04C174.184 53.44 174.784 53.88 175.638 54.36C176.784 53.64 177.744 53.12 178.518 52.8C179.291 52.48 179.971 52.32 180.558 52.32C181.971 52.32 183.451 52.8 184.998 53.76C186.571 54.6933 187.878 55.8667 188.918 57.28C189.958 58.6667 190.478 60.0133 190.478 61.32C190.478 62.3067 189.824 63.36 188.518 64.48C187.211 65.6 185.584 66.5333 183.638 67.28C181.691 68.0267 179.838 68.4 178.078 68.4C176.931 68.4 175.651 68.2933 174.238 68.08L162.678 58.2L163.958 56.72L169.598 61.48C170.691 62.4133 171.851 63.0933 173.078 63.52C174.331 63.92 175.744 64.12 177.318 64.12C178.651 64.12 179.971 63.88 181.278 63.4C182.584 62.8933 183.651 62.2533 184.477 61.48C185.331 60.68 185.758 59.8933 185.758 59.12C185.758 58.56 185.491 58.0267 184.958 57.52C184.451 56.9867 183.904 56.72 183.318 56.72C182.064 56.72 180.464 57.2933 178.518 58.44C177.104 58.28 175.611 57.7067 174.038 56.72C172.491 55.7067 171.198 54.52 170.158 53.16C169.118 51.8 168.598 50.56 168.598 49.44C168.598 48.48 168.904 47.5867 169.518 46.76C170.158 45.9067 171.011 45.24 172.078 44.76C173.144 44.2533 174.291 44 175.518 44H181.958V40.56H160.837L158.037 38.08V36.56H191.958L194.758 39.04V40.56H186.758V48H178.078ZM163.877 22.68C165.797 22.68 167.477 23 168.917 23.64C170.331 24.2533 172.051 25.4267 174.077 27.16L185.517 36.96L184.237 38.48L173.597 29.36C172.504 28.4267 171.384 27.7467 170.237 27.32C169.091 26.8667 167.797 26.64 166.357 26.64C165.131 26.64 163.704 26.8133 162.077 27.16L159.277 24.68V23.16C160.824 22.84 162.357 22.68 163.877 22.68ZM210.711 47.04C211.804 46.3467 213.058 46 214.471 46C216.071 46 217.711 46.4267 219.391 47.28C221.098 48.1333 222.511 49.28 223.631 50.72C224.751 52.16 225.311 53.6933 225.311 55.32C225.311 56.4667 224.964 57.5333 224.271 58.52C223.578 59.48 222.618 60.24 221.391 60.8C220.191 61.36 218.831 61.64 217.311 61.64L214.511 59.16V57.64C214.991 57.72 215.458 57.76 215.911 57.76C217.244 57.76 218.271 57.3467 218.991 56.52C219.738 55.6933 220.111 54.6533 220.111 53.4C220.111 52.04 219.844 51 219.311 50.28C218.778 49.56 217.964 49.2 216.871 49.2C216.044 49.2 215.311 49.3867 214.671 49.76C214.058 50.1333 213.524 50.5867 213.071 51.12C212.644 51.6267 212.138 52.32 211.551 53.2L210.871 54.2L210.751 54.44V68.4H209.231L204.711 64.4L205.951 62.96V60.68C204.964 61.3467 203.751 61.68 202.311 61.68C200.711 61.68 199.058 61.2533 197.351 60.4C195.671 59.5467 194.271 58.4 193.151 56.96C192.031 55.52 191.471 53.9867 191.471 52.36C191.471 51.2133 191.818 50.16 192.511 49.2C193.204 48.2133 194.151 47.44 195.351 46.88C196.578 46.32 197.951 46.04 199.471 46.04L202.271 48.52V50.04C201.791 49.96 201.324 49.92 200.871 49.92C199.538 49.92 198.498 50.3333 197.751 51.16C197.031 51.9867 196.671 53.0267 196.671 54.28C196.671 55.64 196.938 56.68 197.471 57.4C198.004 58.12 198.818 58.48 199.911 58.48C200.738 58.48 201.458 58.2933 202.071 57.92C202.711 57.5467 203.244 57.1067 203.671 56.6C204.124 56.0667 204.644 55.36 205.231 54.48L205.911 53.48L206.031 53.36V40.56H188.111L185.311 38.08V36.56H228.791L231.591 39.04V40.56L210.711 40.52V47.04ZM239.813 40.6C241.759 43.8533 242.733 47.2267 242.733 50.72C242.733 52.1067 242.493 53.3867 242.013 54.56C241.533 55.7067 240.919 56.6667 240.173 57.44C239.426 58.1867 238.653 58.6933 237.853 58.96L247.733 67.68L246.413 69.16L233.013 57.32C232.053 56.5467 231.226 55.68 230.533 54.72C229.866 53.7333 229.533 52.9067 229.533 52.24C229.533 51.5467 229.799 51.0267 230.333 50.68C230.893 50.3067 231.679 50.12 232.692 50.12C233.919 50.12 235.373 50.36 237.053 50.84C237.213 49.9867 237.293 49.0933 237.293 48.16C237.293 46.8 237.133 45.44 236.812 44.08C236.519 42.72 236.119 41.5467 235.613 40.56H225.612L222.572 38.08V36.56H245.213L248.253 39.04L248.293 40.6H239.813Z" fill="black"/>
<path d="M37.14 92H36.59V80.14H37.14V92ZM55.2395 83.12V90.08H54.8595L53.7295 89.08L54.0395 88.72V83.12H51.9595V90.08H51.5795L50.4495 89.08L50.7595 88.72V86.65C50.5395 86.8233 50.3129 86.95 50.0795 87.03C49.8529 87.1033 49.5962 87.14 49.3095 87.14C48.9562 87.14 48.6029 87.0667 48.2495 86.92C48.2629 87 48.2695 87.06 48.2695 87.1C48.2762 87.34 48.1862 87.58 47.9995 87.82C47.8129 88.0533 47.5729 88.2467 47.2795 88.4C46.9862 88.5533 46.6862 88.63 46.3795 88.63C46.2662 88.63 46.1295 88.6233 45.9695 88.61C45.8095 88.59 45.6895 88.57 45.6095 88.55L43.3995 86.6L43.7195 86.22L44.2695 86.7C44.9229 87.2733 45.5029 87.56 46.0095 87.56C46.3229 87.5467 46.5795 87.46 46.7795 87.3C46.9862 87.14 47.0895 86.94 47.0895 86.7C47.0895 86.5 46.9762 86.2833 46.7495 86.05C46.5229 85.8167 46.1529 85.54 45.6395 85.22V84.84C45.9995 84.68 46.2729 84.49 46.4595 84.27C46.6462 84.0433 46.7395 83.7967 46.7395 83.53C46.7395 83.3367 46.6929 83.19 46.5995 83.09C46.5129 82.9833 46.3862 82.93 46.2195 82.93C45.9995 82.93 45.7329 83.0133 45.4195 83.18C45.1129 83.34 44.7995 83.5633 44.4795 83.85L43.7795 83.23V82.85C44.0795 82.59 44.3862 82.39 44.6995 82.25C45.0195 82.1033 45.3162 82.03 45.5895 82.03C45.9295 82.03 46.2829 82.14 46.6495 82.36C47.0162 82.5733 47.3229 82.8433 47.5695 83.17C47.8162 83.4967 47.9395 83.8067 47.9395 84.1C47.9395 84.38 47.8495 84.65 47.6695 84.91C47.4962 85.17 47.2595 85.3833 46.9595 85.55C47.1129 85.65 47.2729 85.7667 47.4395 85.9C47.6795 86.0667 47.8962 86.1867 48.0895 86.26C48.2895 86.3267 48.4795 86.36 48.6595 86.36C49.0129 86.36 49.3495 86.2567 49.6695 86.05C49.9895 85.8367 50.3529 85.4767 50.7595 84.97V83.14H49.1195L48.4195 82.52V82.14H56.1395L56.8395 82.76V83.12H55.2395ZM63.0775 83.14V90.1H62.6975L61.5675 89.1L61.8775 88.74V86.52H59.3775C59.2908 86.82 59.1342 87.1033 58.9075 87.37C58.6808 87.63 58.4742 87.76 58.2875 87.76C58.0808 87.76 57.8408 87.6533 57.5675 87.44C57.3008 87.2267 57.0708 86.9733 56.8775 86.68C56.6842 86.38 56.5875 86.12 56.5875 85.9C56.5875 85.7533 56.7075 85.6533 56.9475 85.6C57.1942 85.5467 57.6408 85.52 58.2875 85.52V83.14H55.5775L54.8375 82.52V82.14H63.9775L64.6775 82.76V83.14H63.0775ZM61.8775 83.14H59.4875V85.52H61.8675L61.8775 85.53V83.14ZM67.5693 85.7C67.1093 85.7 66.7293 85.8467 66.4293 86.14C66.136 86.4333 65.9893 86.8167 65.9893 87.29C65.9893 87.8433 66.1026 88.27 66.3293 88.57C66.556 88.8633 66.8626 89.01 67.2493 89.01C67.4026 89.01 67.5593 88.99 67.7193 88.95C67.646 88.63 67.6093 88.38 67.6093 88.2C67.6093 87.7467 67.8026 87.52 68.1893 87.52C68.456 87.52 68.736 87.6133 69.0293 87.8C69.3293 87.98 69.5793 88.21 69.7793 88.49C69.9793 88.77 70.0793 89.04 70.0793 89.3C70.0793 89.4933 70.006 89.66 69.8593 89.8C69.7126 89.94 69.5093 90.0333 69.2493 90.08L70.9193 91.55L70.5893 91.92L68.5093 90.08C67.8493 90.02 67.236 89.8333 66.6693 89.52C66.1026 89.2 65.6526 88.7967 65.3193 88.31C64.986 87.8233 64.8193 87.3067 64.8193 86.76C64.8193 86.4067 64.9193 86.07 65.1193 85.75C65.3193 85.43 65.5826 85.1767 65.9093 84.99C66.236 84.7967 66.5826 84.7 66.9493 84.7H67.6593V83.14H63.8793L63.1793 82.52V82.14H70.7593L71.4593 82.76V83.14H68.8593V85.7H67.5693ZM73.1366 83.14V90.1H72.7566L71.6266 89.1L71.9366 88.74V83.14H71.2566L70.5566 82.52V82.14H74.0366L74.7366 82.76V83.14H73.1366ZM77.0879 83.15C77.5746 83.9633 77.8179 84.8067 77.8179 85.68C77.8179 86.0267 77.7579 86.3467 77.6379 86.64C77.5179 86.9267 77.3646 87.1667 77.1779 87.36C76.9912 87.5467 76.7979 87.6733 76.5979 87.74L79.0679 89.92L78.7379 90.29L75.3879 87.33C75.1479 87.1367 74.9412 86.92 74.7679 86.68C74.6012 86.4333 74.5179 86.2267 74.5179 86.06C74.5179 85.8867 74.5846 85.7567 74.7179 85.67C74.8579 85.5767 75.0546 85.53 75.3079 85.53C75.6146 85.53 75.9779 85.59 76.3979 85.71C76.4379 85.4967 76.4579 85.2733 76.4579 85.04C76.4579 84.7 76.4179 84.36 76.3379 84.02C76.2646 83.68 76.1646 83.3867 76.0379 83.14H73.5379L72.7779 82.52V82.14H78.4379L79.1979 82.76L79.2079 83.15H77.0879ZM88.9698 83.14V90.1H88.5898L87.4598 89.1L87.7698 88.74V86.52H85.7698C85.6832 86.82 85.5265 87.1033 85.2998 87.37C85.0732 87.63 84.8665 87.76 84.6798 87.76C84.4732 87.76 84.2332 87.6533 83.9598 87.44C83.6932 87.2267 83.4632 86.9733 83.2698 86.68C83.0765 86.38 82.9798 86.12 82.9798 85.9C82.9798 85.7533 83.0998 85.6533 83.3398 85.6C83.5865 85.5467 84.0332 85.52 84.6798 85.52V84.75C84.3532 84.73 84.0265 84.64 83.6998 84.48C83.3732 84.32 83.1032 84.11 82.8898 83.85C82.6765 83.59 82.5698 83.3133 82.5698 83.02C82.5698 82.7133 82.6765 82.4567 82.8898 82.25C83.1098 82.0433 83.4032 81.94 83.7698 81.94C84.1365 81.94 84.4798 82.05 84.7998 82.27C85.1265 82.49 85.3865 82.7867 85.5798 83.16C85.7798 83.5333 85.8798 83.9367 85.8798 84.37V85.52H87.7698V83.14H87.0898L86.3898 82.52V82.14H89.8698L90.5698 82.76V83.14H88.9698ZM83.8698 83.5C83.8698 83.6467 83.8965 83.76 83.9498 83.84C84.0032 83.9133 84.0798 83.95 84.1798 83.95C84.3598 83.95 84.5265 83.8833 84.6798 83.75C84.6665 83.0767 84.5632 82.74 84.3698 82.74C84.2165 82.74 84.0932 82.8133 83.9998 82.96C83.9132 83.1 83.8698 83.28 83.8698 83.5ZM88.968 80.46H88.588L87.768 80.06V78.7H88.148L88.968 79.1V80.46ZM93.578 85C93.2446 85 92.9646 85.09 92.738 85.27C92.5113 85.4433 92.398 85.6567 92.398 85.91C92.398 86.0367 92.438 86.1533 92.518 86.26C92.6046 86.36 92.7546 86.47 92.968 86.59C93.2546 86.41 93.4946 86.28 93.688 86.2C93.8813 86.12 94.0513 86.08 94.198 86.08C94.5513 86.08 94.9213 86.2 95.308 86.44C95.7013 86.6733 96.028 86.9667 96.288 87.32C96.548 87.6667 96.678 88.0033 96.678 88.33C96.678 88.5767 96.5146 88.84 96.188 89.12C95.8613 89.4 95.4546 89.6333 94.968 89.82C94.4813 90.0067 94.018 90.1 93.578 90.1C93.2913 90.1 92.9713 90.0733 92.618 90.02L89.728 87.55L90.048 87.18L91.458 88.37C91.7313 88.6033 92.0213 88.7733 92.328 88.88C92.6413 88.98 92.9946 89.03 93.388 89.03C93.7213 89.03 94.0513 88.97 94.378 88.85C94.7046 88.7233 94.9713 88.5633 95.178 88.37C95.3913 88.17 95.498 87.9733 95.498 87.78C95.498 87.64 95.4313 87.5067 95.298 87.38C95.1713 87.2467 95.0346 87.18 94.888 87.18C94.5746 87.18 94.1746 87.3233 93.688 87.61C93.3346 87.57 92.9613 87.4267 92.568 87.18C92.1813 86.9267 91.858 86.63 91.598 86.29C91.338 85.95 91.208 85.64 91.208 85.36C91.208 85.12 91.2846 84.8967 91.438 84.69C91.598 84.4767 91.8113 84.31 92.078 84.19C92.3446 84.0633 92.6313 84 92.938 84H94.548V83.14H89.268L88.568 82.52V82.14H97.048L97.748 82.76V83.14H95.748V85H93.578ZM99.3671 83.14V90.1H98.9871L97.8571 89.1L98.1671 88.74V83.14H97.4871L96.7871 82.52V82.14H100.267L100.967 82.76V83.14H99.3671ZM103.318 83.15C103.805 83.9633 104.048 84.8067 104.048 85.68C104.048 86.0267 103.988 86.3467 103.868 86.64C103.748 86.9267 103.595 87.1667 103.408 87.36C103.222 87.5467 103.028 87.6733 102.828 87.74L105.298 89.92L104.968 90.29L101.618 87.33C101.378 87.1367 101.172 86.92 100.998 86.68C100.832 86.4333 100.748 86.2267 100.748 86.06C100.748 85.8867 100.815 85.7567 100.948 85.67C101.088 85.5767 101.285 85.53 101.538 85.53C101.845 85.53 102.208 85.59 102.628 85.71C102.668 85.4967 102.688 85.2733 102.688 85.04C102.688 84.7 102.648 84.36 102.568 84.02C102.495 83.68 102.395 83.3867 102.268 83.14H99.7684L99.0084 82.52V82.14H104.668L105.428 82.76L105.438 83.15H103.318ZM107.111 83.14V90.1H106.731L105.601 89.1L105.911 88.74V83.14H105.231L104.531 82.52V82.14H108.011L108.711 82.76V83.14H107.111ZM113.092 86.32H109.613L108.913 85.7V85.32H112.393L113.092 85.94V86.32ZM120.984 83.14H119.384V90.1H119.004L117.874 89.1L118.184 88.74V87.21C117.904 87.4167 117.567 87.52 117.174 87.52C116.774 87.52 116.36 87.4133 115.934 87.2C115.514 86.9867 115.164 86.7 114.884 86.34C114.61 85.98 114.474 85.5967 114.474 85.19V83.14H113.694L112.994 82.52V82.14H120.274L120.984 82.76V83.14ZM115.684 83.14V85.53C115.684 86.3233 115.984 86.72 116.584 86.72C116.804 86.72 117 86.6667 117.174 86.56C117.347 86.4467 117.5 86.3033 117.634 86.13C117.774 85.95 117.957 85.6867 118.184 85.34V83.14H115.684ZM127.468 83.14H125.868V90.1H125.488L124.358 89.1L124.668 88.74V88.11C124.388 88.3167 124.051 88.42 123.658 88.42C123.258 88.42 122.845 88.3133 122.418 88.1C121.998 87.8867 121.648 87.6 121.368 87.24C121.088 86.88 120.948 86.4967 120.948 86.09C120.948 85.8033 121.035 85.54 121.208 85.3C121.381 85.0533 121.618 84.86 121.918 84.72C122.225 84.58 122.568 84.51 122.948 84.51L123.648 85.13V85.51C123.528 85.49 123.411 85.48 123.298 85.48C122.965 85.48 122.705 85.5833 122.518 85.79C122.338 85.9967 122.248 86.2567 122.248 86.57C122.248 86.91 122.315 87.17 122.448 87.35C122.581 87.53 122.785 87.62 123.058 87.62C123.278 87.62 123.475 87.5667 123.648 87.46C123.821 87.3467 123.975 87.2033 124.108 87.03C124.248 86.85 124.431 86.5867 124.658 86.24V83.14H120.178L119.478 82.52V82.14H126.758L127.468 82.76V83.14ZM132.533 83.14V90.1H132.153L131.023 89.1L131.333 88.74V86.52H129.893C129.813 86.8267 129.659 87.11 129.433 87.37C129.213 87.63 129.006 87.76 128.813 87.76C128.619 87.76 128.396 87.65 128.143 87.43C127.889 87.21 127.669 86.95 127.483 86.65C127.303 86.35 127.213 86.1 127.213 85.9C127.213 85.7533 127.329 85.6533 127.563 85.6C127.803 85.5467 128.233 85.52 128.853 85.52H131.343V83.14H126.222L125.462 82.52V82.14H133.443L134.143 82.76L134.133 83.14H132.533ZM135.812 83.14V90.1H135.432L134.302 89.1L134.612 88.74V83.14H133.932L133.232 82.52V82.14H134.602C134.189 81.4933 133.799 81.0233 133.432 80.73C133.066 80.43 132.709 80.28 132.362 80.28C132.196 80.28 132.072 80.3267 131.992 80.42C131.912 80.5067 131.872 80.6267 131.872 80.78C131.872 81.0267 131.962 81.32 132.142 81.66C132.322 81.9933 132.559 82.3033 132.852 82.59H132.252C131.712 82.1967 131.309 81.8067 131.042 81.42C130.776 81.0333 130.642 80.6767 130.642 80.35C130.642 80.03 130.762 79.7733 131.002 79.58C131.236 79.3867 131.549 79.29 131.942 79.29C132.542 79.29 133.096 79.51 133.602 79.95C134.116 80.3833 134.656 81.1133 135.222 82.14H136.722L137.422 82.76L137.412 83.14H135.812ZM148.223 83.14V90.1H147.843L146.713 89.1L147.023 88.74V86.27C146.503 86.5767 146.023 86.73 145.583 86.73C145.369 86.73 145.189 86.7033 145.043 86.65L144.023 85.85C143.676 86.1367 143.399 86.3733 143.193 86.56C142.993 86.7467 142.823 86.9467 142.683 87.16C142.543 87.3733 142.473 87.59 142.473 87.81C142.473 88.1967 142.569 88.4867 142.763 88.68C142.956 88.8733 143.209 88.97 143.523 88.97C143.609 88.97 143.673 88.9667 143.713 88.96C143.639 88.6267 143.603 88.37 143.603 88.19C143.603 87.7367 143.796 87.51 144.183 87.51C144.449 87.51 144.729 87.6033 145.023 87.79C145.323 87.97 145.573 88.2 145.773 88.48C145.973 88.76 146.073 89.03 146.073 89.29C146.073 89.4833 145.996 89.65 145.843 89.79C145.689 89.93 145.483 90.02 145.223 90.06L146.893 91.53L146.562 91.9L144.473 90.06C143.899 90 143.369 89.8367 142.882 89.57C142.403 89.2967 142.019 88.9567 141.733 88.55C141.446 88.1367 141.303 87.7 141.303 87.24C141.303 87 141.376 86.7667 141.523 86.54C141.669 86.3067 141.846 86.0967 142.053 85.91C142.266 85.7167 142.549 85.4767 142.903 85.19L143.103 85.03C142.716 84.71 142.436 84.4333 142.263 84.2C142.089 83.96 142.003 83.6967 142.003 83.41C142.003 83.1633 142.076 82.9267 142.223 82.7C142.376 82.4667 142.569 82.28 142.803 82.14C143.036 82 143.269 81.93 143.503 81.93C143.823 81.93 144.143 82.0367 144.463 82.25C144.783 82.4633 145.043 82.73 145.243 83.05C145.449 83.37 145.553 83.6733 145.553 83.96C145.553 84.2 145.466 84.44 145.293 84.68C145.119 84.9133 144.876 85.1633 144.563 85.43C144.676 85.49 144.779 85.53 144.873 85.55C144.973 85.57 145.086 85.58 145.213 85.58C145.473 85.58 145.749 85.5133 146.043 85.38C146.336 85.2467 146.673 85.0367 147.053 84.75V83.14H146.373L145.673 82.52V82.14H149.153L149.853 82.76L149.823 83.14H148.223ZM143.273 83.69C143.273 83.9033 143.293 84.0833 143.333 84.23C143.379 84.3767 143.453 84.5133 143.553 84.64C143.813 84.4067 144.016 84.18 144.163 83.96C144.309 83.74 144.383 83.5167 144.383 83.29C144.383 83.1633 144.346 83.04 144.273 82.92C144.199 82.8 144.099 82.74 143.973 82.74C143.766 82.74 143.596 82.8467 143.463 83.06C143.336 83.2667 143.273 83.48 143.273 83.7V83.69ZM142.528 78.67C143.008 78.67 143.428 78.75 143.788 78.91C144.141 79.0633 144.571 79.3567 145.078 79.79L147.938 82.24L147.618 82.62L144.958 80.34C144.685 80.1067 144.405 79.9367 144.118 79.83C143.831 79.7167 143.508 79.66 143.148 79.66C142.841 79.66 142.485 79.7033 142.078 79.79L141.378 79.17V78.79C141.765 78.71 142.148 78.67 142.528 78.67ZM155.315 83.15V90.11H154.935L153.805 89.11L154.115 88.75V86.74C153.255 87.3867 152.425 87.9267 151.625 88.36L150.925 87.74V87.36C151.625 87.0133 152.382 86.54 153.195 85.94L153.145 85.9C152.972 85.7533 152.818 85.6533 152.685 85.6C152.558 85.54 152.432 85.51 152.305 85.51C151.992 85.51 151.685 85.5933 151.385 85.76C151.092 85.92 150.645 86.2233 150.045 86.67L149.345 86.05V85.67C149.885 85.29 150.328 85.02 150.675 84.86C151.028 84.6933 151.338 84.61 151.605 84.61C151.892 84.61 152.142 84.6567 152.355 84.75C152.575 84.8367 152.862 85.0267 153.215 85.32L153.595 85.64C153.775 85.5 153.945 85.36 154.105 85.22V83.14H148.955L148.255 82.52V82.14H156.205L156.905 82.76L156.915 83.15H155.315ZM161.935 92H161.385V80.14H161.935V92Z" fill="black"/>
<path d="M99.9971 33C111.548 32.9923 120.995 42.4372 121 53.9969C121.005 65.5529 111.563 74.9982 100.004 75.0003C88.4487 75.0025 79.003 65.5608 79 54.0049C78.997 42.4513 88.4371 33.0077 99.9971 33Z" fill="#F16F21"/>
<path d="M99.1316 39.354C98.561 39.5909 98.0091 39.82 97.4032 40.0716C98.2877 38.2736 99.1701 36.5399 100.093 34.7837C100.991 36.5478 101.873 38.2799 102.755 40.0113C102.695 40.069 102.652 40.0144 102.613 39.9987C102.149 39.815 101.686 39.6277 101.224 39.4399C101.11 39.3939 101.05 39.3825 101.05 39.5504C101.056 41.5709 101.055 43.5914 101.051 45.6119C101.051 45.7445 101.087 45.77 101.219 45.787C101.663 45.8446 102.007 45.7026 102.334 45.3941C102.705 45.0441 103.181 44.8617 103.673 44.7149C104.374 44.506 105.08 44.4937 105.781 44.6398C106.197 44.7265 106.602 44.8792 107.005 45.0266C108.359 45.5214 109.449 46.3805 110.388 47.4512C110.557 47.644 110.725 47.838 110.896 48.0293C111.251 48.4266 111.585 48.8353 111.843 49.3079C112.128 49.8293 112.557 50.2454 112.956 50.6778C113.521 51.2898 114.116 51.8683 114.789 52.3711C115.268 52.7285 115.742 53.0879 116.28 53.3429C116.726 53.5544 117.176 53.7875 117.704 53.7271C117.813 53.7146 117.865 53.6873 117.916 53.5855C118.148 53.1203 118.737 52.9101 119.189 53.2343C119.215 53.2526 119.244 53.2661 119.273 53.279C119.626 53.4366 119.732 53.6378 119.689 54.0169C119.653 54.3306 119.575 54.6168 119.336 54.8442C119.262 54.9152 119.195 54.9681 119.088 54.9552C119.037 54.9492 118.985 54.9542 118.934 54.9542C106.317 54.9542 93.7003 54.9542 81.0834 54.9542C80.681 54.9542 80.4482 54.7906 80.3395 54.3974C80.2538 54.087 80.1894 53.762 80.43 53.4865C80.7107 53.1651 81.0863 53.0906 81.4875 53.1555C81.6539 53.1825 81.8581 53.1477 81.9683 53.3382C81.9843 53.3658 82.0217 53.3908 82.0211 53.4165C82.0156 53.6955 82.2023 53.6726 82.397 53.6813C82.8296 53.7005 83.2232 53.5403 83.5966 53.3784C84.4489 53.0086 85.1932 52.457 85.87 51.8245C86.5497 51.1893 87.1868 50.5108 87.7781 49.7918C88.0996 49.4008 88.3325 48.945 88.66 48.5567C89.4422 47.6291 90.2417 46.7205 91.2249 45.9929C92.1351 45.3193 93.1433 44.8616 94.251 44.6466C94.9578 44.5094 95.6709 44.4777 96.3782 44.7123C96.7824 44.8464 97.2211 44.8808 97.5622 45.1763C97.7512 45.3399 97.949 45.4933 98.1369 45.6581C98.1985 45.7121 98.2556 45.7434 98.3398 45.7413C98.5578 45.736 98.7761 45.734 98.9939 45.7419C99.1051 45.7459 99.1366 45.7074 99.134 45.5996C99.1275 45.3239 99.1319 45.0481 99.1319 44.7722C99.1319 43.0404 99.1319 41.3085 99.1319 39.5766C99.1315 39.5079 99.1316 39.4391 99.1316 39.354Z" fill="#131518"/>
<path d="M84.3025 58.592C84.3005 58.5095 84.2459 58.4511 84.2101 58.3856C83.8692 57.7619 83.531 57.1366 83.1806 56.5183C83.1011 56.3779 83.1498 56.3422 83.2746 56.3275C83.3375 56.3201 83.4045 56.3119 83.4649 56.3254C84.4383 56.5436 85.401 56.4431 86.3568 56.2218C87.2816 56.0076 88.2028 55.7947 89.1652 55.86C90.0293 55.9186 90.7806 56.2328 91.4229 56.8046C91.85 57.1848 92.2027 57.6373 92.5886 58.0573C92.7406 58.2226 92.8962 58.3834 93.0681 58.5288C93.1698 58.6149 93.2715 58.6831 93.4125 58.6633C93.4838 58.6533 93.5288 58.6827 93.5627 58.7518C93.7462 59.125 93.9343 59.496 94.1226 59.867C94.1793 59.9789 94.1615 60.0322 94.0236 60.0257C93.8828 60.0191 93.7412 60.03 93.6005 60.0225C93.4986 60.017 93.4678 60.0533 93.4699 60.1537C93.4762 60.455 93.4726 60.7564 93.4748 61.0579C93.487 62.6804 93.5 64.3028 93.5121 65.9253C93.5139 66.1691 93.4339 66.2164 93.1978 66.1004C92.7208 65.8662 92.2452 65.6291 91.7724 65.3865C91.6547 65.3261 91.463 65.3095 91.4394 65.1859C91.4071 65.0161 91.6321 65.0596 91.7227 64.9747C91.8097 64.8931 91.8857 64.811 91.8998 64.6887C91.9101 64.5997 91.9211 64.5102 91.9212 64.4209C91.9225 63.0228 91.9197 61.6247 91.9255 60.2266C91.926 60.0733 91.8963 60.0182 91.7288 60.0201C90.9273 60.0294 90.1255 60.0271 89.3239 60.0216C89.1845 60.0207 89.1355 60.0444 89.1212 60.2045C89.0952 60.496 89.1692 60.6568 89.469 60.7647C89.8488 60.9013 90.1347 61.1964 90.3674 61.5248C90.7909 62.1224 91.1685 62.749 91.3617 63.4621C91.4943 63.9513 91.317 64.3596 90.8932 64.6431C90.5112 64.8987 90.076 65.0008 89.6289 65.0637C89.5348 65.077 89.4404 65.0882 89.3156 65.1042C89.6965 65.6623 90.1967 66.0347 90.798 66.3394C90.5644 66.4576 90.3527 66.5697 90.1363 66.672C90.0474 66.7141 89.993 66.6329 89.9435 66.5798C89.6199 66.2328 89.2958 65.8862 88.9802 65.5321C88.755 65.2793 88.5004 65.0854 88.1794 64.9569C87.5935 64.7223 87.0472 64.413 86.6039 63.9501C86.4382 63.7772 86.3047 63.5835 86.2347 63.3505C86.1694 63.133 86.1843 62.9278 86.344 62.7572C86.5113 62.5783 86.7293 62.5607 86.9496 62.6212C87.3746 62.7378 87.6421 63.0464 87.8478 63.4119C87.9108 63.5238 87.9821 63.5802 88.1037 63.6132C88.6106 63.751 89.1007 63.7053 89.5949 63.5385C89.8109 63.4656 90.0112 63.3807 90.186 63.2375C90.5773 62.9169 90.5617 62.5524 90.1433 62.2631C89.858 62.0658 89.5327 61.9676 89.1958 61.9143C88.526 61.8082 87.8794 61.8726 87.2824 62.2223C87.1914 62.2756 87.1417 62.2503 87.0948 62.1724C86.8702 61.7993 86.6461 61.4258 86.4194 61.0538C86.3529 60.9446 86.4172 60.9036 86.5048 60.8713C86.812 60.758 87.1264 60.6687 87.453 60.6396C87.5756 60.6287 87.629 60.6035 87.6278 60.463C87.6238 60.0246 87.6307 60.0245 87.1889 60.0245C86.849 60.0245 86.5091 60.0245 86.1692 60.0245C85.8914 60.0245 85.8914 60.0245 85.8914 60.2929C85.8914 62.172 85.8914 64.0511 85.8914 65.9302C85.8914 66.1539 85.8214 66.2163 85.6244 66.1248C85.0556 65.8607 84.4935 65.5824 83.9294 65.3082C83.8835 65.2859 83.8326 65.2512 83.8357 65.1963C83.8389 65.1392 83.8972 65.1176 83.9455 65.1011C84.2553 64.9953 84.3465 64.7674 84.3449 64.4573C84.3377 63.0592 84.34 61.6611 84.3443 60.263C84.3447 60.1155 84.3227 60.0517 84.154 60.0933C83.9853 60.135 83.8121 60.1578 83.6763 60.2768C83.5832 60.3585 83.5437 60.3175 83.495 60.2263C83.2444 59.7577 82.99 59.2911 82.7326 58.826C82.6569 58.6892 82.6829 58.623 82.8438 58.6218C83.2605 58.6188 83.6772 58.6162 84.094 58.6112C84.1624 58.6101 84.2337 58.6277 84.3025 58.592Z" fill="#FEFEFE"/>
<path d="M110.11 62.591C110.156 62.7612 110.239 62.8995 110.268 63.0579C110.342 63.4577 110.085 63.8093 109.678 63.8396C109.182 63.8767 108.769 63.6609 108.383 63.3848C107.972 63.0905 107.652 62.7259 107.537 62.2124C107.426 61.709 107.601 61.3954 108.095 61.2388C108.367 61.1525 108.647 61.132 108.93 61.1312C109.796 61.1288 110.662 61.1239 111.527 61.1291C111.681 61.13 111.746 61.0994 111.736 60.9309C111.722 60.6815 111.728 60.4308 111.734 60.1808C111.737 60.0724 111.717 60.0205 111.589 60.0212C110.685 60.0266 109.78 60.0232 108.876 60.0249C108.682 60.0253 108.54 60.137 108.412 60.2672C108.336 60.345 108.299 60.335 108.248 60.2391C107.996 59.764 107.739 59.2916 107.48 58.82C107.414 58.6982 107.421 58.6263 107.58 58.6225C107.663 58.6206 107.746 58.612 107.829 58.612C110.702 58.6114 113.575 58.613 116.448 58.6077C116.613 58.6073 116.699 58.6525 116.766 58.8061C116.92 59.1576 117.094 59.5008 117.264 59.8451C117.328 59.9743 117.311 60.0311 117.153 60.026C116.916 60.0184 116.677 60.0352 116.441 60.0202C116.281 60.0101 116.255 60.0709 116.255 60.2147C116.26 61.7794 116.258 63.3442 116.258 64.9089C116.258 65.268 116.25 65.6274 116.262 65.9862C116.266 66.1329 116.207 66.1662 116.084 66.1442C116.034 66.1353 115.983 66.1231 115.939 66.101C115.384 65.824 114.829 65.5453 114.275 65.2659C114.225 65.2411 114.15 65.2276 114.154 65.1587C114.158 65.0925 114.229 65.0795 114.283 65.0611C114.551 64.9704 114.656 64.7825 114.655 64.503C114.65 63.0666 114.651 61.6301 114.656 60.1936C114.656 60.0607 114.621 60.0168 114.485 60.0211C114.178 60.0308 113.869 60.033 113.562 60.0204C113.407 60.0141 113.372 60.0635 113.372 60.2129C113.378 61.534 113.376 62.855 113.376 64.1761C113.376 64.7597 113.376 65.3433 113.376 65.9268C113.376 66.1674 113.303 66.2149 113.076 66.107C112.782 65.9667 112.491 65.8181 112.199 65.6718C111.93 65.537 111.662 65.4007 111.394 65.2642C111.345 65.239 111.274 65.2243 111.281 65.1519C111.286 65.0925 111.348 65.078 111.395 65.0634C111.687 64.9742 111.789 64.7654 111.787 64.4769C111.782 63.9062 111.782 63.3354 111.788 62.7647C111.79 62.6353 111.76 62.5858 111.62 62.588C111.121 62.5959 110.622 62.591 110.11 62.591Z" fill="#FEFEFE"/>
<path d="M103.923 63.2201C103.348 63.748 102.694 64.0134 101.899 63.8796C102.59 64.7925 103.461 65.4917 104.355 66.2024C104.152 66.2846 103.956 66.3639 103.76 66.4431C103.701 66.4668 103.664 66.4327 103.625 66.3967C102.493 65.3443 101.349 64.3035 100.425 63.0518C100.208 62.7573 100.018 62.4467 99.8948 62.0985C99.7959 61.8183 99.8318 61.6242 100.024 61.4508C100.207 61.2857 100.462 61.2571 100.705 61.3834C100.984 61.5285 101.152 61.7663 101.222 62.0664C101.264 62.2511 101.358 62.3159 101.544 62.3079C101.858 62.2943 102.172 62.2847 102.473 62.1791C102.968 62.0056 103.147 61.6544 102.995 61.1526C102.874 60.7529 102.642 60.4159 102.385 60.0936C102.339 60.0351 102.285 60.0247 102.217 60.03C101.859 60.0576 101.501 60.0829 101.143 60.1082C100.954 60.1215 100.798 60.2048 100.672 60.3403C100.592 60.4254 100.546 60.4453 100.481 60.3221C100.23 59.8465 99.9717 59.3747 99.7128 58.9032C99.641 58.7725 99.6718 58.7119 99.821 58.7114C99.9043 58.711 99.9878 58.7083 100.071 58.7083C101.95 58.7082 103.829 58.7087 105.709 58.7064C105.78 58.7063 105.884 58.7504 105.916 58.671C105.942 58.6045 105.861 58.5351 105.814 58.4746C105.211 57.6863 104.404 57.4336 103.447 57.5759C103.289 57.5994 103.132 57.6325 102.975 57.6614C102.697 57.7128 102.455 57.6469 102.256 57.4396C101.887 57.056 101.516 56.674 101.147 56.2906C101.109 56.2509 101.049 56.2137 101.082 56.1458C101.109 56.0898 101.167 56.0657 101.225 56.0616C101.275 56.058 101.332 56.0586 101.375 56.0796C101.861 56.3177 102.362 56.2239 102.864 56.1565C103.131 56.1207 103.4 56.0985 103.67 56.1079C104.144 56.1247 104.533 56.3298 104.864 56.6546C105.478 57.2566 106.074 57.8759 106.594 58.5622C106.685 58.682 106.792 58.675 106.899 58.6592C107.139 58.624 107.268 58.7165 107.359 58.9416C107.487 59.2617 107.649 59.569 107.803 59.8781C107.87 60.0125 107.866 60.071 107.691 60.0717C107.258 60.0732 107.258 60.079 107.258 60.5128C107.258 62.3344 107.258 64.1558 107.258 65.9774C107.258 66.2031 107.179 66.2583 106.967 66.1558C106.396 65.8805 105.83 65.5962 105.263 65.3144C105.217 65.2916 105.167 65.2616 105.162 65.2066C105.156 65.1402 105.222 65.126 105.266 65.113C105.589 65.0176 105.675 64.7812 105.667 64.4749C105.659 64.1416 105.661 63.8079 105.668 63.4745C105.67 63.3586 105.637 63.3197 105.517 63.3202C105.093 63.3219 104.686 63.384 104.325 63.6243C104.215 63.6983 104.154 63.6708 104.102 63.5626C104.049 63.4535 103.99 63.3474 103.923 63.2201Z" fill="#FEFEFE"/>
<path d="M97.76 61.2955C97.76 60.89 97.7587 60.5128 97.761 60.1357C97.7615 60.0547 97.7324 60.023 97.6492 60.0232C96.8157 60.0253 95.9823 60.0216 95.1488 60.0273C94.9729 60.0284 94.8368 60.1382 94.7208 60.2608C94.6368 60.3496 94.5982 60.3306 94.5449 60.2299C94.2931 59.7548 94.0359 59.2826 93.7779 58.811C93.7148 58.6956 93.7265 58.6293 93.8719 58.6235C93.955 58.6203 94.0382 58.6123 94.1213 58.6123C95.769 58.6116 97.4167 58.6144 99.0643 58.6077C99.225 58.607 99.3021 58.6608 99.3655 58.8016C99.5203 59.1459 99.6922 59.4823 99.8551 59.8229C99.9417 60.0042 99.9306 60.021 99.7411 60.0242C99.3181 60.0315 99.3174 60.0315 99.3204 60.4568C99.3336 62.2839 99.3473 64.111 99.3607 65.9381C99.3623 66.1556 99.2864 66.2161 99.0872 66.1205C98.5049 65.8407 97.9284 65.5487 97.3505 65.2595C97.3065 65.2375 97.255 65.2054 97.264 65.1462C97.2716 65.0969 97.3243 65.0826 97.3658 65.0684C97.5652 64.9997 97.7216 64.8924 97.7511 64.6623C97.7638 64.5629 97.7669 64.5016 97.6266 64.5491C96.4379 64.9514 95.4983 64.5298 94.7094 63.6446C94.3533 63.2452 94.0791 62.7898 93.8582 62.303C93.5757 61.6804 93.7282 61.2076 94.3475 60.9215C95.2071 60.5246 96.1174 60.4334 97.0513 60.5641C97.2035 60.5854 97.321 60.6617 97.402 60.8028C97.4912 60.9578 97.5994 61.102 97.7 61.2505C97.706 61.2596 97.7182 61.2646 97.76 61.2955Z" fill="#FEFEFE"/>
<path d="M85.9907 53.7119C86.5995 53.2544 87.17 52.832 87.7331 52.4001C88.2001 52.0419 88.7202 51.743 89.1006 51.2852C89.4851 50.8225 89.8293 50.3265 90.2058 49.8567C90.8348 49.0722 91.5719 48.4051 92.3901 47.8171C93.1155 47.2957 93.9193 46.997 94.7854 46.8472C95.2836 46.761 95.7584 46.8741 96.2203 47.0758C96.5803 47.2329 96.8523 47.4827 97.0818 47.7887C97.1435 47.8709 97.2166 47.8913 97.3133 47.8907C97.8262 47.8875 98.3392 47.8935 98.8521 47.8864C98.9943 47.8845 99.0559 47.911 99.051 48.073C99.0387 48.4766 99.0428 48.8809 99.0497 49.2847C99.0515 49.3954 99.0158 49.4615 98.9224 49.5171C98.7134 49.6415 98.5132 49.7811 98.3022 49.9019C98.1989 49.9611 98.1685 50.0313 98.169 50.1473C98.1735 51.2822 98.1696 52.4172 98.1744 53.5522C98.175 53.6844 98.141 53.7258 98.0043 53.7257C94.048 53.7222 90.0918 53.7228 86.1355 53.7225C86.1042 53.7223 86.073 53.7181 85.9907 53.7119Z" fill="#F27021"/>
<path d="M114.057 53.7227C113.937 53.7227 113.873 53.7227 113.809 53.7227C109.896 53.7227 105.984 53.7229 102.071 53.7222C101.786 53.7222 101.827 53.7478 101.827 53.4755C101.825 52.4171 101.824 51.3587 101.829 50.3004C101.83 50.1715 101.797 50.0875 101.684 50.0192C101.465 49.8868 101.187 49.7722 101.083 49.5595C100.986 49.3621 101.056 49.0823 101.054 48.8389C101.053 48.6337 101.066 48.4274 101.05 48.2234C101.035 48.0313 101.083 47.9602 101.294 47.9684C101.761 47.9866 102.23 47.9715 102.698 47.9761C102.798 47.9772 102.863 47.9462 102.925 47.8673C103.592 47.019 104.477 46.7997 105.498 46.9888C106.578 47.1887 107.466 47.7481 108.284 48.4531C108.982 49.0551 109.581 49.7413 110.158 50.4583C110.539 50.9313 110.939 51.3998 111.448 51.7629C112.283 52.3578 113.094 52.9866 113.914 53.6015C113.949 53.6269 113.98 53.6566 114.057 53.7227Z" fill="#F27021"/>
<path d="M98.3108 53.6784C98.8396 53.3801 99.3684 53.0822 99.8968 52.7833C99.9539 52.7511 100.005 52.7228 100.073 52.7643C100.608 53.0889 101.144 53.4111 101.676 53.7496C100.554 53.6733 99.4339 53.7529 98.3108 53.6784Z" fill="#F26F21"/>
<path d="M92.3659 58.6117C92.2687 58.6117 92.2051 58.6117 92.1416 58.6117C89.852 58.6117 87.5624 58.6101 85.2728 58.6153C85.1186 58.6157 85.0285 58.5722 84.9558 58.4353C84.8425 58.2221 84.708 58.0201 84.571 57.7946C85.4976 57.9279 86.3711 57.7453 87.2457 57.5787C88.0635 57.423 88.8783 57.242 89.7157 57.2311C90.5471 57.2202 91.3237 57.3792 91.9331 58.0076C92.0979 58.1778 92.2385 58.3662 92.3659 58.6117Z" fill="#F27021"/>
<path d="M103.117 60.0242C103.892 60.0242 104.668 60.026 105.443 60.022C105.552 60.0214 105.569 60.0679 105.57 60.1596C105.58 60.6597 105.593 61.1598 105.61 61.6596C105.613 61.7661 105.584 61.8066 105.472 61.8051C105.042 61.7998 104.612 61.8024 104.183 61.8034C104.114 61.8035 104.067 61.7994 104.049 61.7102C103.919 61.0798 103.572 60.5711 103.139 60.112C103.122 60.0944 103.099 60.0791 103.117 60.0242Z" fill="#F27021"/>
<path d="M96.231 63.3158C95.7969 63.3042 95.3758 63.2371 94.9965 63.0088C94.6371 62.7925 94.6423 62.5506 95.0114 62.3423C95.3507 62.1509 95.7231 62.0573 96.1042 61.9986C96.5371 61.9319 96.9711 61.9114 97.4026 62.0144C97.7222 62.0907 97.795 62.1998 97.6971 62.516C97.6115 62.7927 97.4546 63.0199 97.169 63.1394C96.8676 63.2657 96.5525 63.304 96.231 63.3158Z" fill="#F27021"/>
</svg>
