<svg width="28" height="28" viewBox="0 0 28 28" fill="none" xmlns="http://www.w3.org/2000/svg">
<path d="M20.9727 7.08203V5.44141L21.7383 4.29297C21.7565 4.25651 21.7656 4.21549 21.7656 4.16992C21.7656 4.12435 21.7656 4.09245 21.7656 4.07422C21.7656 4.03776 21.752 4.0013 21.7246 3.96484C21.6973 3.92838 21.6654 3.90104 21.6289 3.88281L14.1367 0.0273438C14.1003 0.00911522 14.0547 0 14 0C13.9453 0 13.8997 0.00911522 13.8633 0.0273438L6.37109 3.88281C6.33464 3.90104 6.30273 3.92838 6.27539 3.96484C6.24805 4.0013 6.23438 4.03776 6.23438 4.07422C6.23438 4.09245 6.23438 4.12435 6.23438 4.16992C6.23438 4.21549 6.24349 4.25651 6.26172 4.29297L7.02734 5.44141V7.08203H20.9727ZM20.5352 13.2617V11.9219C20.1341 12.2135 19.6921 12.4414 19.209 12.6055C18.7259 12.7695 18.2201 12.8516 17.6914 12.8516H10.3086C9.77995 12.8516 9.27409 12.7695 8.79102 12.6055C8.30794 12.4414 7.86589 12.2135 7.46484 11.9219V13.2617C7.46484 14.1732 7.63802 15.0208 7.98438 15.8047C8.33073 16.6068 8.80013 17.304 9.39258 17.8965C9.98503 18.4889 10.6732 18.9492 11.457 19.2773C12.2591 19.6237 13.1068 19.7969 14 19.7969C14.9115 19.7969 15.7591 19.6237 16.543 19.2773C17.3451 18.9492 18.0423 18.4889 18.6348 17.8965C19.2272 17.304 19.6875 16.6068 20.0156 15.8047C20.362 15.0208 20.5352 14.1732 20.5352 13.2617ZM12.3867 21.2734L14 23.6797L15.6133 21.2734C15.3581 21.3281 15.0938 21.3691 14.8203 21.3965C14.5469 21.4238 14.2734 21.4375 14 21.4375C13.7266 21.4375 13.4531 21.4238 13.1797 21.3965C12.9062 21.3691 12.6419 21.3281 12.3867 21.2734ZM20.8086 17.8281C20.4805 18.3021 20.1068 18.7396 19.6875 19.1406C19.2682 19.5417 18.8125 19.8971 18.3203 20.207L14 26.5781L9.65234 20.207C9.17839 19.8971 8.73177 19.5417 8.3125 19.1406C7.89323 18.7396 7.52865 18.3021 7.21875 17.8281C6.2526 17.8281 5.35026 18.0104 4.51172 18.375C3.67318 18.7396 2.93945 19.2363 2.31055 19.8652C1.68164 20.4941 1.19401 21.2279 0.847656 22.0664C0.483073 22.9049 0.300781 23.8073 0.300781 24.7734V28H27.6992V24.7734C27.6992 23.8073 27.5169 22.9049 27.1523 22.0664C26.806 21.2279 26.3184 20.4941 25.6895 19.8652C25.0605 19.2363 24.3268 18.7396 23.4883 18.375C22.6497 18.0104 21.7565 17.8281 20.8086 17.8281ZM10.3086 11.2109H17.6914C18.293 11.2109 18.849 11.056 19.3594 10.7461C19.8698 10.4362 20.2617 10.0443 20.5352 9.57031V8.72266H7.46484V9.57031C7.75651 10.0443 8.15299 10.4362 8.6543 10.7461C9.1556 11.056 9.70703 11.2109 10.3086 11.2109Z" fill="white"/>
</svg>
