<svg width="28" height="28" viewBox="0 0 28 28" fill="none" xmlns="http://www.w3.org/2000/svg">
<path d="M25.7578 26.332V0H2.24219V26.332H0.820312V28H27.1797V26.332H25.7578ZM14.7109 3.11719H16.3789V5.05859H14.7109V3.11719ZM14.7109 6.58984H16.3789V8.53125H14.7109V6.58984ZM14.7109 10.0625H16.3789V12.0039H14.7109V10.0625ZM14.7109 13.5352H16.3789V15.4766H14.7109V13.5352ZM14.7109 17.0078H16.3789V18.9766H14.7109V17.0078ZM11.6211 3.11719H13.2891V5.05859H11.6211V3.11719ZM11.6211 6.58984H13.2891V8.53125H11.6211V6.58984ZM11.6211 10.0625H13.2891V12.0039H11.6211V10.0625ZM11.6211 13.5352H13.2891V15.4766H11.6211V13.5352ZM11.6211 17.0078H13.2891V18.9766H11.6211V17.0078ZM8.55859 3.11719H10.2266V5.05859H8.55859V3.11719ZM8.55859 6.58984H10.2266V8.53125H8.55859V6.58984ZM8.55859 10.0625H10.2266V12.0039H8.55859V10.0625ZM8.55859 13.5352H10.2266V15.4766H8.55859V13.5352ZM7.13672 18.9766H5.46875V17.0078H7.13672V18.9766ZM7.13672 15.4766H5.46875V13.5352H7.13672V15.4766ZM7.13672 12.0039H5.46875V10.0625H7.13672V12.0039ZM7.13672 8.53125H5.46875V6.58984H7.13672V8.53125ZM7.13672 5.05859H5.46875V3.11719H7.13672V5.05859ZM8.55859 18.9766V17.0078H10.2266V18.9766H8.55859ZM17.9102 26.332H16.2422V22.5039H14.8203V26.332H13.1797V22.5039H11.7578V26.332H10.0898V20.8359H17.9102V26.332ZM19.4414 18.9766H17.7734V17.0078H19.4414V18.9766ZM19.4414 15.4766H17.7734V13.5352H19.4414V15.4766ZM19.4414 12.0039H17.7734V10.0625H19.4414V12.0039ZM19.4414 8.53125H17.7734V6.58984H19.4414V8.53125ZM19.4414 5.05859H17.7734V3.11719H19.4414V5.05859ZM22.5312 18.9766H20.8633V17.0078H22.5312V18.9766ZM22.5312 15.4766H20.8633V13.5352H22.5312V15.4766ZM22.5312 12.0039H20.8633V10.0625H22.5312V12.0039ZM22.5312 8.53125H20.8633V6.58984H22.5312V8.53125ZM22.5312 5.05859H20.8633V3.11719H22.5312V5.05859Z" fill="white"/>
</svg>
